G04 #@! TF.GenerationSoftware,KiCad,Pcbnew,(5.0.2)-1*
G04 #@! TF.CreationDate,2019-07-14T21:05:42+02:00*
G04 #@! TF.ProjectId,Rosatron,526f7361-7472-46f6-9e2e-6b696361645f,rev?*
G04 #@! TF.SameCoordinates,PX4c8bb40PY4eb9cf0*
G04 #@! TF.FileFunction,Copper,L2,Bot*
G04 #@! TF.FilePolarity,Positive*
%FSLAX46Y46*%
G04 Gerber Fmt 4.6, Leading zero omitted, Abs format (unit mm)*
G04 Created by KiCad (PCBNEW (5.0.2)-1) date 14/07/2019 21:05:42*
%MOMM*%
%LPD*%
G01*
G04 APERTURE LIST*
G04 #@! TA.AperFunction,ComponentPad*
%ADD10O,1.700000X1.700000*%
G04 #@! TD*
G04 #@! TA.AperFunction,ComponentPad*
%ADD11R,1.700000X1.700000*%
G04 #@! TD*
G04 #@! TA.AperFunction,ComponentPad*
%ADD12C,1.500000*%
G04 #@! TD*
G04 #@! TA.AperFunction,ViaPad*
%ADD13C,0.800000*%
G04 #@! TD*
G04 #@! TA.AperFunction,Conductor*
%ADD14C,0.250000*%
G04 #@! TD*
G04 #@! TA.AperFunction,Conductor*
%ADD15C,0.254000*%
G04 #@! TD*
G04 APERTURE END LIST*
D10*
G04 #@! TO.P,,10*
G04 #@! TO.N,/RA4*
X40005000Y4445000D03*
G04 #@! TO.P,,9*
G04 #@! TO.N,/RA5*
X40005000Y6985000D03*
G04 #@! TO.P,,8*
G04 #@! TO.N,/RE0*
X40005000Y9525000D03*
G04 #@! TO.P,,7*
G04 #@! TO.N,/RE1*
X40005000Y12065000D03*
G04 #@! TO.P,,6*
G04 #@! TO.N,/RE2*
X40005000Y14605000D03*
G04 #@! TO.P,,5*
G04 #@! TO.N,Earth*
X40005000Y17145000D03*
G04 #@! TO.P,,4*
G04 #@! TO.N,+5V*
X40005000Y19685000D03*
G04 #@! TO.P,,3*
G04 #@! TO.N,/RA7*
X40005000Y22225000D03*
G04 #@! TO.P,,2*
G04 #@! TO.N,/RA6*
X40005000Y24765000D03*
G04 #@! TO.P,,1*
G04 #@! TO.N,/RC0*
X40005000Y27305000D03*
G04 #@! TD*
G04 #@! TO.P,OSC1,2*
G04 #@! TO.N,/RA7*
X30480000Y27813000D03*
G04 #@! TO.P,OSC1,1*
G04 #@! TO.N,Net-(220uf1-Pad1)*
X30480000Y25273000D03*
G04 #@! TD*
G04 #@! TO.P,OSC2,2*
G04 #@! TO.N,Net-(220uf2-Pad1)*
X30480000Y21717000D03*
G04 #@! TO.P,OSC2,1*
G04 #@! TO.N,/RA6*
X30480000Y19177000D03*
G04 #@! TD*
D11*
G04 #@! TO.P,,1*
G04 #@! TO.N,Net-(J10-Pad1)*
X19558000Y25400000D03*
D10*
G04 #@! TO.P,,2*
G04 #@! TO.N,Net-(J10-Pad2)*
X19558000Y27940000D03*
G04 #@! TD*
D11*
G04 #@! TO.P,Interruptor,1*
G04 #@! TO.N,Earth*
X17018000Y25400000D03*
D10*
G04 #@! TO.P,Interruptor,2*
G04 #@! TO.N,Net-(J2-Pad2)*
X17018000Y27940000D03*
G04 #@! TD*
G04 #@! TO.P,,10*
G04 #@! TO.N,/RA3*
X31750000Y2032000D03*
G04 #@! TO.P,,9*
G04 #@! TO.N,/RA2*
X29210000Y2032000D03*
G04 #@! TO.P,,8*
G04 #@! TO.N,/RA1*
X26670000Y2032000D03*
G04 #@! TO.P,,7*
G04 #@! TO.N,/RA0*
X24130000Y2032000D03*
G04 #@! TO.P,,6*
G04 #@! TO.N,/RE3_MCLR*
X21590000Y2032000D03*
G04 #@! TO.P,,5*
G04 #@! TO.N,/RB7_PGD*
X19050000Y2032000D03*
G04 #@! TO.P,,4*
G04 #@! TO.N,/RB6_PGC*
X16510000Y2032000D03*
G04 #@! TO.P,,3*
G04 #@! TO.N,/RB5*
X13970000Y2032000D03*
G04 #@! TO.P,,2*
G04 #@! TO.N,/RB4*
X11430000Y2032000D03*
G04 #@! TO.P,,1*
G04 #@! TO.N,/RB3*
X8890000Y2032000D03*
G04 #@! TD*
G04 #@! TO.P,,2*
G04 #@! TO.N,/RC5*
X11938000Y31242000D03*
G04 #@! TO.P,,3*
G04 #@! TO.N,/RC4*
X14478000Y31242000D03*
G04 #@! TO.P,,4*
G04 #@! TO.N,/RD3*
X17018000Y31242000D03*
G04 #@! TO.P,,5*
G04 #@! TO.N,/RD2*
X19558000Y31242000D03*
G04 #@! TO.P,,6*
G04 #@! TO.N,/RD1*
X22098000Y31242000D03*
G04 #@! TO.P,,7*
G04 #@! TO.N,/RD0*
X24638000Y31242000D03*
G04 #@! TO.P,,8*
G04 #@! TO.N,/RC3*
X27178000Y31242000D03*
G04 #@! TO.P,,9*
G04 #@! TO.N,/RC2*
X29718000Y31242000D03*
G04 #@! TO.P,,10*
G04 #@! TO.N,/RC1*
X32258000Y31242000D03*
G04 #@! TO.P,,1*
G04 #@! TO.N,/RC6*
X9398000Y31242000D03*
G04 #@! TD*
G04 #@! TO.P,,10*
G04 #@! TO.N,/RB2*
X2032000Y3810000D03*
G04 #@! TO.P,,9*
G04 #@! TO.N,/RB1*
X2032000Y6350000D03*
G04 #@! TO.P,,8*
G04 #@! TO.N,/RB0*
X2032000Y8890000D03*
G04 #@! TO.P,,7*
G04 #@! TO.N,Earth*
X2032000Y11430000D03*
G04 #@! TO.P,,6*
G04 #@! TO.N,+5V*
X2032000Y13970000D03*
G04 #@! TO.P,,5*
G04 #@! TO.N,/RD7*
X2032000Y16510000D03*
G04 #@! TO.P,,4*
G04 #@! TO.N,/RD6*
X2032000Y19050000D03*
G04 #@! TO.P,,3*
G04 #@! TO.N,/RD5*
X2032000Y21590000D03*
G04 #@! TO.P,,2*
G04 #@! TO.N,/RD4*
X2032000Y24130000D03*
G04 #@! TO.P,,1*
G04 #@! TO.N,/RC7*
X2032000Y26670000D03*
G04 #@! TD*
G04 #@! TO.P,P.UP,2*
G04 #@! TO.N,+5V*
X6223000Y10287000D03*
G04 #@! TO.P,P.UP,1*
G04 #@! TO.N,Net-(J9-Pad1)*
X6223000Y12827000D03*
G04 #@! TD*
G04 #@! TO.P,PROG,2*
G04 #@! TO.N,+5V*
X24003000Y5080000D03*
G04 #@! TO.P,PROG,3*
G04 #@! TO.N,Earth*
X21463000Y5080000D03*
G04 #@! TO.P,PROG,4*
G04 #@! TO.N,/RB7_PGD*
X18923000Y5080000D03*
G04 #@! TO.P,PROG,5*
G04 #@! TO.N,/RB6_PGC*
X16383000Y5080000D03*
G04 #@! TO.P,PROG,1*
G04 #@! TO.N,/RE3_MCLR*
X26543000Y5080000D03*
G04 #@! TD*
G04 #@! TO.P,Alim,2*
G04 #@! TO.N,Net-(J10-Pad2)*
X25019000Y27813000D03*
D11*
G04 #@! TO.P,Alim,1*
G04 #@! TO.N,Net-(J10-Pad1)*
X25019000Y25273000D03*
G04 #@! TD*
D12*
G04 #@! TO.P,Y1,1*
G04 #@! TO.N,Net-(220uf1-Pad1)*
X34671000Y25908000D03*
G04 #@! TO.P,Y1,2*
G04 #@! TO.N,Net-(220uf2-Pad1)*
X34671000Y21028000D03*
G04 #@! TD*
D13*
G04 #@! TO.N,Earth*
X30226000Y13462000D03*
X36830000Y17399000D03*
X33655000Y15621000D03*
X12065000Y22606000D03*
X16002000Y16510000D03*
X10273000Y19431000D03*
X9892000Y16764000D03*
X33781000Y10287000D03*
X23501497Y17113495D03*
X13589000Y22352000D03*
G04 #@! TO.N,+5V*
X11811000Y25019000D03*
X34036000Y13589000D03*
X5207000Y24765000D03*
X8142000Y16764000D03*
X8523000Y19431000D03*
X22987000Y16256000D03*
X38100000Y13843000D03*
X12319000Y16637000D03*
X17938912Y15370378D03*
G04 #@! TO.N,/RE3_MCLR*
X26416000Y10033000D03*
X22987000Y12446000D03*
G04 #@! TO.N,Net-(220uf1-Pad1)*
X27813000Y22479000D03*
G04 #@! TO.N,/RB0*
X10922000Y13716000D03*
X12446000Y13970000D03*
G04 #@! TO.N,/RB1*
X11176000Y11430000D03*
X15629849Y14385457D03*
G04 #@! TO.N,/RB2*
X15494000Y13208000D03*
X11176000Y8890000D03*
G04 #@! TO.N,/RA3*
X24637952Y9016953D03*
G04 #@! TO.N,/RA1*
X23368000Y7620000D03*
G04 #@! TO.N,/RA0*
X21082000Y8763000D03*
G04 #@! TO.N,/RB5*
X16492938Y13161873D03*
G04 #@! TO.N,/RB4*
X15506651Y12195346D03*
G04 #@! TO.N,/RB3*
X11049000Y6477000D03*
G04 #@! TO.N,/RC0*
X27178000Y19812000D03*
G04 #@! TO.N,/RE2*
X35179000Y15495001D03*
G04 #@! TO.N,/RE0*
X27178000Y13970000D03*
G04 #@! TO.N,/RA5*
X27051000Y12700000D03*
G04 #@! TO.N,/RA4*
X26289000Y11447002D03*
G04 #@! TO.N,/RC1*
X23241000Y20193000D03*
G04 #@! TO.N,/RC3*
X23368000Y28829000D03*
G04 #@! TO.N,/RC4*
X13363115Y24484033D03*
X14732000Y21844000D03*
X17241654Y20289654D03*
G04 #@! TO.N,Net-(J2-Pad2)*
X11684000Y27305000D03*
G04 #@! TD*
D14*
G04 #@! TO.N,Earth*
X2032000Y11430000D02*
X6096000Y15494000D01*
X12065000Y22606000D02*
X12065000Y21223000D01*
X12065000Y21223000D02*
X10273000Y19431000D01*
X10273000Y19431000D02*
X10273000Y17145000D01*
X10273000Y17145000D02*
X9892000Y16764000D01*
X9892000Y15607000D02*
X9779000Y15494000D01*
X9892000Y16764000D02*
X9892000Y15607000D01*
X6096000Y15494000D02*
X9779000Y15494000D01*
X9779000Y15494000D02*
X15748000Y15494000D01*
X16002000Y15748000D02*
X16002000Y16510000D01*
X15748000Y15494000D02*
X16002000Y15748000D01*
X16401999Y16110001D02*
X16002000Y16510000D01*
X17217939Y15294061D02*
X16401999Y16110001D01*
X17217939Y9325061D02*
X17217939Y15294061D01*
X21463000Y5080000D02*
X17217939Y9325061D01*
X25624505Y17113495D02*
X23501497Y17113495D01*
X33781000Y10287000D02*
X32451000Y10287000D01*
X32004000Y14535685D02*
X32004000Y10734000D01*
X33089315Y15621000D02*
X32004000Y14535685D01*
X33655000Y15621000D02*
X33089315Y15621000D01*
X32451000Y10287000D02*
X32004000Y10734000D01*
X35433000Y17399000D02*
X36830000Y17399000D01*
X33655000Y15621000D02*
X35433000Y17399000D01*
X39751000Y17399000D02*
X40005000Y17145000D01*
X36830000Y17399000D02*
X39751000Y17399000D01*
X30038000Y12708315D02*
X30038000Y12700000D01*
X30226000Y12896315D02*
X30038000Y12708315D01*
X30226000Y13462000D02*
X30226000Y12896315D01*
X32004000Y10734000D02*
X30038000Y12700000D01*
X30038000Y12700000D02*
X25624505Y17113495D01*
X16256000Y25019000D02*
X16256000Y25527000D01*
X13589000Y22352000D02*
X16256000Y25019000D01*
G04 #@! TO.N,+5V*
X2032000Y13970000D02*
X4826000Y16764000D01*
X8142000Y16764000D02*
X8142000Y19050000D01*
X8142000Y19050000D02*
X8523000Y19431000D01*
X5588000Y23818315D02*
X5588000Y16764000D01*
X5207000Y24199315D02*
X5588000Y23818315D01*
X5207000Y24765000D02*
X5207000Y24199315D01*
X4826000Y16764000D02*
X5588000Y16764000D01*
X5588000Y16764000D02*
X8142000Y16764000D01*
X22098000Y15367000D02*
X22987000Y16256000D01*
X24003000Y5080000D02*
X22098000Y6985000D01*
X22098000Y6985000D02*
X22098000Y15367000D01*
X22587001Y16655999D02*
X22987000Y16256000D01*
X22587001Y17272001D02*
X22587001Y16655999D01*
X23153496Y17838496D02*
X22587001Y17272001D01*
X31426498Y17838496D02*
X23153496Y17838496D01*
X33273002Y19685000D02*
X31426498Y17838496D01*
X40005000Y19685000D02*
X33273002Y19685000D01*
X34036000Y13589000D02*
X37846000Y13589000D01*
X37846000Y13589000D02*
X38100000Y13843000D01*
X12790001Y17108001D02*
X12319000Y16637000D01*
X11811000Y25019000D02*
X12790001Y24039999D01*
X12790001Y24039999D02*
X12790001Y17108001D01*
X22098000Y15367000D02*
X17942290Y15367000D01*
X17942290Y15367000D02*
X17938912Y15370378D01*
G04 #@! TO.N,/RE3_MCLR*
X26416000Y10033000D02*
X25400000Y10033000D01*
X25400000Y10033000D02*
X22987000Y12446000D01*
G04 #@! TO.N,Net-(220uf1-Pad1)*
X30480000Y25146000D02*
X30480000Y25273000D01*
X27813000Y22479000D02*
X30480000Y25146000D01*
G04 #@! TO.N,/RB0*
X2032000Y8890000D02*
X7366000Y8890000D01*
X7366000Y8890000D02*
X12446000Y13970000D01*
X12192000Y13716000D02*
X12446000Y13970000D01*
X10922000Y13716000D02*
X12192000Y13716000D01*
G04 #@! TO.N,/RB1*
X2032000Y6350000D02*
X7594392Y6350000D01*
X12674392Y11430000D02*
X12827000Y11582608D01*
X11176000Y11430000D02*
X12674392Y11430000D01*
X7594392Y6350000D02*
X12827000Y11582608D01*
X12827000Y11582608D02*
X15629849Y14385457D01*
G04 #@! TO.N,/RB2*
X2032000Y3810000D02*
X6096000Y3810000D01*
X6096000Y3810000D02*
X11176000Y8890000D01*
X11176000Y8890000D02*
X15494000Y13208000D01*
G04 #@! TO.N,/RA3*
X25967128Y9016953D02*
X24637952Y9016953D01*
X31750000Y2032000D02*
X31750000Y3234081D01*
X31750000Y3234081D02*
X25967128Y9016953D01*
G04 #@! TO.N,/RA1*
X24130000Y7620000D02*
X23368000Y7620000D01*
X25178001Y6571999D02*
X24130000Y7620000D01*
X26670000Y2032000D02*
X25178001Y3523999D01*
X25178001Y3523999D02*
X25178001Y6571999D01*
G04 #@! TO.N,/RA0*
X24130000Y2032000D02*
X22827999Y3334001D01*
X21082000Y8197315D02*
X21082000Y8763000D01*
X21082000Y7200002D02*
X21082000Y8197315D01*
X22827999Y5454003D02*
X21082000Y7200002D01*
X22827999Y3334001D02*
X22827999Y5454003D01*
G04 #@! TO.N,/RB5*
X16492938Y10141940D02*
X16492938Y13161873D01*
X13048999Y6698001D02*
X16492938Y10141940D01*
X13970000Y2032000D02*
X13048999Y2953001D01*
X13048999Y2953001D02*
X13048999Y6698001D01*
G04 #@! TO.N,/RB4*
X15506651Y9861649D02*
X15506651Y12195346D01*
X11430000Y2032000D02*
X11430000Y5784998D01*
X11430000Y5784998D02*
X15506651Y9861649D01*
G04 #@! TO.N,/RB3*
X8890000Y2032000D02*
X8890000Y4318000D01*
X8890000Y4318000D02*
X11049000Y6477000D01*
G04 #@! TO.N,/RC0*
X27178000Y20154002D02*
X27178000Y19812000D01*
X34544000Y27305000D02*
X31655001Y24416001D01*
X40005000Y27305000D02*
X34544000Y27305000D01*
X31655001Y24416001D02*
X31655001Y24162999D01*
X31655001Y24162999D02*
X30384003Y22892001D01*
X30384003Y22892001D02*
X29915999Y22892001D01*
X29915999Y22892001D02*
X27178000Y20154002D01*
G04 #@! TO.N,/RA6*
X35218001Y23915001D02*
X30480000Y19177000D01*
X39155001Y23915001D02*
X35218001Y23915001D01*
X40005000Y24765000D02*
X39155001Y23915001D01*
G04 #@! TO.N,/RE2*
X40005000Y14605000D02*
X36069001Y14605000D01*
X36069001Y14605000D02*
X35179000Y15495001D01*
G04 #@! TO.N,/RE0*
X40005000Y9525000D02*
X31623000Y9525000D01*
X31623000Y9525000D02*
X27178000Y13970000D01*
G04 #@! TO.N,/RA5*
X40005000Y6985000D02*
X32766000Y6985000D01*
X32766000Y6985000D02*
X27051000Y12700000D01*
G04 #@! TO.N,/RA4*
X40005000Y4445000D02*
X33291002Y4445000D01*
X33291002Y4445000D02*
X26289000Y11447002D01*
G04 #@! TO.N,/RC1*
X23241000Y20319002D02*
X23241000Y20193000D01*
X29559997Y26637999D02*
X23241000Y20319002D01*
X31044001Y26637999D02*
X29559997Y26637999D01*
X32258000Y31242000D02*
X32258000Y27851998D01*
X32258000Y27851998D02*
X31044001Y26637999D01*
G04 #@! TO.N,/RC3*
X23933685Y28829000D02*
X23368000Y28829000D01*
X23964002Y28829000D02*
X23933685Y28829000D01*
X25527003Y30392001D02*
X23964002Y28829000D01*
X26328001Y30392001D02*
X25527003Y30392001D01*
X27178000Y31242000D02*
X26328001Y30392001D01*
G04 #@! TO.N,/RC4*
X13363115Y24552883D02*
X13363115Y24484033D01*
X10958999Y26956999D02*
X13363115Y24552883D01*
X14478000Y31242000D02*
X10958999Y27722999D01*
X10958999Y27722999D02*
X10958999Y26956999D01*
X14732000Y21844000D02*
X15687308Y21844000D01*
X15687308Y21844000D02*
X17241654Y20289654D01*
G04 #@! TO.N,Net-(J10-Pad2)*
X20066000Y27686000D02*
X19939000Y27813000D01*
X21014081Y27813000D02*
X21864080Y26963001D01*
X19812000Y27813000D02*
X21014081Y27813000D01*
X24169001Y26963001D02*
X25019000Y27813000D01*
X21864080Y26963001D02*
X24169001Y26963001D01*
G04 #@! TO.N,Net-(J10-Pad1)*
X20066000Y25146000D02*
X19939000Y25273000D01*
X19812000Y25273000D02*
X25400000Y25273000D01*
G04 #@! TO.N,Net-(J2-Pad2)*
X15748000Y27305000D02*
X16256000Y27813000D01*
X15494000Y27305000D02*
X16256000Y28067000D01*
X11684000Y27305000D02*
X15494000Y27305000D01*
G04 #@! TD*
D15*
G04 #@! TO.N,Earth*
G36*
X41783000Y254000D02*
X254000Y254000D01*
X254000Y8890000D01*
X517908Y8890000D01*
X633161Y8310582D01*
X961375Y7819375D01*
X1259761Y7620000D01*
X961375Y7420625D01*
X633161Y6929418D01*
X517908Y6350000D01*
X633161Y5770582D01*
X961375Y5279375D01*
X1259761Y5080000D01*
X961375Y4880625D01*
X633161Y4389418D01*
X517908Y3810000D01*
X633161Y3230582D01*
X961375Y2739375D01*
X1452582Y2411161D01*
X1885744Y2325000D01*
X2178256Y2325000D01*
X2611418Y2411161D01*
X3102625Y2739375D01*
X3310178Y3050000D01*
X6021153Y3050000D01*
X6096000Y3035112D01*
X6170847Y3050000D01*
X6170852Y3050000D01*
X6392537Y3094096D01*
X6643929Y3262071D01*
X6686331Y3325530D01*
X10014000Y6653198D01*
X10014000Y6516802D01*
X8405528Y4908329D01*
X8342072Y4865929D01*
X8299672Y4802473D01*
X8299671Y4802472D01*
X8174097Y4614537D01*
X8115112Y4318000D01*
X8130001Y4243148D01*
X8130001Y3310178D01*
X7819375Y3102625D01*
X7491161Y2611418D01*
X7375908Y2032000D01*
X7491161Y1452582D01*
X7819375Y961375D01*
X8310582Y633161D01*
X8743744Y547000D01*
X9036256Y547000D01*
X9469418Y633161D01*
X9960625Y961375D01*
X10160000Y1259761D01*
X10359375Y961375D01*
X10850582Y633161D01*
X11283744Y547000D01*
X11576256Y547000D01*
X12009418Y633161D01*
X12500625Y961375D01*
X12700000Y1259761D01*
X12899375Y961375D01*
X13390582Y633161D01*
X13823744Y547000D01*
X14116256Y547000D01*
X14549418Y633161D01*
X15040625Y961375D01*
X15240000Y1259761D01*
X15439375Y961375D01*
X15930582Y633161D01*
X16363744Y547000D01*
X16656256Y547000D01*
X17089418Y633161D01*
X17580625Y961375D01*
X17780000Y1259761D01*
X17979375Y961375D01*
X18470582Y633161D01*
X18903744Y547000D01*
X19196256Y547000D01*
X19629418Y633161D01*
X20120625Y961375D01*
X20320000Y1259761D01*
X20519375Y961375D01*
X21010582Y633161D01*
X21443744Y547000D01*
X21736256Y547000D01*
X22169418Y633161D01*
X22660625Y961375D01*
X22860000Y1259761D01*
X23059375Y961375D01*
X23550582Y633161D01*
X23983744Y547000D01*
X24276256Y547000D01*
X24709418Y633161D01*
X25200625Y961375D01*
X25400000Y1259761D01*
X25599375Y961375D01*
X26090582Y633161D01*
X26523744Y547000D01*
X26816256Y547000D01*
X27249418Y633161D01*
X27740625Y961375D01*
X27940000Y1259761D01*
X28139375Y961375D01*
X28630582Y633161D01*
X29063744Y547000D01*
X29356256Y547000D01*
X29789418Y633161D01*
X30280625Y961375D01*
X30480000Y1259761D01*
X30679375Y961375D01*
X31170582Y633161D01*
X31603744Y547000D01*
X31896256Y547000D01*
X32329418Y633161D01*
X32820625Y961375D01*
X33148839Y1452582D01*
X33264092Y2032000D01*
X33148839Y2611418D01*
X32820625Y3102625D01*
X32509714Y3310369D01*
X32465904Y3530618D01*
X32297929Y3782010D01*
X32234473Y3824410D01*
X26932300Y9126582D01*
X27002280Y9155569D01*
X27253956Y9407245D01*
X32700673Y3960527D01*
X32743073Y3897071D01*
X32994465Y3729096D01*
X33216150Y3685000D01*
X33216154Y3685000D01*
X33291001Y3670112D01*
X33365848Y3685000D01*
X38726822Y3685000D01*
X38934375Y3374375D01*
X39425582Y3046161D01*
X39858744Y2960000D01*
X40151256Y2960000D01*
X40584418Y3046161D01*
X41075625Y3374375D01*
X41403839Y3865582D01*
X41519092Y4445000D01*
X41403839Y5024418D01*
X41075625Y5515625D01*
X40777239Y5715000D01*
X41075625Y5914375D01*
X41403839Y6405582D01*
X41519092Y6985000D01*
X41403839Y7564418D01*
X41075625Y8055625D01*
X40777239Y8255000D01*
X41075625Y8454375D01*
X41403839Y8945582D01*
X41519092Y9525000D01*
X41403839Y10104418D01*
X41075625Y10595625D01*
X40777239Y10795000D01*
X41075625Y10994375D01*
X41403839Y11485582D01*
X41519092Y12065000D01*
X41403839Y12644418D01*
X41075625Y13135625D01*
X40777239Y13335000D01*
X41075625Y13534375D01*
X41403839Y14025582D01*
X41519092Y14605000D01*
X41403839Y15184418D01*
X41075625Y15675625D01*
X40756522Y15888843D01*
X40886358Y15949817D01*
X41276645Y16378076D01*
X41446476Y16788110D01*
X41325155Y17018000D01*
X40132000Y17018000D01*
X40132000Y16998000D01*
X39878000Y16998000D01*
X39878000Y17018000D01*
X38684845Y17018000D01*
X38563524Y16788110D01*
X38733355Y16378076D01*
X39123642Y15949817D01*
X39253478Y15888843D01*
X38934375Y15675625D01*
X38726822Y15365000D01*
X36383803Y15365000D01*
X36214000Y15534803D01*
X36214000Y15700875D01*
X36056431Y16081281D01*
X35765280Y16372432D01*
X35384874Y16530001D01*
X34973126Y16530001D01*
X34592720Y16372432D01*
X34301569Y16081281D01*
X34144000Y15700875D01*
X34144000Y15289127D01*
X34301569Y14908721D01*
X34592720Y14617570D01*
X34973126Y14460001D01*
X35139198Y14460001D01*
X35250199Y14349000D01*
X34739711Y14349000D01*
X34622280Y14466431D01*
X34241874Y14624000D01*
X33830126Y14624000D01*
X33449720Y14466431D01*
X33158569Y14175280D01*
X33001000Y13794874D01*
X33001000Y13383126D01*
X33158569Y13002720D01*
X33449720Y12711569D01*
X33830126Y12554000D01*
X34241874Y12554000D01*
X34622280Y12711569D01*
X34739711Y12829000D01*
X37771153Y12829000D01*
X37846000Y12814112D01*
X37868544Y12818596D01*
X37894126Y12808000D01*
X38305874Y12808000D01*
X38686280Y12965569D01*
X38977431Y13256720D01*
X39058175Y13451654D01*
X39232761Y13335000D01*
X38934375Y13135625D01*
X38606161Y12644418D01*
X38490908Y12065000D01*
X38606161Y11485582D01*
X38934375Y10994375D01*
X39232761Y10795000D01*
X38934375Y10595625D01*
X38726822Y10285000D01*
X31937802Y10285000D01*
X28213000Y14009801D01*
X28213000Y14175874D01*
X28055431Y14556280D01*
X27764280Y14847431D01*
X27383874Y15005000D01*
X26972126Y15005000D01*
X26591720Y14847431D01*
X26300569Y14556280D01*
X26143000Y14175874D01*
X26143000Y13764126D01*
X26291911Y13404622D01*
X26173569Y13286280D01*
X26016000Y12905874D01*
X26016000Y12494126D01*
X26030117Y12460045D01*
X25702720Y12324433D01*
X25411569Y12033282D01*
X25254000Y11652876D01*
X25254000Y11253802D01*
X24022000Y12485801D01*
X24022000Y12651874D01*
X23864431Y13032280D01*
X23573280Y13323431D01*
X23192874Y13481000D01*
X22858000Y13481000D01*
X22858000Y15052199D01*
X23026801Y15221000D01*
X23192874Y15221000D01*
X23573280Y15378569D01*
X23864431Y15669720D01*
X24022000Y16050126D01*
X24022000Y16461874D01*
X23864431Y16842280D01*
X23628215Y17078496D01*
X31351651Y17078496D01*
X31426498Y17063608D01*
X31501345Y17078496D01*
X31501350Y17078496D01*
X31723035Y17122592D01*
X31974427Y17290567D01*
X32016829Y17354026D01*
X33587804Y18925000D01*
X38726822Y18925000D01*
X38934375Y18614375D01*
X39253478Y18401157D01*
X39123642Y18340183D01*
X38733355Y17911924D01*
X38563524Y17501890D01*
X38684845Y17272000D01*
X39878000Y17272000D01*
X39878000Y17292000D01*
X40132000Y17292000D01*
X40132000Y17272000D01*
X41325155Y17272000D01*
X41446476Y17501890D01*
X41276645Y17911924D01*
X40886358Y18340183D01*
X40756522Y18401157D01*
X41075625Y18614375D01*
X41403839Y19105582D01*
X41519092Y19685000D01*
X41403839Y20264418D01*
X41075625Y20755625D01*
X40777239Y20955000D01*
X41075625Y21154375D01*
X41403839Y21645582D01*
X41519092Y22225000D01*
X41403839Y22804418D01*
X41075625Y23295625D01*
X40777239Y23495000D01*
X41075625Y23694375D01*
X41403839Y24185582D01*
X41519092Y24765000D01*
X41403839Y25344418D01*
X41075625Y25835625D01*
X40777239Y26035000D01*
X41075625Y26234375D01*
X41403839Y26725582D01*
X41519092Y27305000D01*
X41403839Y27884418D01*
X41075625Y28375625D01*
X40584418Y28703839D01*
X40151256Y28790000D01*
X39858744Y28790000D01*
X39425582Y28703839D01*
X38934375Y28375625D01*
X38726822Y28065000D01*
X34618848Y28065000D01*
X34544000Y28079888D01*
X34469152Y28065000D01*
X34469148Y28065000D01*
X34247463Y28020904D01*
X33996071Y27852929D01*
X33953671Y27789473D01*
X31901698Y25737499D01*
X31878839Y25852418D01*
X31660295Y26179492D01*
X32742473Y27261669D01*
X32805929Y27304069D01*
X32901749Y27447473D01*
X32973904Y27555460D01*
X32983480Y27603603D01*
X33018000Y27777146D01*
X33018000Y27777150D01*
X33032888Y27851998D01*
X33018000Y27926846D01*
X33018000Y29963822D01*
X33328625Y30171375D01*
X33656839Y30662582D01*
X33772092Y31242000D01*
X33656839Y31821418D01*
X33328625Y32312625D01*
X32837418Y32640839D01*
X32404256Y32727000D01*
X32111744Y32727000D01*
X31678582Y32640839D01*
X31187375Y32312625D01*
X30988000Y32014239D01*
X30788625Y32312625D01*
X30297418Y32640839D01*
X29864256Y32727000D01*
X29571744Y32727000D01*
X29138582Y32640839D01*
X28647375Y32312625D01*
X28448000Y32014239D01*
X28248625Y32312625D01*
X27757418Y32640839D01*
X27324256Y32727000D01*
X27031744Y32727000D01*
X26598582Y32640839D01*
X26107375Y32312625D01*
X25908000Y32014239D01*
X25708625Y32312625D01*
X25217418Y32640839D01*
X24784256Y32727000D01*
X24491744Y32727000D01*
X24058582Y32640839D01*
X23567375Y32312625D01*
X23368000Y32014239D01*
X23168625Y32312625D01*
X22677418Y32640839D01*
X22244256Y32727000D01*
X21951744Y32727000D01*
X21518582Y32640839D01*
X21027375Y32312625D01*
X20828000Y32014239D01*
X20628625Y32312625D01*
X20137418Y32640839D01*
X19704256Y32727000D01*
X19411744Y32727000D01*
X18978582Y32640839D01*
X18487375Y32312625D01*
X18288000Y32014239D01*
X18088625Y32312625D01*
X17597418Y32640839D01*
X17164256Y32727000D01*
X16871744Y32727000D01*
X16438582Y32640839D01*
X15947375Y32312625D01*
X15748000Y32014239D01*
X15548625Y32312625D01*
X15057418Y32640839D01*
X14624256Y32727000D01*
X14331744Y32727000D01*
X13898582Y32640839D01*
X13407375Y32312625D01*
X13208000Y32014239D01*
X13008625Y32312625D01*
X12517418Y32640839D01*
X12084256Y32727000D01*
X11791744Y32727000D01*
X11358582Y32640839D01*
X10867375Y32312625D01*
X10668000Y32014239D01*
X10468625Y32312625D01*
X9977418Y32640839D01*
X9544256Y32727000D01*
X9251744Y32727000D01*
X8818582Y32640839D01*
X8327375Y32312625D01*
X7999161Y31821418D01*
X7883908Y31242000D01*
X7999161Y30662582D01*
X8327375Y30171375D01*
X8818582Y29843161D01*
X9251744Y29757000D01*
X9544256Y29757000D01*
X9977418Y29843161D01*
X10468625Y30171375D01*
X10668000Y30469761D01*
X10867375Y30171375D01*
X11358582Y29843161D01*
X11791744Y29757000D01*
X11918199Y29757000D01*
X10474529Y28313330D01*
X10411070Y28270928D01*
X10243095Y28019535D01*
X10198999Y27797850D01*
X10198999Y27797846D01*
X10184111Y27722999D01*
X10198999Y27648152D01*
X10198999Y27031846D01*
X10184111Y26956999D01*
X10198999Y26882152D01*
X10198999Y26882147D01*
X10232313Y26714671D01*
X10243096Y26660462D01*
X10296319Y26580809D01*
X10411071Y26409070D01*
X10474527Y26366670D01*
X11084743Y25756454D01*
X10933569Y25605280D01*
X10776000Y25224874D01*
X10776000Y24813126D01*
X10933569Y24432720D01*
X11224720Y24141569D01*
X11605126Y23984000D01*
X11771198Y23984000D01*
X12030001Y23725196D01*
X12030002Y17637569D01*
X11732720Y17514431D01*
X11441569Y17223280D01*
X11284000Y16842874D01*
X11284000Y16431126D01*
X11441569Y16050720D01*
X11732720Y15759569D01*
X12113126Y15602000D01*
X12524874Y15602000D01*
X12905280Y15759569D01*
X13196431Y16050720D01*
X13354000Y16431126D01*
X13354000Y16584122D01*
X13505905Y16811464D01*
X13550001Y17033149D01*
X13550001Y17033153D01*
X13564889Y17108000D01*
X13550001Y17182847D01*
X13550001Y22049874D01*
X13697000Y22049874D01*
X13697000Y21638126D01*
X13854569Y21257720D01*
X14145720Y20966569D01*
X14526126Y20809000D01*
X14937874Y20809000D01*
X15318280Y20966569D01*
X15404109Y21052398D01*
X16206654Y20249852D01*
X16206654Y20083780D01*
X16364223Y19703374D01*
X16655374Y19412223D01*
X17035780Y19254654D01*
X17447528Y19254654D01*
X17827934Y19412223D01*
X18119085Y19703374D01*
X18276654Y20083780D01*
X18276654Y20495528D01*
X18119085Y20875934D01*
X17827934Y21167085D01*
X17447528Y21324654D01*
X17281456Y21324654D01*
X16277639Y22328470D01*
X16235237Y22391929D01*
X15983845Y22559904D01*
X15762160Y22604000D01*
X15762155Y22604000D01*
X15687308Y22618888D01*
X15612461Y22604000D01*
X15435711Y22604000D01*
X15318280Y22721431D01*
X14937874Y22879000D01*
X14526126Y22879000D01*
X14145720Y22721431D01*
X13854569Y22430280D01*
X13697000Y22049874D01*
X13550001Y22049874D01*
X13550001Y23449033D01*
X13568989Y23449033D01*
X13949395Y23606602D01*
X14240546Y23897753D01*
X14398115Y24278159D01*
X14398115Y24689907D01*
X14240546Y25070313D01*
X14196609Y25114250D01*
X15533000Y25114250D01*
X15533000Y24423690D01*
X15629673Y24190301D01*
X15808302Y24011673D01*
X16041691Y23915000D01*
X16732250Y23915000D01*
X16891000Y24073750D01*
X16891000Y25273000D01*
X15691750Y25273000D01*
X15533000Y25114250D01*
X14196609Y25114250D01*
X13949395Y25361464D01*
X13568989Y25519033D01*
X13471768Y25519033D01*
X12445800Y26545000D01*
X15419153Y26545000D01*
X15494000Y26530112D01*
X15568847Y26545000D01*
X15568852Y26545000D01*
X15605929Y26552375D01*
X15533000Y26376310D01*
X15533000Y25685750D01*
X15691750Y25527000D01*
X16891000Y25527000D01*
X16891000Y25547000D01*
X17145000Y25547000D01*
X17145000Y25527000D01*
X17165000Y25527000D01*
X17165000Y25273000D01*
X17145000Y25273000D01*
X17145000Y24073750D01*
X17303750Y23915000D01*
X17994309Y23915000D01*
X18227698Y24011673D01*
X18284975Y24068949D01*
X18460235Y23951843D01*
X18708000Y23902560D01*
X20408000Y23902560D01*
X20655765Y23951843D01*
X20865809Y24092191D01*
X21006157Y24302235D01*
X21048080Y24513000D01*
X23521560Y24513000D01*
X23521560Y24423000D01*
X23570843Y24175235D01*
X23711191Y23965191D01*
X23921235Y23824843D01*
X24169000Y23775560D01*
X25622757Y23775560D01*
X23075197Y21228000D01*
X23035126Y21228000D01*
X22654720Y21070431D01*
X22363569Y20779280D01*
X22206000Y20398874D01*
X22206000Y19987126D01*
X22363569Y19606720D01*
X22654720Y19315569D01*
X23035126Y19158000D01*
X23446874Y19158000D01*
X23827280Y19315569D01*
X24118431Y19606720D01*
X24276000Y19987126D01*
X24276000Y20279201D01*
X26846113Y22849313D01*
X26778000Y22684874D01*
X26778000Y22273126D01*
X26935569Y21892720D01*
X27226720Y21601569D01*
X27455855Y21506658D01*
X26693530Y20744333D01*
X26643401Y20710838D01*
X26591720Y20689431D01*
X26300569Y20398280D01*
X26143000Y20017874D01*
X26143000Y19606126D01*
X26300569Y19225720D01*
X26591720Y18934569D01*
X26972126Y18777000D01*
X27383874Y18777000D01*
X27764280Y18934569D01*
X28055431Y19225720D01*
X28213000Y19606126D01*
X28213000Y20017874D01*
X28184787Y20085987D01*
X29143334Y21044534D01*
X29409375Y20646375D01*
X29707761Y20447000D01*
X29409375Y20247625D01*
X29081161Y19756418D01*
X28965908Y19177000D01*
X29080979Y18598496D01*
X23228343Y18598496D01*
X23153496Y18613384D01*
X23078649Y18598496D01*
X23078644Y18598496D01*
X22856959Y18554400D01*
X22605567Y18386425D01*
X22563167Y18322969D01*
X22102531Y17862332D01*
X22039072Y17819930D01*
X21871097Y17568537D01*
X21827001Y17346852D01*
X21827001Y17346848D01*
X21812113Y17272001D01*
X21827001Y17197154D01*
X21827001Y16730846D01*
X21812113Y16655999D01*
X21827001Y16581152D01*
X21827001Y16581147D01*
X21871097Y16359462D01*
X21929001Y16272803D01*
X21783199Y16127000D01*
X18646001Y16127000D01*
X18525192Y16247809D01*
X18144786Y16405378D01*
X17733038Y16405378D01*
X17352632Y16247809D01*
X17061481Y15956658D01*
X16903912Y15576252D01*
X16903912Y15164504D01*
X17061481Y14784098D01*
X17352632Y14492947D01*
X17733038Y14335378D01*
X18144786Y14335378D01*
X18525192Y14492947D01*
X18639245Y14607000D01*
X21338001Y14607000D01*
X21338000Y9777237D01*
X21287874Y9798000D01*
X20876126Y9798000D01*
X20495720Y9640431D01*
X20204569Y9349280D01*
X20047000Y8968874D01*
X20047000Y8557126D01*
X20204569Y8176720D01*
X20322001Y8059288D01*
X20322000Y7274850D01*
X20307112Y7200002D01*
X20322000Y7125155D01*
X20322000Y7125151D01*
X20366096Y6903466D01*
X20534071Y6652073D01*
X20597530Y6609671D01*
X20808847Y6398353D01*
X20696076Y6351645D01*
X20267817Y5961358D01*
X20206843Y5831522D01*
X19993625Y6150625D01*
X19502418Y6478839D01*
X19069256Y6565000D01*
X18776744Y6565000D01*
X18343582Y6478839D01*
X17852375Y6150625D01*
X17653000Y5852239D01*
X17453625Y6150625D01*
X16962418Y6478839D01*
X16529256Y6565000D01*
X16236744Y6565000D01*
X15803582Y6478839D01*
X15312375Y6150625D01*
X14984161Y5659418D01*
X14868908Y5080000D01*
X14984161Y4500582D01*
X15312375Y4009375D01*
X15803582Y3681161D01*
X16236744Y3595000D01*
X16529256Y3595000D01*
X16962418Y3681161D01*
X17453625Y4009375D01*
X17653000Y4307761D01*
X17852375Y4009375D01*
X18343582Y3681161D01*
X18776744Y3595000D01*
X19069256Y3595000D01*
X19502418Y3681161D01*
X19993625Y4009375D01*
X20206843Y4328478D01*
X20267817Y4198642D01*
X20696076Y3808355D01*
X21106110Y3638524D01*
X21336000Y3759845D01*
X21336000Y4953000D01*
X21316000Y4953000D01*
X21316000Y5207000D01*
X21336000Y5207000D01*
X21336000Y5227000D01*
X21590000Y5227000D01*
X21590000Y5207000D01*
X21610000Y5207000D01*
X21610000Y4953000D01*
X21590000Y4953000D01*
X21590000Y3759845D01*
X21819890Y3638524D01*
X22067999Y3741288D01*
X22067999Y3451012D01*
X21736256Y3517000D01*
X21443744Y3517000D01*
X21010582Y3430839D01*
X20519375Y3102625D01*
X20320000Y2804239D01*
X20120625Y3102625D01*
X19629418Y3430839D01*
X19196256Y3517000D01*
X18903744Y3517000D01*
X18470582Y3430839D01*
X17979375Y3102625D01*
X17780000Y2804239D01*
X17580625Y3102625D01*
X17089418Y3430839D01*
X16656256Y3517000D01*
X16363744Y3517000D01*
X15930582Y3430839D01*
X15439375Y3102625D01*
X15240000Y2804239D01*
X15040625Y3102625D01*
X14549418Y3430839D01*
X14116256Y3517000D01*
X13823744Y3517000D01*
X13808999Y3514067D01*
X13808999Y6383200D01*
X16977411Y9551611D01*
X17040867Y9594011D01*
X17208842Y9845403D01*
X17252938Y10067088D01*
X17252938Y10067092D01*
X17267826Y10141939D01*
X17252938Y10216786D01*
X17252938Y12458162D01*
X17370369Y12575593D01*
X17527938Y12955999D01*
X17527938Y13367747D01*
X17370369Y13748153D01*
X17079218Y14039304D01*
X16698812Y14196873D01*
X16664849Y14196873D01*
X16664849Y14591331D01*
X16507280Y14971737D01*
X16216129Y15262888D01*
X15835723Y15420457D01*
X15423975Y15420457D01*
X15043569Y15262888D01*
X14752418Y14971737D01*
X14594849Y14591331D01*
X14594849Y14425259D01*
X12359591Y12190000D01*
X11879711Y12190000D01*
X11810256Y12259455D01*
X12485802Y12935000D01*
X12651874Y12935000D01*
X13032280Y13092569D01*
X13323431Y13383720D01*
X13481000Y13764126D01*
X13481000Y14175874D01*
X13323431Y14556280D01*
X13032280Y14847431D01*
X12651874Y15005000D01*
X12240126Y15005000D01*
X11859720Y14847431D01*
X11568569Y14556280D01*
X11561792Y14539919D01*
X11508280Y14593431D01*
X11127874Y14751000D01*
X10716126Y14751000D01*
X10335720Y14593431D01*
X10044569Y14302280D01*
X9887000Y13921874D01*
X9887000Y13510126D01*
X10044569Y13129720D01*
X10287744Y12886545D01*
X7728980Y10327781D01*
X7621839Y10866418D01*
X7293625Y11357625D01*
X6995239Y11557000D01*
X7293625Y11756375D01*
X7621839Y12247582D01*
X7737092Y12827000D01*
X7621839Y13406418D01*
X7293625Y13897625D01*
X6802418Y14225839D01*
X6369256Y14312000D01*
X6076744Y14312000D01*
X5643582Y14225839D01*
X5152375Y13897625D01*
X4824161Y13406418D01*
X4708908Y12827000D01*
X4824161Y12247582D01*
X5152375Y11756375D01*
X5450761Y11557000D01*
X5152375Y11357625D01*
X4824161Y10866418D01*
X4708908Y10287000D01*
X4824161Y9707582D01*
X4862636Y9650000D01*
X3310178Y9650000D01*
X3102625Y9960625D01*
X2783522Y10173843D01*
X2913358Y10234817D01*
X3303645Y10663076D01*
X3473476Y11073110D01*
X3352155Y11303000D01*
X2159000Y11303000D01*
X2159000Y11283000D01*
X1905000Y11283000D01*
X1905000Y11303000D01*
X711845Y11303000D01*
X590524Y11073110D01*
X760355Y10663076D01*
X1150642Y10234817D01*
X1280478Y10173843D01*
X961375Y9960625D01*
X633161Y9469418D01*
X517908Y8890000D01*
X254000Y8890000D01*
X254000Y26670000D01*
X517908Y26670000D01*
X633161Y26090582D01*
X961375Y25599375D01*
X1259761Y25400000D01*
X961375Y25200625D01*
X633161Y24709418D01*
X517908Y24130000D01*
X633161Y23550582D01*
X961375Y23059375D01*
X1259761Y22860000D01*
X961375Y22660625D01*
X633161Y22169418D01*
X517908Y21590000D01*
X633161Y21010582D01*
X961375Y20519375D01*
X1259761Y20320000D01*
X961375Y20120625D01*
X633161Y19629418D01*
X517908Y19050000D01*
X633161Y18470582D01*
X961375Y17979375D01*
X1259761Y17780000D01*
X961375Y17580625D01*
X633161Y17089418D01*
X517908Y16510000D01*
X633161Y15930582D01*
X961375Y15439375D01*
X1259761Y15240000D01*
X961375Y15040625D01*
X633161Y14549418D01*
X517908Y13970000D01*
X633161Y13390582D01*
X961375Y12899375D01*
X1280478Y12686157D01*
X1150642Y12625183D01*
X760355Y12196924D01*
X590524Y11786890D01*
X711845Y11557000D01*
X1905000Y11557000D01*
X1905000Y11577000D01*
X2159000Y11577000D01*
X2159000Y11557000D01*
X3352155Y11557000D01*
X3473476Y11786890D01*
X3303645Y12196924D01*
X2913358Y12625183D01*
X2783522Y12686157D01*
X3102625Y12899375D01*
X3430839Y13390582D01*
X3546092Y13970000D01*
X3473209Y14336408D01*
X5140802Y16004000D01*
X5513148Y16004000D01*
X5588000Y15989111D01*
X5662852Y16004000D01*
X7438289Y16004000D01*
X7555720Y15886569D01*
X7936126Y15729000D01*
X8347874Y15729000D01*
X8728280Y15886569D01*
X9019431Y16177720D01*
X9177000Y16558126D01*
X9177000Y16969874D01*
X9019431Y17350280D01*
X8902000Y17467711D01*
X8902000Y18467711D01*
X9109280Y18553569D01*
X9400431Y18844720D01*
X9558000Y19225126D01*
X9558000Y19636874D01*
X9400431Y20017280D01*
X9109280Y20308431D01*
X8728874Y20466000D01*
X8317126Y20466000D01*
X7936720Y20308431D01*
X7645569Y20017280D01*
X7488000Y19636874D01*
X7488000Y19439181D01*
X7426097Y19346537D01*
X7367112Y19050000D01*
X7382001Y18975148D01*
X7382000Y17524000D01*
X6348000Y17524000D01*
X6348000Y23743469D01*
X6362888Y23818316D01*
X6348000Y23893163D01*
X6348000Y23893167D01*
X6303904Y24114852D01*
X6152088Y24342060D01*
X6242000Y24559126D01*
X6242000Y24970874D01*
X6084431Y25351280D01*
X5793280Y25642431D01*
X5412874Y25800000D01*
X5001126Y25800000D01*
X4620720Y25642431D01*
X4329569Y25351280D01*
X4172000Y24970874D01*
X4172000Y24559126D01*
X4329569Y24178720D01*
X4462686Y24045603D01*
X4491096Y23902778D01*
X4659072Y23651386D01*
X4722527Y23608986D01*
X4828000Y23503514D01*
X4828001Y17538490D01*
X4826000Y17538888D01*
X4751152Y17524000D01*
X4751148Y17524000D01*
X4577605Y17489480D01*
X4529462Y17479904D01*
X4416670Y17404538D01*
X4278071Y17311929D01*
X4235671Y17248473D01*
X3537980Y16550782D01*
X3430839Y17089418D01*
X3102625Y17580625D01*
X2804239Y17780000D01*
X3102625Y17979375D01*
X3430839Y18470582D01*
X3546092Y19050000D01*
X3430839Y19629418D01*
X3102625Y20120625D01*
X2804239Y20320000D01*
X3102625Y20519375D01*
X3430839Y21010582D01*
X3546092Y21590000D01*
X3430839Y22169418D01*
X3102625Y22660625D01*
X2804239Y22860000D01*
X3102625Y23059375D01*
X3430839Y23550582D01*
X3546092Y24130000D01*
X3430839Y24709418D01*
X3102625Y25200625D01*
X2804239Y25400000D01*
X3102625Y25599375D01*
X3430839Y26090582D01*
X3546092Y26670000D01*
X3430839Y27249418D01*
X3102625Y27740625D01*
X2611418Y28068839D01*
X2178256Y28155000D01*
X1885744Y28155000D01*
X1452582Y28068839D01*
X961375Y27740625D01*
X633161Y27249418D01*
X517908Y26670000D01*
X254000Y26670000D01*
X254000Y33020000D01*
X41783000Y33020000D01*
X41783000Y254000D01*
X41783000Y254000D01*
G37*
X41783000Y254000D02*
X254000Y254000D01*
X254000Y8890000D01*
X517908Y8890000D01*
X633161Y8310582D01*
X961375Y7819375D01*
X1259761Y7620000D01*
X961375Y7420625D01*
X633161Y6929418D01*
X517908Y6350000D01*
X633161Y5770582D01*
X961375Y5279375D01*
X1259761Y5080000D01*
X961375Y4880625D01*
X633161Y4389418D01*
X517908Y3810000D01*
X633161Y3230582D01*
X961375Y2739375D01*
X1452582Y2411161D01*
X1885744Y2325000D01*
X2178256Y2325000D01*
X2611418Y2411161D01*
X3102625Y2739375D01*
X3310178Y3050000D01*
X6021153Y3050000D01*
X6096000Y3035112D01*
X6170847Y3050000D01*
X6170852Y3050000D01*
X6392537Y3094096D01*
X6643929Y3262071D01*
X6686331Y3325530D01*
X10014000Y6653198D01*
X10014000Y6516802D01*
X8405528Y4908329D01*
X8342072Y4865929D01*
X8299672Y4802473D01*
X8299671Y4802472D01*
X8174097Y4614537D01*
X8115112Y4318000D01*
X8130001Y4243148D01*
X8130001Y3310178D01*
X7819375Y3102625D01*
X7491161Y2611418D01*
X7375908Y2032000D01*
X7491161Y1452582D01*
X7819375Y961375D01*
X8310582Y633161D01*
X8743744Y547000D01*
X9036256Y547000D01*
X9469418Y633161D01*
X9960625Y961375D01*
X10160000Y1259761D01*
X10359375Y961375D01*
X10850582Y633161D01*
X11283744Y547000D01*
X11576256Y547000D01*
X12009418Y633161D01*
X12500625Y961375D01*
X12700000Y1259761D01*
X12899375Y961375D01*
X13390582Y633161D01*
X13823744Y547000D01*
X14116256Y547000D01*
X14549418Y633161D01*
X15040625Y961375D01*
X15240000Y1259761D01*
X15439375Y961375D01*
X15930582Y633161D01*
X16363744Y547000D01*
X16656256Y547000D01*
X17089418Y633161D01*
X17580625Y961375D01*
X17780000Y1259761D01*
X17979375Y961375D01*
X18470582Y633161D01*
X18903744Y547000D01*
X19196256Y547000D01*
X19629418Y633161D01*
X20120625Y961375D01*
X20320000Y1259761D01*
X20519375Y961375D01*
X21010582Y633161D01*
X21443744Y547000D01*
X21736256Y547000D01*
X22169418Y633161D01*
X22660625Y961375D01*
X22860000Y1259761D01*
X23059375Y961375D01*
X23550582Y633161D01*
X23983744Y547000D01*
X24276256Y547000D01*
X24709418Y633161D01*
X25200625Y961375D01*
X25400000Y1259761D01*
X25599375Y961375D01*
X26090582Y633161D01*
X26523744Y547000D01*
X26816256Y547000D01*
X27249418Y633161D01*
X27740625Y961375D01*
X27940000Y1259761D01*
X28139375Y961375D01*
X28630582Y633161D01*
X29063744Y547000D01*
X29356256Y547000D01*
X29789418Y633161D01*
X30280625Y961375D01*
X30480000Y1259761D01*
X30679375Y961375D01*
X31170582Y633161D01*
X31603744Y547000D01*
X31896256Y547000D01*
X32329418Y633161D01*
X32820625Y961375D01*
X33148839Y1452582D01*
X33264092Y2032000D01*
X33148839Y2611418D01*
X32820625Y3102625D01*
X32509714Y3310369D01*
X32465904Y3530618D01*
X32297929Y3782010D01*
X32234473Y3824410D01*
X26932300Y9126582D01*
X27002280Y9155569D01*
X27253956Y9407245D01*
X32700673Y3960527D01*
X32743073Y3897071D01*
X32994465Y3729096D01*
X33216150Y3685000D01*
X33216154Y3685000D01*
X33291001Y3670112D01*
X33365848Y3685000D01*
X38726822Y3685000D01*
X38934375Y3374375D01*
X39425582Y3046161D01*
X39858744Y2960000D01*
X40151256Y2960000D01*
X40584418Y3046161D01*
X41075625Y3374375D01*
X41403839Y3865582D01*
X41519092Y4445000D01*
X41403839Y5024418D01*
X41075625Y5515625D01*
X40777239Y5715000D01*
X41075625Y5914375D01*
X41403839Y6405582D01*
X41519092Y6985000D01*
X41403839Y7564418D01*
X41075625Y8055625D01*
X40777239Y8255000D01*
X41075625Y8454375D01*
X41403839Y8945582D01*
X41519092Y9525000D01*
X41403839Y10104418D01*
X41075625Y10595625D01*
X40777239Y10795000D01*
X41075625Y10994375D01*
X41403839Y11485582D01*
X41519092Y12065000D01*
X41403839Y12644418D01*
X41075625Y13135625D01*
X40777239Y13335000D01*
X41075625Y13534375D01*
X41403839Y14025582D01*
X41519092Y14605000D01*
X41403839Y15184418D01*
X41075625Y15675625D01*
X40756522Y15888843D01*
X40886358Y15949817D01*
X41276645Y16378076D01*
X41446476Y16788110D01*
X41325155Y17018000D01*
X40132000Y17018000D01*
X40132000Y16998000D01*
X39878000Y16998000D01*
X39878000Y17018000D01*
X38684845Y17018000D01*
X38563524Y16788110D01*
X38733355Y16378076D01*
X39123642Y15949817D01*
X39253478Y15888843D01*
X38934375Y15675625D01*
X38726822Y15365000D01*
X36383803Y15365000D01*
X36214000Y15534803D01*
X36214000Y15700875D01*
X36056431Y16081281D01*
X35765280Y16372432D01*
X35384874Y16530001D01*
X34973126Y16530001D01*
X34592720Y16372432D01*
X34301569Y16081281D01*
X34144000Y15700875D01*
X34144000Y15289127D01*
X34301569Y14908721D01*
X34592720Y14617570D01*
X34973126Y14460001D01*
X35139198Y14460001D01*
X35250199Y14349000D01*
X34739711Y14349000D01*
X34622280Y14466431D01*
X34241874Y14624000D01*
X33830126Y14624000D01*
X33449720Y14466431D01*
X33158569Y14175280D01*
X33001000Y13794874D01*
X33001000Y13383126D01*
X33158569Y13002720D01*
X33449720Y12711569D01*
X33830126Y12554000D01*
X34241874Y12554000D01*
X34622280Y12711569D01*
X34739711Y12829000D01*
X37771153Y12829000D01*
X37846000Y12814112D01*
X37868544Y12818596D01*
X37894126Y12808000D01*
X38305874Y12808000D01*
X38686280Y12965569D01*
X38977431Y13256720D01*
X39058175Y13451654D01*
X39232761Y13335000D01*
X38934375Y13135625D01*
X38606161Y12644418D01*
X38490908Y12065000D01*
X38606161Y11485582D01*
X38934375Y10994375D01*
X39232761Y10795000D01*
X38934375Y10595625D01*
X38726822Y10285000D01*
X31937802Y10285000D01*
X28213000Y14009801D01*
X28213000Y14175874D01*
X28055431Y14556280D01*
X27764280Y14847431D01*
X27383874Y15005000D01*
X26972126Y15005000D01*
X26591720Y14847431D01*
X26300569Y14556280D01*
X26143000Y14175874D01*
X26143000Y13764126D01*
X26291911Y13404622D01*
X26173569Y13286280D01*
X26016000Y12905874D01*
X26016000Y12494126D01*
X26030117Y12460045D01*
X25702720Y12324433D01*
X25411569Y12033282D01*
X25254000Y11652876D01*
X25254000Y11253802D01*
X24022000Y12485801D01*
X24022000Y12651874D01*
X23864431Y13032280D01*
X23573280Y13323431D01*
X23192874Y13481000D01*
X22858000Y13481000D01*
X22858000Y15052199D01*
X23026801Y15221000D01*
X23192874Y15221000D01*
X23573280Y15378569D01*
X23864431Y15669720D01*
X24022000Y16050126D01*
X24022000Y16461874D01*
X23864431Y16842280D01*
X23628215Y17078496D01*
X31351651Y17078496D01*
X31426498Y17063608D01*
X31501345Y17078496D01*
X31501350Y17078496D01*
X31723035Y17122592D01*
X31974427Y17290567D01*
X32016829Y17354026D01*
X33587804Y18925000D01*
X38726822Y18925000D01*
X38934375Y18614375D01*
X39253478Y18401157D01*
X39123642Y18340183D01*
X38733355Y17911924D01*
X38563524Y17501890D01*
X38684845Y17272000D01*
X39878000Y17272000D01*
X39878000Y17292000D01*
X40132000Y17292000D01*
X40132000Y17272000D01*
X41325155Y17272000D01*
X41446476Y17501890D01*
X41276645Y17911924D01*
X40886358Y18340183D01*
X40756522Y18401157D01*
X41075625Y18614375D01*
X41403839Y19105582D01*
X41519092Y19685000D01*
X41403839Y20264418D01*
X41075625Y20755625D01*
X40777239Y20955000D01*
X41075625Y21154375D01*
X41403839Y21645582D01*
X41519092Y22225000D01*
X41403839Y22804418D01*
X41075625Y23295625D01*
X40777239Y23495000D01*
X41075625Y23694375D01*
X41403839Y24185582D01*
X41519092Y24765000D01*
X41403839Y25344418D01*
X41075625Y25835625D01*
X40777239Y26035000D01*
X41075625Y26234375D01*
X41403839Y26725582D01*
X41519092Y27305000D01*
X41403839Y27884418D01*
X41075625Y28375625D01*
X40584418Y28703839D01*
X40151256Y28790000D01*
X39858744Y28790000D01*
X39425582Y28703839D01*
X38934375Y28375625D01*
X38726822Y28065000D01*
X34618848Y28065000D01*
X34544000Y28079888D01*
X34469152Y28065000D01*
X34469148Y28065000D01*
X34247463Y28020904D01*
X33996071Y27852929D01*
X33953671Y27789473D01*
X31901698Y25737499D01*
X31878839Y25852418D01*
X31660295Y26179492D01*
X32742473Y27261669D01*
X32805929Y27304069D01*
X32901749Y27447473D01*
X32973904Y27555460D01*
X32983480Y27603603D01*
X33018000Y27777146D01*
X33018000Y27777150D01*
X33032888Y27851998D01*
X33018000Y27926846D01*
X33018000Y29963822D01*
X33328625Y30171375D01*
X33656839Y30662582D01*
X33772092Y31242000D01*
X33656839Y31821418D01*
X33328625Y32312625D01*
X32837418Y32640839D01*
X32404256Y32727000D01*
X32111744Y32727000D01*
X31678582Y32640839D01*
X31187375Y32312625D01*
X30988000Y32014239D01*
X30788625Y32312625D01*
X30297418Y32640839D01*
X29864256Y32727000D01*
X29571744Y32727000D01*
X29138582Y32640839D01*
X28647375Y32312625D01*
X28448000Y32014239D01*
X28248625Y32312625D01*
X27757418Y32640839D01*
X27324256Y32727000D01*
X27031744Y32727000D01*
X26598582Y32640839D01*
X26107375Y32312625D01*
X25908000Y32014239D01*
X25708625Y32312625D01*
X25217418Y32640839D01*
X24784256Y32727000D01*
X24491744Y32727000D01*
X24058582Y32640839D01*
X23567375Y32312625D01*
X23368000Y32014239D01*
X23168625Y32312625D01*
X22677418Y32640839D01*
X22244256Y32727000D01*
X21951744Y32727000D01*
X21518582Y32640839D01*
X21027375Y32312625D01*
X20828000Y32014239D01*
X20628625Y32312625D01*
X20137418Y32640839D01*
X19704256Y32727000D01*
X19411744Y32727000D01*
X18978582Y32640839D01*
X18487375Y32312625D01*
X18288000Y32014239D01*
X18088625Y32312625D01*
X17597418Y32640839D01*
X17164256Y32727000D01*
X16871744Y32727000D01*
X16438582Y32640839D01*
X15947375Y32312625D01*
X15748000Y32014239D01*
X15548625Y32312625D01*
X15057418Y32640839D01*
X14624256Y32727000D01*
X14331744Y32727000D01*
X13898582Y32640839D01*
X13407375Y32312625D01*
X13208000Y32014239D01*
X13008625Y32312625D01*
X12517418Y32640839D01*
X12084256Y32727000D01*
X11791744Y32727000D01*
X11358582Y32640839D01*
X10867375Y32312625D01*
X10668000Y32014239D01*
X10468625Y32312625D01*
X9977418Y32640839D01*
X9544256Y32727000D01*
X9251744Y32727000D01*
X8818582Y32640839D01*
X8327375Y32312625D01*
X7999161Y31821418D01*
X7883908Y31242000D01*
X7999161Y30662582D01*
X8327375Y30171375D01*
X8818582Y29843161D01*
X9251744Y29757000D01*
X9544256Y29757000D01*
X9977418Y29843161D01*
X10468625Y30171375D01*
X10668000Y30469761D01*
X10867375Y30171375D01*
X11358582Y29843161D01*
X11791744Y29757000D01*
X11918199Y29757000D01*
X10474529Y28313330D01*
X10411070Y28270928D01*
X10243095Y28019535D01*
X10198999Y27797850D01*
X10198999Y27797846D01*
X10184111Y27722999D01*
X10198999Y27648152D01*
X10198999Y27031846D01*
X10184111Y26956999D01*
X10198999Y26882152D01*
X10198999Y26882147D01*
X10232313Y26714671D01*
X10243096Y26660462D01*
X10296319Y26580809D01*
X10411071Y26409070D01*
X10474527Y26366670D01*
X11084743Y25756454D01*
X10933569Y25605280D01*
X10776000Y25224874D01*
X10776000Y24813126D01*
X10933569Y24432720D01*
X11224720Y24141569D01*
X11605126Y23984000D01*
X11771198Y23984000D01*
X12030001Y23725196D01*
X12030002Y17637569D01*
X11732720Y17514431D01*
X11441569Y17223280D01*
X11284000Y16842874D01*
X11284000Y16431126D01*
X11441569Y16050720D01*
X11732720Y15759569D01*
X12113126Y15602000D01*
X12524874Y15602000D01*
X12905280Y15759569D01*
X13196431Y16050720D01*
X13354000Y16431126D01*
X13354000Y16584122D01*
X13505905Y16811464D01*
X13550001Y17033149D01*
X13550001Y17033153D01*
X13564889Y17108000D01*
X13550001Y17182847D01*
X13550001Y22049874D01*
X13697000Y22049874D01*
X13697000Y21638126D01*
X13854569Y21257720D01*
X14145720Y20966569D01*
X14526126Y20809000D01*
X14937874Y20809000D01*
X15318280Y20966569D01*
X15404109Y21052398D01*
X16206654Y20249852D01*
X16206654Y20083780D01*
X16364223Y19703374D01*
X16655374Y19412223D01*
X17035780Y19254654D01*
X17447528Y19254654D01*
X17827934Y19412223D01*
X18119085Y19703374D01*
X18276654Y20083780D01*
X18276654Y20495528D01*
X18119085Y20875934D01*
X17827934Y21167085D01*
X17447528Y21324654D01*
X17281456Y21324654D01*
X16277639Y22328470D01*
X16235237Y22391929D01*
X15983845Y22559904D01*
X15762160Y22604000D01*
X15762155Y22604000D01*
X15687308Y22618888D01*
X15612461Y22604000D01*
X15435711Y22604000D01*
X15318280Y22721431D01*
X14937874Y22879000D01*
X14526126Y22879000D01*
X14145720Y22721431D01*
X13854569Y22430280D01*
X13697000Y22049874D01*
X13550001Y22049874D01*
X13550001Y23449033D01*
X13568989Y23449033D01*
X13949395Y23606602D01*
X14240546Y23897753D01*
X14398115Y24278159D01*
X14398115Y24689907D01*
X14240546Y25070313D01*
X14196609Y25114250D01*
X15533000Y25114250D01*
X15533000Y24423690D01*
X15629673Y24190301D01*
X15808302Y24011673D01*
X16041691Y23915000D01*
X16732250Y23915000D01*
X16891000Y24073750D01*
X16891000Y25273000D01*
X15691750Y25273000D01*
X15533000Y25114250D01*
X14196609Y25114250D01*
X13949395Y25361464D01*
X13568989Y25519033D01*
X13471768Y25519033D01*
X12445800Y26545000D01*
X15419153Y26545000D01*
X15494000Y26530112D01*
X15568847Y26545000D01*
X15568852Y26545000D01*
X15605929Y26552375D01*
X15533000Y26376310D01*
X15533000Y25685750D01*
X15691750Y25527000D01*
X16891000Y25527000D01*
X16891000Y25547000D01*
X17145000Y25547000D01*
X17145000Y25527000D01*
X17165000Y25527000D01*
X17165000Y25273000D01*
X17145000Y25273000D01*
X17145000Y24073750D01*
X17303750Y23915000D01*
X17994309Y23915000D01*
X18227698Y24011673D01*
X18284975Y24068949D01*
X18460235Y23951843D01*
X18708000Y23902560D01*
X20408000Y23902560D01*
X20655765Y23951843D01*
X20865809Y24092191D01*
X21006157Y24302235D01*
X21048080Y24513000D01*
X23521560Y24513000D01*
X23521560Y24423000D01*
X23570843Y24175235D01*
X23711191Y23965191D01*
X23921235Y23824843D01*
X24169000Y23775560D01*
X25622757Y23775560D01*
X23075197Y21228000D01*
X23035126Y21228000D01*
X22654720Y21070431D01*
X22363569Y20779280D01*
X22206000Y20398874D01*
X22206000Y19987126D01*
X22363569Y19606720D01*
X22654720Y19315569D01*
X23035126Y19158000D01*
X23446874Y19158000D01*
X23827280Y19315569D01*
X24118431Y19606720D01*
X24276000Y19987126D01*
X24276000Y20279201D01*
X26846113Y22849313D01*
X26778000Y22684874D01*
X26778000Y22273126D01*
X26935569Y21892720D01*
X27226720Y21601569D01*
X27455855Y21506658D01*
X26693530Y20744333D01*
X26643401Y20710838D01*
X26591720Y20689431D01*
X26300569Y20398280D01*
X26143000Y20017874D01*
X26143000Y19606126D01*
X26300569Y19225720D01*
X26591720Y18934569D01*
X26972126Y18777000D01*
X27383874Y18777000D01*
X27764280Y18934569D01*
X28055431Y19225720D01*
X28213000Y19606126D01*
X28213000Y20017874D01*
X28184787Y20085987D01*
X29143334Y21044534D01*
X29409375Y20646375D01*
X29707761Y20447000D01*
X29409375Y20247625D01*
X29081161Y19756418D01*
X28965908Y19177000D01*
X29080979Y18598496D01*
X23228343Y18598496D01*
X23153496Y18613384D01*
X23078649Y18598496D01*
X23078644Y18598496D01*
X22856959Y18554400D01*
X22605567Y18386425D01*
X22563167Y18322969D01*
X22102531Y17862332D01*
X22039072Y17819930D01*
X21871097Y17568537D01*
X21827001Y17346852D01*
X21827001Y17346848D01*
X21812113Y17272001D01*
X21827001Y17197154D01*
X21827001Y16730846D01*
X21812113Y16655999D01*
X21827001Y16581152D01*
X21827001Y16581147D01*
X21871097Y16359462D01*
X21929001Y16272803D01*
X21783199Y16127000D01*
X18646001Y16127000D01*
X18525192Y16247809D01*
X18144786Y16405378D01*
X17733038Y16405378D01*
X17352632Y16247809D01*
X17061481Y15956658D01*
X16903912Y15576252D01*
X16903912Y15164504D01*
X17061481Y14784098D01*
X17352632Y14492947D01*
X17733038Y14335378D01*
X18144786Y14335378D01*
X18525192Y14492947D01*
X18639245Y14607000D01*
X21338001Y14607000D01*
X21338000Y9777237D01*
X21287874Y9798000D01*
X20876126Y9798000D01*
X20495720Y9640431D01*
X20204569Y9349280D01*
X20047000Y8968874D01*
X20047000Y8557126D01*
X20204569Y8176720D01*
X20322001Y8059288D01*
X20322000Y7274850D01*
X20307112Y7200002D01*
X20322000Y7125155D01*
X20322000Y7125151D01*
X20366096Y6903466D01*
X20534071Y6652073D01*
X20597530Y6609671D01*
X20808847Y6398353D01*
X20696076Y6351645D01*
X20267817Y5961358D01*
X20206843Y5831522D01*
X19993625Y6150625D01*
X19502418Y6478839D01*
X19069256Y6565000D01*
X18776744Y6565000D01*
X18343582Y6478839D01*
X17852375Y6150625D01*
X17653000Y5852239D01*
X17453625Y6150625D01*
X16962418Y6478839D01*
X16529256Y6565000D01*
X16236744Y6565000D01*
X15803582Y6478839D01*
X15312375Y6150625D01*
X14984161Y5659418D01*
X14868908Y5080000D01*
X14984161Y4500582D01*
X15312375Y4009375D01*
X15803582Y3681161D01*
X16236744Y3595000D01*
X16529256Y3595000D01*
X16962418Y3681161D01*
X17453625Y4009375D01*
X17653000Y4307761D01*
X17852375Y4009375D01*
X18343582Y3681161D01*
X18776744Y3595000D01*
X19069256Y3595000D01*
X19502418Y3681161D01*
X19993625Y4009375D01*
X20206843Y4328478D01*
X20267817Y4198642D01*
X20696076Y3808355D01*
X21106110Y3638524D01*
X21336000Y3759845D01*
X21336000Y4953000D01*
X21316000Y4953000D01*
X21316000Y5207000D01*
X21336000Y5207000D01*
X21336000Y5227000D01*
X21590000Y5227000D01*
X21590000Y5207000D01*
X21610000Y5207000D01*
X21610000Y4953000D01*
X21590000Y4953000D01*
X21590000Y3759845D01*
X21819890Y3638524D01*
X22067999Y3741288D01*
X22067999Y3451012D01*
X21736256Y3517000D01*
X21443744Y3517000D01*
X21010582Y3430839D01*
X20519375Y3102625D01*
X20320000Y2804239D01*
X20120625Y3102625D01*
X19629418Y3430839D01*
X19196256Y3517000D01*
X18903744Y3517000D01*
X18470582Y3430839D01*
X17979375Y3102625D01*
X17780000Y2804239D01*
X17580625Y3102625D01*
X17089418Y3430839D01*
X16656256Y3517000D01*
X16363744Y3517000D01*
X15930582Y3430839D01*
X15439375Y3102625D01*
X15240000Y2804239D01*
X15040625Y3102625D01*
X14549418Y3430839D01*
X14116256Y3517000D01*
X13823744Y3517000D01*
X13808999Y3514067D01*
X13808999Y6383200D01*
X16977411Y9551611D01*
X17040867Y9594011D01*
X17208842Y9845403D01*
X17252938Y10067088D01*
X17252938Y10067092D01*
X17267826Y10141939D01*
X17252938Y10216786D01*
X17252938Y12458162D01*
X17370369Y12575593D01*
X17527938Y12955999D01*
X17527938Y13367747D01*
X17370369Y13748153D01*
X17079218Y14039304D01*
X16698812Y14196873D01*
X16664849Y14196873D01*
X16664849Y14591331D01*
X16507280Y14971737D01*
X16216129Y15262888D01*
X15835723Y15420457D01*
X15423975Y15420457D01*
X15043569Y15262888D01*
X14752418Y14971737D01*
X14594849Y14591331D01*
X14594849Y14425259D01*
X12359591Y12190000D01*
X11879711Y12190000D01*
X11810256Y12259455D01*
X12485802Y12935000D01*
X12651874Y12935000D01*
X13032280Y13092569D01*
X13323431Y13383720D01*
X13481000Y13764126D01*
X13481000Y14175874D01*
X13323431Y14556280D01*
X13032280Y14847431D01*
X12651874Y15005000D01*
X12240126Y15005000D01*
X11859720Y14847431D01*
X11568569Y14556280D01*
X11561792Y14539919D01*
X11508280Y14593431D01*
X11127874Y14751000D01*
X10716126Y14751000D01*
X10335720Y14593431D01*
X10044569Y14302280D01*
X9887000Y13921874D01*
X9887000Y13510126D01*
X10044569Y13129720D01*
X10287744Y12886545D01*
X7728980Y10327781D01*
X7621839Y10866418D01*
X7293625Y11357625D01*
X6995239Y11557000D01*
X7293625Y11756375D01*
X7621839Y12247582D01*
X7737092Y12827000D01*
X7621839Y13406418D01*
X7293625Y13897625D01*
X6802418Y14225839D01*
X6369256Y14312000D01*
X6076744Y14312000D01*
X5643582Y14225839D01*
X5152375Y13897625D01*
X4824161Y13406418D01*
X4708908Y12827000D01*
X4824161Y12247582D01*
X5152375Y11756375D01*
X5450761Y11557000D01*
X5152375Y11357625D01*
X4824161Y10866418D01*
X4708908Y10287000D01*
X4824161Y9707582D01*
X4862636Y9650000D01*
X3310178Y9650000D01*
X3102625Y9960625D01*
X2783522Y10173843D01*
X2913358Y10234817D01*
X3303645Y10663076D01*
X3473476Y11073110D01*
X3352155Y11303000D01*
X2159000Y11303000D01*
X2159000Y11283000D01*
X1905000Y11283000D01*
X1905000Y11303000D01*
X711845Y11303000D01*
X590524Y11073110D01*
X760355Y10663076D01*
X1150642Y10234817D01*
X1280478Y10173843D01*
X961375Y9960625D01*
X633161Y9469418D01*
X517908Y8890000D01*
X254000Y8890000D01*
X254000Y26670000D01*
X517908Y26670000D01*
X633161Y26090582D01*
X961375Y25599375D01*
X1259761Y25400000D01*
X961375Y25200625D01*
X633161Y24709418D01*
X517908Y24130000D01*
X633161Y23550582D01*
X961375Y23059375D01*
X1259761Y22860000D01*
X961375Y22660625D01*
X633161Y22169418D01*
X517908Y21590000D01*
X633161Y21010582D01*
X961375Y20519375D01*
X1259761Y20320000D01*
X961375Y20120625D01*
X633161Y19629418D01*
X517908Y19050000D01*
X633161Y18470582D01*
X961375Y17979375D01*
X1259761Y17780000D01*
X961375Y17580625D01*
X633161Y17089418D01*
X517908Y16510000D01*
X633161Y15930582D01*
X961375Y15439375D01*
X1259761Y15240000D01*
X961375Y15040625D01*
X633161Y14549418D01*
X517908Y13970000D01*
X633161Y13390582D01*
X961375Y12899375D01*
X1280478Y12686157D01*
X1150642Y12625183D01*
X760355Y12196924D01*
X590524Y11786890D01*
X711845Y11557000D01*
X1905000Y11557000D01*
X1905000Y11577000D01*
X2159000Y11577000D01*
X2159000Y11557000D01*
X3352155Y11557000D01*
X3473476Y11786890D01*
X3303645Y12196924D01*
X2913358Y12625183D01*
X2783522Y12686157D01*
X3102625Y12899375D01*
X3430839Y13390582D01*
X3546092Y13970000D01*
X3473209Y14336408D01*
X5140802Y16004000D01*
X5513148Y16004000D01*
X5588000Y15989111D01*
X5662852Y16004000D01*
X7438289Y16004000D01*
X7555720Y15886569D01*
X7936126Y15729000D01*
X8347874Y15729000D01*
X8728280Y15886569D01*
X9019431Y16177720D01*
X9177000Y16558126D01*
X9177000Y16969874D01*
X9019431Y17350280D01*
X8902000Y17467711D01*
X8902000Y18467711D01*
X9109280Y18553569D01*
X9400431Y18844720D01*
X9558000Y19225126D01*
X9558000Y19636874D01*
X9400431Y20017280D01*
X9109280Y20308431D01*
X8728874Y20466000D01*
X8317126Y20466000D01*
X7936720Y20308431D01*
X7645569Y20017280D01*
X7488000Y19636874D01*
X7488000Y19439181D01*
X7426097Y19346537D01*
X7367112Y19050000D01*
X7382001Y18975148D01*
X7382000Y17524000D01*
X6348000Y17524000D01*
X6348000Y23743469D01*
X6362888Y23818316D01*
X6348000Y23893163D01*
X6348000Y23893167D01*
X6303904Y24114852D01*
X6152088Y24342060D01*
X6242000Y24559126D01*
X6242000Y24970874D01*
X6084431Y25351280D01*
X5793280Y25642431D01*
X5412874Y25800000D01*
X5001126Y25800000D01*
X4620720Y25642431D01*
X4329569Y25351280D01*
X4172000Y24970874D01*
X4172000Y24559126D01*
X4329569Y24178720D01*
X4462686Y24045603D01*
X4491096Y23902778D01*
X4659072Y23651386D01*
X4722527Y23608986D01*
X4828000Y23503514D01*
X4828001Y17538490D01*
X4826000Y17538888D01*
X4751152Y17524000D01*
X4751148Y17524000D01*
X4577605Y17489480D01*
X4529462Y17479904D01*
X4416670Y17404538D01*
X4278071Y17311929D01*
X4235671Y17248473D01*
X3537980Y16550782D01*
X3430839Y17089418D01*
X3102625Y17580625D01*
X2804239Y17780000D01*
X3102625Y17979375D01*
X3430839Y18470582D01*
X3546092Y19050000D01*
X3430839Y19629418D01*
X3102625Y20120625D01*
X2804239Y20320000D01*
X3102625Y20519375D01*
X3430839Y21010582D01*
X3546092Y21590000D01*
X3430839Y22169418D01*
X3102625Y22660625D01*
X2804239Y22860000D01*
X3102625Y23059375D01*
X3430839Y23550582D01*
X3546092Y24130000D01*
X3430839Y24709418D01*
X3102625Y25200625D01*
X2804239Y25400000D01*
X3102625Y25599375D01*
X3430839Y26090582D01*
X3546092Y26670000D01*
X3430839Y27249418D01*
X3102625Y27740625D01*
X2611418Y28068839D01*
X2178256Y28155000D01*
X1885744Y28155000D01*
X1452582Y28068839D01*
X961375Y27740625D01*
X633161Y27249418D01*
X517908Y26670000D01*
X254000Y26670000D01*
X254000Y33020000D01*
X41783000Y33020000D01*
X41783000Y254000D01*
G04 #@! TD*
M02*
