G04 #@! TF.GenerationSoftware,KiCad,Pcbnew,(5.0.2)-1*
G04 #@! TF.CreationDate,2019-07-14T21:05:42+02:00*
G04 #@! TF.ProjectId,Rosatron,526f7361-7472-46f6-9e2e-6b696361645f,rev?*
G04 #@! TF.SameCoordinates,PX4c8bb40PY4eb9cf0*
G04 #@! TF.FileFunction,Legend,Top*
G04 #@! TF.FilePolarity,Positive*
%FSLAX46Y46*%
G04 Gerber Fmt 4.6, Leading zero omitted, Abs format (unit mm)*
G04 Created by KiCad (PCBNEW (5.0.2)-1) date 14/07/2019 21:05:42*
%MOMM*%
%LPD*%
G01*
G04 APERTURE LIST*
%ADD10C,0.100000*%
%ADD11C,0.120000*%
%ADD12C,0.152400*%
%ADD13C,0.150000*%
%ADD14O,1.802000X1.802000*%
%ADD15R,1.575200X0.610000*%
%ADD16R,0.610000X1.575200*%
%ADD17R,1.802000X1.802000*%
%ADD18C,1.052000*%
%ADD19C,1.252000*%
%ADD20R,2.262000X1.222000*%
%ADD21R,2.102000X3.902000*%
%ADD22R,2.102000X1.602000*%
%ADD23C,1.602000*%
G04 APERTURE END LIST*
D10*
X28404380Y27713810D02*
X28237714Y27951905D01*
X28118666Y27713810D02*
X28118666Y28213810D01*
X28309142Y28213810D01*
X28356761Y28190000D01*
X28380571Y28166191D01*
X28404380Y28118572D01*
X28404380Y28047143D01*
X28380571Y27999524D01*
X28356761Y27975715D01*
X28309142Y27951905D01*
X28118666Y27951905D01*
X28594857Y27856667D02*
X28832952Y27856667D01*
X28547238Y27713810D02*
X28713904Y28213810D01*
X28880571Y27713810D01*
X28999619Y28213810D02*
X29332952Y28213810D01*
X29118666Y27713810D01*
X30182380Y17172810D02*
X30015714Y17410905D01*
X29896666Y17172810D02*
X29896666Y17672810D01*
X30087142Y17672810D01*
X30134761Y17649000D01*
X30158571Y17625191D01*
X30182380Y17577572D01*
X30182380Y17506143D01*
X30158571Y17458524D01*
X30134761Y17434715D01*
X30087142Y17410905D01*
X29896666Y17410905D01*
X30372857Y17315667D02*
X30610952Y17315667D01*
X30325238Y17172810D02*
X30491904Y17672810D01*
X30658571Y17172810D01*
X31039523Y17672810D02*
X30944285Y17672810D01*
X30896666Y17649000D01*
X30872857Y17625191D01*
X30825238Y17553762D01*
X30801428Y17458524D01*
X30801428Y17268048D01*
X30825238Y17220429D01*
X30849047Y17196620D01*
X30896666Y17172810D01*
X30991904Y17172810D01*
X31039523Y17196620D01*
X31063333Y17220429D01*
X31087142Y17268048D01*
X31087142Y17387096D01*
X31063333Y17434715D01*
X31039523Y17458524D01*
X30991904Y17482334D01*
X30896666Y17482334D01*
X30849047Y17458524D01*
X30825238Y17434715D01*
X30801428Y17387096D01*
X5580142Y8600286D02*
X5961095Y8600286D01*
X5770619Y8409810D02*
X5770619Y8790762D01*
X6437285Y8909810D02*
X6199190Y8909810D01*
X6175380Y8671715D01*
X6199190Y8695524D01*
X6246809Y8719334D01*
X6365857Y8719334D01*
X6413476Y8695524D01*
X6437285Y8671715D01*
X6461095Y8624096D01*
X6461095Y8505048D01*
X6437285Y8457429D01*
X6413476Y8433620D01*
X6365857Y8409810D01*
X6246809Y8409810D01*
X6199190Y8433620D01*
X6175380Y8457429D01*
X6603952Y8909810D02*
X6770619Y8409810D01*
X6937285Y8909810D01*
X34925380Y31208620D02*
X34592047Y31684810D01*
X34353952Y31208620D02*
X34353952Y32208620D01*
X34734904Y32208620D01*
X34830142Y32161000D01*
X34877761Y32113381D01*
X34925380Y32018143D01*
X34925380Y31875286D01*
X34877761Y31780048D01*
X34830142Y31732429D01*
X34734904Y31684810D01*
X34353952Y31684810D01*
X35544428Y32208620D02*
X35734904Y32208620D01*
X35830142Y32161000D01*
X35925380Y32065762D01*
X35973000Y31875286D01*
X35973000Y31541953D01*
X35925380Y31351477D01*
X35830142Y31256239D01*
X35734904Y31208620D01*
X35544428Y31208620D01*
X35449190Y31256239D01*
X35353952Y31351477D01*
X35306333Y31541953D01*
X35306333Y31875286D01*
X35353952Y32065762D01*
X35449190Y32161000D01*
X35544428Y32208620D01*
X36353952Y31256239D02*
X36496809Y31208620D01*
X36734904Y31208620D01*
X36830142Y31256239D01*
X36877761Y31303858D01*
X36925380Y31399096D01*
X36925380Y31494334D01*
X36877761Y31589572D01*
X36830142Y31637191D01*
X36734904Y31684810D01*
X36544428Y31732429D01*
X36449190Y31780048D01*
X36401571Y31827667D01*
X36353952Y31922905D01*
X36353952Y32018143D01*
X36401571Y32113381D01*
X36449190Y32161000D01*
X36544428Y32208620D01*
X36782523Y32208620D01*
X36925380Y32161000D01*
X37306333Y31494334D02*
X37782523Y31494334D01*
X37211095Y31208620D02*
X37544428Y32208620D01*
X37877761Y31208620D01*
X38068238Y32208620D02*
X38639666Y32208620D01*
X38353952Y31208620D02*
X38353952Y32208620D01*
X39544428Y31208620D02*
X39211095Y31684810D01*
X38973000Y31208620D02*
X38973000Y32208620D01*
X39353952Y32208620D01*
X39449190Y32161000D01*
X39496809Y32113381D01*
X39544428Y32018143D01*
X39544428Y31875286D01*
X39496809Y31780048D01*
X39449190Y31732429D01*
X39353952Y31684810D01*
X38973000Y31684810D01*
X40163476Y32208620D02*
X40353952Y32208620D01*
X40449190Y32161000D01*
X40544428Y32065762D01*
X40592047Y31875286D01*
X40592047Y31541953D01*
X40544428Y31351477D01*
X40449190Y31256239D01*
X40353952Y31208620D01*
X40163476Y31208620D01*
X40068238Y31256239D01*
X39973000Y31351477D01*
X39925380Y31541953D01*
X39925380Y31875286D01*
X39973000Y32065762D01*
X40068238Y32161000D01*
X40163476Y32208620D01*
X41020619Y31208620D02*
X41020619Y32208620D01*
X41592047Y31208620D01*
X41592047Y32208620D01*
X37211095Y30608620D02*
X37544428Y29608620D01*
X37877761Y30608620D01*
X38734904Y29608620D02*
X38163476Y29608620D01*
X38449190Y29608620D02*
X38449190Y30608620D01*
X38353952Y30465762D01*
X38258714Y30370524D01*
X38163476Y30322905D01*
X39163476Y29703858D02*
X39211095Y29656239D01*
X39163476Y29608620D01*
X39115857Y29656239D01*
X39163476Y29703858D01*
X39163476Y29608620D01*
X39830142Y30608620D02*
X39925380Y30608620D01*
X40020619Y30561000D01*
X40068238Y30513381D01*
X40115857Y30418143D01*
X40163476Y30227667D01*
X40163476Y29989572D01*
X40115857Y29799096D01*
X40068238Y29703858D01*
X40020619Y29656239D01*
X39925380Y29608620D01*
X39830142Y29608620D01*
X39734904Y29656239D01*
X39687285Y29703858D01*
X39639666Y29799096D01*
X39592047Y29989572D01*
X39592047Y30227667D01*
X39639666Y30418143D01*
X39687285Y30513381D01*
X39734904Y30561000D01*
X39830142Y30608620D01*
X32591333Y29817191D02*
X32758000Y29579096D01*
X32877047Y29817191D02*
X32877047Y29317191D01*
X32686571Y29317191D01*
X32638952Y29341000D01*
X32615142Y29364810D01*
X32591333Y29412429D01*
X32591333Y29483858D01*
X32615142Y29531477D01*
X32638952Y29555286D01*
X32686571Y29579096D01*
X32877047Y29579096D01*
X32091333Y29769572D02*
X32115142Y29793381D01*
X32186571Y29817191D01*
X32234190Y29817191D01*
X32305619Y29793381D01*
X32353238Y29745762D01*
X32377047Y29698143D01*
X32400857Y29602905D01*
X32400857Y29531477D01*
X32377047Y29436239D01*
X32353238Y29388620D01*
X32305619Y29341000D01*
X32234190Y29317191D01*
X32186571Y29317191D01*
X32115142Y29341000D01*
X32091333Y29364810D01*
X31615142Y29817191D02*
X31900857Y29817191D01*
X31758000Y29817191D02*
X31758000Y29317191D01*
X31805619Y29388620D01*
X31853238Y29436239D01*
X31900857Y29460048D01*
X30051333Y29817191D02*
X30218000Y29579096D01*
X30337047Y29817191D02*
X30337047Y29317191D01*
X30146571Y29317191D01*
X30098952Y29341000D01*
X30075142Y29364810D01*
X30051333Y29412429D01*
X30051333Y29483858D01*
X30075142Y29531477D01*
X30098952Y29555286D01*
X30146571Y29579096D01*
X30337047Y29579096D01*
X29551333Y29769572D02*
X29575142Y29793381D01*
X29646571Y29817191D01*
X29694190Y29817191D01*
X29765619Y29793381D01*
X29813238Y29745762D01*
X29837047Y29698143D01*
X29860857Y29602905D01*
X29860857Y29531477D01*
X29837047Y29436239D01*
X29813238Y29388620D01*
X29765619Y29341000D01*
X29694190Y29317191D01*
X29646571Y29317191D01*
X29575142Y29341000D01*
X29551333Y29364810D01*
X29360857Y29364810D02*
X29337047Y29341000D01*
X29289428Y29317191D01*
X29170380Y29317191D01*
X29122761Y29341000D01*
X29098952Y29364810D01*
X29075142Y29412429D01*
X29075142Y29460048D01*
X29098952Y29531477D01*
X29384666Y29817191D01*
X29075142Y29817191D01*
X27384333Y29690191D02*
X27551000Y29452096D01*
X27670047Y29690191D02*
X27670047Y29190191D01*
X27479571Y29190191D01*
X27431952Y29214000D01*
X27408142Y29237810D01*
X27384333Y29285429D01*
X27384333Y29356858D01*
X27408142Y29404477D01*
X27431952Y29428286D01*
X27479571Y29452096D01*
X27670047Y29452096D01*
X26884333Y29642572D02*
X26908142Y29666381D01*
X26979571Y29690191D01*
X27027190Y29690191D01*
X27098619Y29666381D01*
X27146238Y29618762D01*
X27170047Y29571143D01*
X27193857Y29475905D01*
X27193857Y29404477D01*
X27170047Y29309239D01*
X27146238Y29261620D01*
X27098619Y29214000D01*
X27027190Y29190191D01*
X26979571Y29190191D01*
X26908142Y29214000D01*
X26884333Y29237810D01*
X26717666Y29190191D02*
X26408142Y29190191D01*
X26574809Y29380667D01*
X26503380Y29380667D01*
X26455761Y29404477D01*
X26431952Y29428286D01*
X26408142Y29475905D01*
X26408142Y29594953D01*
X26431952Y29642572D01*
X26455761Y29666381D01*
X26503380Y29690191D01*
X26646238Y29690191D01*
X26693857Y29666381D01*
X26717666Y29642572D01*
X24844333Y29817191D02*
X25011000Y29579096D01*
X25130047Y29817191D02*
X25130047Y29317191D01*
X24939571Y29317191D01*
X24891952Y29341000D01*
X24868142Y29364810D01*
X24844333Y29412429D01*
X24844333Y29483858D01*
X24868142Y29531477D01*
X24891952Y29555286D01*
X24939571Y29579096D01*
X25130047Y29579096D01*
X24630047Y29817191D02*
X24630047Y29317191D01*
X24511000Y29317191D01*
X24439571Y29341000D01*
X24391952Y29388620D01*
X24368142Y29436239D01*
X24344333Y29531477D01*
X24344333Y29602905D01*
X24368142Y29698143D01*
X24391952Y29745762D01*
X24439571Y29793381D01*
X24511000Y29817191D01*
X24630047Y29817191D01*
X24034809Y29317191D02*
X23987190Y29317191D01*
X23939571Y29341000D01*
X23915761Y29364810D01*
X23891952Y29412429D01*
X23868142Y29507667D01*
X23868142Y29626715D01*
X23891952Y29721953D01*
X23915761Y29769572D01*
X23939571Y29793381D01*
X23987190Y29817191D01*
X24034809Y29817191D01*
X24082428Y29793381D01*
X24106238Y29769572D01*
X24130047Y29721953D01*
X24153857Y29626715D01*
X24153857Y29507667D01*
X24130047Y29412429D01*
X24106238Y29364810D01*
X24082428Y29341000D01*
X24034809Y29317191D01*
X22304333Y29690191D02*
X22471000Y29452096D01*
X22590047Y29690191D02*
X22590047Y29190191D01*
X22399571Y29190191D01*
X22351952Y29214000D01*
X22328142Y29237810D01*
X22304333Y29285429D01*
X22304333Y29356858D01*
X22328142Y29404477D01*
X22351952Y29428286D01*
X22399571Y29452096D01*
X22590047Y29452096D01*
X22090047Y29690191D02*
X22090047Y29190191D01*
X21971000Y29190191D01*
X21899571Y29214000D01*
X21851952Y29261620D01*
X21828142Y29309239D01*
X21804333Y29404477D01*
X21804333Y29475905D01*
X21828142Y29571143D01*
X21851952Y29618762D01*
X21899571Y29666381D01*
X21971000Y29690191D01*
X22090047Y29690191D01*
X21328142Y29690191D02*
X21613857Y29690191D01*
X21471000Y29690191D02*
X21471000Y29190191D01*
X21518619Y29261620D01*
X21566238Y29309239D01*
X21613857Y29333048D01*
X19891333Y29817191D02*
X20058000Y29579096D01*
X20177047Y29817191D02*
X20177047Y29317191D01*
X19986571Y29317191D01*
X19938952Y29341000D01*
X19915142Y29364810D01*
X19891333Y29412429D01*
X19891333Y29483858D01*
X19915142Y29531477D01*
X19938952Y29555286D01*
X19986571Y29579096D01*
X20177047Y29579096D01*
X19677047Y29817191D02*
X19677047Y29317191D01*
X19558000Y29317191D01*
X19486571Y29341000D01*
X19438952Y29388620D01*
X19415142Y29436239D01*
X19391333Y29531477D01*
X19391333Y29602905D01*
X19415142Y29698143D01*
X19438952Y29745762D01*
X19486571Y29793381D01*
X19558000Y29817191D01*
X19677047Y29817191D01*
X19200857Y29364810D02*
X19177047Y29341000D01*
X19129428Y29317191D01*
X19010380Y29317191D01*
X18962761Y29341000D01*
X18938952Y29364810D01*
X18915142Y29412429D01*
X18915142Y29460048D01*
X18938952Y29531477D01*
X19224666Y29817191D01*
X18915142Y29817191D01*
X17224333Y29817191D02*
X17391000Y29579096D01*
X17510047Y29817191D02*
X17510047Y29317191D01*
X17319571Y29317191D01*
X17271952Y29341000D01*
X17248142Y29364810D01*
X17224333Y29412429D01*
X17224333Y29483858D01*
X17248142Y29531477D01*
X17271952Y29555286D01*
X17319571Y29579096D01*
X17510047Y29579096D01*
X17010047Y29817191D02*
X17010047Y29317191D01*
X16891000Y29317191D01*
X16819571Y29341000D01*
X16771952Y29388620D01*
X16748142Y29436239D01*
X16724333Y29531477D01*
X16724333Y29602905D01*
X16748142Y29698143D01*
X16771952Y29745762D01*
X16819571Y29793381D01*
X16891000Y29817191D01*
X17010047Y29817191D01*
X16557666Y29317191D02*
X16248142Y29317191D01*
X16414809Y29507667D01*
X16343380Y29507667D01*
X16295761Y29531477D01*
X16271952Y29555286D01*
X16248142Y29602905D01*
X16248142Y29721953D01*
X16271952Y29769572D01*
X16295761Y29793381D01*
X16343380Y29817191D01*
X16486238Y29817191D01*
X16533857Y29793381D01*
X16557666Y29769572D01*
X14684333Y29690191D02*
X14851000Y29452096D01*
X14970047Y29690191D02*
X14970047Y29190191D01*
X14779571Y29190191D01*
X14731952Y29214000D01*
X14708142Y29237810D01*
X14684333Y29285429D01*
X14684333Y29356858D01*
X14708142Y29404477D01*
X14731952Y29428286D01*
X14779571Y29452096D01*
X14970047Y29452096D01*
X14184333Y29642572D02*
X14208142Y29666381D01*
X14279571Y29690191D01*
X14327190Y29690191D01*
X14398619Y29666381D01*
X14446238Y29618762D01*
X14470047Y29571143D01*
X14493857Y29475905D01*
X14493857Y29404477D01*
X14470047Y29309239D01*
X14446238Y29261620D01*
X14398619Y29214000D01*
X14327190Y29190191D01*
X14279571Y29190191D01*
X14208142Y29214000D01*
X14184333Y29237810D01*
X13755761Y29356858D02*
X13755761Y29690191D01*
X13874809Y29166381D02*
X13993857Y29523524D01*
X13684333Y29523524D01*
X12144333Y29690191D02*
X12311000Y29452096D01*
X12430047Y29690191D02*
X12430047Y29190191D01*
X12239571Y29190191D01*
X12191952Y29214000D01*
X12168142Y29237810D01*
X12144333Y29285429D01*
X12144333Y29356858D01*
X12168142Y29404477D01*
X12191952Y29428286D01*
X12239571Y29452096D01*
X12430047Y29452096D01*
X11644333Y29642572D02*
X11668142Y29666381D01*
X11739571Y29690191D01*
X11787190Y29690191D01*
X11858619Y29666381D01*
X11906238Y29618762D01*
X11930047Y29571143D01*
X11953857Y29475905D01*
X11953857Y29404477D01*
X11930047Y29309239D01*
X11906238Y29261620D01*
X11858619Y29214000D01*
X11787190Y29190191D01*
X11739571Y29190191D01*
X11668142Y29214000D01*
X11644333Y29237810D01*
X11191952Y29190191D02*
X11430047Y29190191D01*
X11453857Y29428286D01*
X11430047Y29404477D01*
X11382428Y29380667D01*
X11263380Y29380667D01*
X11215761Y29404477D01*
X11191952Y29428286D01*
X11168142Y29475905D01*
X11168142Y29594953D01*
X11191952Y29642572D01*
X11215761Y29666381D01*
X11263380Y29690191D01*
X11382428Y29690191D01*
X11430047Y29666381D01*
X11453857Y29642572D01*
X9731333Y29690191D02*
X9898000Y29452096D01*
X10017047Y29690191D02*
X10017047Y29190191D01*
X9826571Y29190191D01*
X9778952Y29214000D01*
X9755142Y29237810D01*
X9731333Y29285429D01*
X9731333Y29356858D01*
X9755142Y29404477D01*
X9778952Y29428286D01*
X9826571Y29452096D01*
X10017047Y29452096D01*
X9231333Y29642572D02*
X9255142Y29666381D01*
X9326571Y29690191D01*
X9374190Y29690191D01*
X9445619Y29666381D01*
X9493238Y29618762D01*
X9517047Y29571143D01*
X9540857Y29475905D01*
X9540857Y29404477D01*
X9517047Y29309239D01*
X9493238Y29261620D01*
X9445619Y29214000D01*
X9374190Y29190191D01*
X9326571Y29190191D01*
X9255142Y29214000D01*
X9231333Y29237810D01*
X8802761Y29190191D02*
X8898000Y29190191D01*
X8945619Y29214000D01*
X8969428Y29237810D01*
X9017047Y29309239D01*
X9040857Y29404477D01*
X9040857Y29594953D01*
X9017047Y29642572D01*
X8993238Y29666381D01*
X8945619Y29690191D01*
X8850380Y29690191D01*
X8802761Y29666381D01*
X8778952Y29642572D01*
X8755142Y29594953D01*
X8755142Y29475905D01*
X8778952Y29428286D01*
X8802761Y29404477D01*
X8850380Y29380667D01*
X8945619Y29380667D01*
X8993238Y29404477D01*
X9017047Y29428286D01*
X9040857Y29475905D01*
X3583809Y4270334D02*
X3821904Y4437000D01*
X3583809Y4556048D02*
X4083809Y4556048D01*
X4083809Y4365572D01*
X4060000Y4317953D01*
X4036190Y4294143D01*
X3988571Y4270334D01*
X3917142Y4270334D01*
X3869523Y4294143D01*
X3845714Y4317953D01*
X3821904Y4365572D01*
X3821904Y4556048D01*
X3845714Y3889381D02*
X3821904Y3817953D01*
X3798095Y3794143D01*
X3750476Y3770334D01*
X3679047Y3770334D01*
X3631428Y3794143D01*
X3607619Y3817953D01*
X3583809Y3865572D01*
X3583809Y4056048D01*
X4083809Y4056048D01*
X4083809Y3889381D01*
X4060000Y3841762D01*
X4036190Y3817953D01*
X3988571Y3794143D01*
X3940952Y3794143D01*
X3893333Y3817953D01*
X3869523Y3841762D01*
X3845714Y3889381D01*
X3845714Y4056048D01*
X4036190Y3579858D02*
X4060000Y3556048D01*
X4083809Y3508429D01*
X4083809Y3389381D01*
X4060000Y3341762D01*
X4036190Y3317953D01*
X3988571Y3294143D01*
X3940952Y3294143D01*
X3869523Y3317953D01*
X3583809Y3603667D01*
X3583809Y3294143D01*
X3583809Y6683334D02*
X3821904Y6850000D01*
X3583809Y6969048D02*
X4083809Y6969048D01*
X4083809Y6778572D01*
X4060000Y6730953D01*
X4036190Y6707143D01*
X3988571Y6683334D01*
X3917142Y6683334D01*
X3869523Y6707143D01*
X3845714Y6730953D01*
X3821904Y6778572D01*
X3821904Y6969048D01*
X3845714Y6302381D02*
X3821904Y6230953D01*
X3798095Y6207143D01*
X3750476Y6183334D01*
X3679047Y6183334D01*
X3631428Y6207143D01*
X3607619Y6230953D01*
X3583809Y6278572D01*
X3583809Y6469048D01*
X4083809Y6469048D01*
X4083809Y6302381D01*
X4060000Y6254762D01*
X4036190Y6230953D01*
X3988571Y6207143D01*
X3940952Y6207143D01*
X3893333Y6230953D01*
X3869523Y6254762D01*
X3845714Y6302381D01*
X3845714Y6469048D01*
X3583809Y5707143D02*
X3583809Y5992858D01*
X3583809Y5850000D02*
X4083809Y5850000D01*
X4012380Y5897620D01*
X3964761Y5945239D01*
X3940952Y5992858D01*
X3583809Y9350334D02*
X3821904Y9517000D01*
X3583809Y9636048D02*
X4083809Y9636048D01*
X4083809Y9445572D01*
X4060000Y9397953D01*
X4036190Y9374143D01*
X3988571Y9350334D01*
X3917142Y9350334D01*
X3869523Y9374143D01*
X3845714Y9397953D01*
X3821904Y9445572D01*
X3821904Y9636048D01*
X3845714Y8969381D02*
X3821904Y8897953D01*
X3798095Y8874143D01*
X3750476Y8850334D01*
X3679047Y8850334D01*
X3631428Y8874143D01*
X3607619Y8897953D01*
X3583809Y8945572D01*
X3583809Y9136048D01*
X4083809Y9136048D01*
X4083809Y8969381D01*
X4060000Y8921762D01*
X4036190Y8897953D01*
X3988571Y8874143D01*
X3940952Y8874143D01*
X3893333Y8897953D01*
X3869523Y8921762D01*
X3845714Y8969381D01*
X3845714Y9136048D01*
X4083809Y8540810D02*
X4083809Y8493191D01*
X4060000Y8445572D01*
X4036190Y8421762D01*
X3988571Y8397953D01*
X3893333Y8374143D01*
X3774285Y8374143D01*
X3679047Y8397953D01*
X3631428Y8421762D01*
X3607619Y8445572D01*
X3583809Y8493191D01*
X3583809Y8540810D01*
X3607619Y8588429D01*
X3631428Y8612239D01*
X3679047Y8636048D01*
X3774285Y8659858D01*
X3893333Y8659858D01*
X3988571Y8636048D01*
X4036190Y8612239D01*
X4060000Y8588429D01*
X4083809Y8540810D01*
X4060000Y11810953D02*
X4083809Y11858572D01*
X4083809Y11930000D01*
X4060000Y12001429D01*
X4012380Y12049048D01*
X3964761Y12072858D01*
X3869523Y12096667D01*
X3798095Y12096667D01*
X3702857Y12072858D01*
X3655238Y12049048D01*
X3607619Y12001429D01*
X3583809Y11930000D01*
X3583809Y11882381D01*
X3607619Y11810953D01*
X3631428Y11787143D01*
X3798095Y11787143D01*
X3798095Y11882381D01*
X3583809Y11572858D02*
X4083809Y11572858D01*
X3583809Y11287143D01*
X4083809Y11287143D01*
X3583809Y11049048D02*
X4083809Y11049048D01*
X4083809Y10930000D01*
X4060000Y10858572D01*
X4012380Y10810953D01*
X3964761Y10787143D01*
X3869523Y10763334D01*
X3798095Y10763334D01*
X3702857Y10787143D01*
X3655238Y10810953D01*
X3607619Y10858572D01*
X3583809Y10930000D01*
X3583809Y11049048D01*
X3774285Y14612858D02*
X3774285Y14231905D01*
X3583809Y14422381D02*
X3964761Y14422381D01*
X4083809Y13755715D02*
X4083809Y13993810D01*
X3845714Y14017620D01*
X3869523Y13993810D01*
X3893333Y13946191D01*
X3893333Y13827143D01*
X3869523Y13779524D01*
X3845714Y13755715D01*
X3798095Y13731905D01*
X3679047Y13731905D01*
X3631428Y13755715D01*
X3607619Y13779524D01*
X3583809Y13827143D01*
X3583809Y13946191D01*
X3607619Y13993810D01*
X3631428Y14017620D01*
X4083809Y13589048D02*
X3583809Y13422381D01*
X4083809Y13255715D01*
X3583809Y16843334D02*
X3821904Y17010000D01*
X3583809Y17129048D02*
X4083809Y17129048D01*
X4083809Y16938572D01*
X4060000Y16890953D01*
X4036190Y16867143D01*
X3988571Y16843334D01*
X3917142Y16843334D01*
X3869523Y16867143D01*
X3845714Y16890953D01*
X3821904Y16938572D01*
X3821904Y17129048D01*
X3583809Y16629048D02*
X4083809Y16629048D01*
X4083809Y16510000D01*
X4060000Y16438572D01*
X4012380Y16390953D01*
X3964761Y16367143D01*
X3869523Y16343334D01*
X3798095Y16343334D01*
X3702857Y16367143D01*
X3655238Y16390953D01*
X3607619Y16438572D01*
X3583809Y16510000D01*
X3583809Y16629048D01*
X4083809Y16176667D02*
X4083809Y15843334D01*
X3583809Y16057620D01*
X3583809Y19383334D02*
X3821904Y19550000D01*
X3583809Y19669048D02*
X4083809Y19669048D01*
X4083809Y19478572D01*
X4060000Y19430953D01*
X4036190Y19407143D01*
X3988571Y19383334D01*
X3917142Y19383334D01*
X3869523Y19407143D01*
X3845714Y19430953D01*
X3821904Y19478572D01*
X3821904Y19669048D01*
X3583809Y19169048D02*
X4083809Y19169048D01*
X4083809Y19050000D01*
X4060000Y18978572D01*
X4012380Y18930953D01*
X3964761Y18907143D01*
X3869523Y18883334D01*
X3798095Y18883334D01*
X3702857Y18907143D01*
X3655238Y18930953D01*
X3607619Y18978572D01*
X3583809Y19050000D01*
X3583809Y19169048D01*
X4083809Y18454762D02*
X4083809Y18550000D01*
X4060000Y18597620D01*
X4036190Y18621429D01*
X3964761Y18669048D01*
X3869523Y18692858D01*
X3679047Y18692858D01*
X3631428Y18669048D01*
X3607619Y18645239D01*
X3583809Y18597620D01*
X3583809Y18502381D01*
X3607619Y18454762D01*
X3631428Y18430953D01*
X3679047Y18407143D01*
X3798095Y18407143D01*
X3845714Y18430953D01*
X3869523Y18454762D01*
X3893333Y18502381D01*
X3893333Y18597620D01*
X3869523Y18645239D01*
X3845714Y18669048D01*
X3798095Y18692858D01*
X3583809Y22050334D02*
X3821904Y22217000D01*
X3583809Y22336048D02*
X4083809Y22336048D01*
X4083809Y22145572D01*
X4060000Y22097953D01*
X4036190Y22074143D01*
X3988571Y22050334D01*
X3917142Y22050334D01*
X3869523Y22074143D01*
X3845714Y22097953D01*
X3821904Y22145572D01*
X3821904Y22336048D01*
X3583809Y21836048D02*
X4083809Y21836048D01*
X4083809Y21717000D01*
X4060000Y21645572D01*
X4012380Y21597953D01*
X3964761Y21574143D01*
X3869523Y21550334D01*
X3798095Y21550334D01*
X3702857Y21574143D01*
X3655238Y21597953D01*
X3607619Y21645572D01*
X3583809Y21717000D01*
X3583809Y21836048D01*
X4083809Y21097953D02*
X4083809Y21336048D01*
X3845714Y21359858D01*
X3869523Y21336048D01*
X3893333Y21288429D01*
X3893333Y21169381D01*
X3869523Y21121762D01*
X3845714Y21097953D01*
X3798095Y21074143D01*
X3679047Y21074143D01*
X3631428Y21097953D01*
X3607619Y21121762D01*
X3583809Y21169381D01*
X3583809Y21288429D01*
X3607619Y21336048D01*
X3631428Y21359858D01*
X3583809Y24590334D02*
X3821904Y24757000D01*
X3583809Y24876048D02*
X4083809Y24876048D01*
X4083809Y24685572D01*
X4060000Y24637953D01*
X4036190Y24614143D01*
X3988571Y24590334D01*
X3917142Y24590334D01*
X3869523Y24614143D01*
X3845714Y24637953D01*
X3821904Y24685572D01*
X3821904Y24876048D01*
X3583809Y24376048D02*
X4083809Y24376048D01*
X4083809Y24257000D01*
X4060000Y24185572D01*
X4012380Y24137953D01*
X3964761Y24114143D01*
X3869523Y24090334D01*
X3798095Y24090334D01*
X3702857Y24114143D01*
X3655238Y24137953D01*
X3607619Y24185572D01*
X3583809Y24257000D01*
X3583809Y24376048D01*
X3917142Y23661762D02*
X3583809Y23661762D01*
X4107619Y23780810D02*
X3750476Y23899858D01*
X3750476Y23590334D01*
X3456809Y27130334D02*
X3694904Y27297000D01*
X3456809Y27416048D02*
X3956809Y27416048D01*
X3956809Y27225572D01*
X3933000Y27177953D01*
X3909190Y27154143D01*
X3861571Y27130334D01*
X3790142Y27130334D01*
X3742523Y27154143D01*
X3718714Y27177953D01*
X3694904Y27225572D01*
X3694904Y27416048D01*
X3504428Y26630334D02*
X3480619Y26654143D01*
X3456809Y26725572D01*
X3456809Y26773191D01*
X3480619Y26844620D01*
X3528238Y26892239D01*
X3575857Y26916048D01*
X3671095Y26939858D01*
X3742523Y26939858D01*
X3837761Y26916048D01*
X3885380Y26892239D01*
X3933000Y26844620D01*
X3956809Y26773191D01*
X3956809Y26725572D01*
X3933000Y26654143D01*
X3909190Y26630334D01*
X3956809Y26463667D02*
X3956809Y26130334D01*
X3456809Y26344620D01*
X38453190Y27098667D02*
X38215095Y26932000D01*
X38453190Y26812953D02*
X37953190Y26812953D01*
X37953190Y27003429D01*
X37977000Y27051048D01*
X38000809Y27074858D01*
X38048428Y27098667D01*
X38119857Y27098667D01*
X38167476Y27074858D01*
X38191285Y27051048D01*
X38215095Y27003429D01*
X38215095Y26812953D01*
X38405571Y27598667D02*
X38429380Y27574858D01*
X38453190Y27503429D01*
X38453190Y27455810D01*
X38429380Y27384381D01*
X38381761Y27336762D01*
X38334142Y27312953D01*
X38238904Y27289143D01*
X38167476Y27289143D01*
X38072238Y27312953D01*
X38024619Y27336762D01*
X37977000Y27384381D01*
X37953190Y27455810D01*
X37953190Y27503429D01*
X37977000Y27574858D01*
X38000809Y27598667D01*
X37953190Y27908191D02*
X37953190Y27955810D01*
X37977000Y28003429D01*
X38000809Y28027239D01*
X38048428Y28051048D01*
X38143666Y28074858D01*
X38262714Y28074858D01*
X38357952Y28051048D01*
X38405571Y28027239D01*
X38429380Y28003429D01*
X38453190Y27955810D01*
X38453190Y27908191D01*
X38429380Y27860572D01*
X38405571Y27836762D01*
X38357952Y27812953D01*
X38262714Y27789143D01*
X38143666Y27789143D01*
X38048428Y27812953D01*
X38000809Y27836762D01*
X37977000Y27860572D01*
X37953190Y27908191D01*
X38453190Y24467381D02*
X38215095Y24300715D01*
X38453190Y24181667D02*
X37953190Y24181667D01*
X37953190Y24372143D01*
X37977000Y24419762D01*
X38000809Y24443572D01*
X38048428Y24467381D01*
X38119857Y24467381D01*
X38167476Y24443572D01*
X38191285Y24419762D01*
X38215095Y24372143D01*
X38215095Y24181667D01*
X38310333Y24657858D02*
X38310333Y24895953D01*
X38453190Y24610239D02*
X37953190Y24776905D01*
X38453190Y24943572D01*
X37953190Y25324524D02*
X37953190Y25229286D01*
X37977000Y25181667D01*
X38000809Y25157858D01*
X38072238Y25110239D01*
X38167476Y25086429D01*
X38357952Y25086429D01*
X38405571Y25110239D01*
X38429380Y25134048D01*
X38453190Y25181667D01*
X38453190Y25276905D01*
X38429380Y25324524D01*
X38405571Y25348334D01*
X38357952Y25372143D01*
X38238904Y25372143D01*
X38191285Y25348334D01*
X38167476Y25324524D01*
X38143666Y25276905D01*
X38143666Y25181667D01*
X38167476Y25134048D01*
X38191285Y25110239D01*
X38238904Y25086429D01*
X38453190Y22054381D02*
X38215095Y21887715D01*
X38453190Y21768667D02*
X37953190Y21768667D01*
X37953190Y21959143D01*
X37977000Y22006762D01*
X38000809Y22030572D01*
X38048428Y22054381D01*
X38119857Y22054381D01*
X38167476Y22030572D01*
X38191285Y22006762D01*
X38215095Y21959143D01*
X38215095Y21768667D01*
X38310333Y22244858D02*
X38310333Y22482953D01*
X38453190Y22197239D02*
X37953190Y22363905D01*
X38453190Y22530572D01*
X37953190Y22649620D02*
X37953190Y22982953D01*
X38453190Y22768667D01*
X38262714Y19169143D02*
X38262714Y19550096D01*
X38453190Y19359620D02*
X38072238Y19359620D01*
X37953190Y20026286D02*
X37953190Y19788191D01*
X38191285Y19764381D01*
X38167476Y19788191D01*
X38143666Y19835810D01*
X38143666Y19954858D01*
X38167476Y20002477D01*
X38191285Y20026286D01*
X38238904Y20050096D01*
X38357952Y20050096D01*
X38405571Y20026286D01*
X38429380Y20002477D01*
X38453190Y19954858D01*
X38453190Y19835810D01*
X38429380Y19788191D01*
X38405571Y19764381D01*
X37953190Y20192953D02*
X38453190Y20359620D01*
X37953190Y20526286D01*
X37977000Y16891048D02*
X37953190Y16843429D01*
X37953190Y16772000D01*
X37977000Y16700572D01*
X38024619Y16652953D01*
X38072238Y16629143D01*
X38167476Y16605334D01*
X38238904Y16605334D01*
X38334142Y16629143D01*
X38381761Y16652953D01*
X38429380Y16700572D01*
X38453190Y16772000D01*
X38453190Y16819620D01*
X38429380Y16891048D01*
X38405571Y16914858D01*
X38238904Y16914858D01*
X38238904Y16819620D01*
X38453190Y17129143D02*
X37953190Y17129143D01*
X38453190Y17414858D01*
X37953190Y17414858D01*
X38453190Y17652953D02*
X37953190Y17652953D01*
X37953190Y17772000D01*
X37977000Y17843429D01*
X38024619Y17891048D01*
X38072238Y17914858D01*
X38167476Y17938667D01*
X38238904Y17938667D01*
X38334142Y17914858D01*
X38381761Y17891048D01*
X38429380Y17843429D01*
X38453190Y17772000D01*
X38453190Y17652953D01*
X38453190Y14549477D02*
X38215095Y14382810D01*
X38453190Y14263762D02*
X37953190Y14263762D01*
X37953190Y14454239D01*
X37977000Y14501858D01*
X38000809Y14525667D01*
X38048428Y14549477D01*
X38119857Y14549477D01*
X38167476Y14525667D01*
X38191285Y14501858D01*
X38215095Y14454239D01*
X38215095Y14263762D01*
X38191285Y14763762D02*
X38191285Y14930429D01*
X38453190Y15001858D02*
X38453190Y14763762D01*
X37953190Y14763762D01*
X37953190Y15001858D01*
X38000809Y15192334D02*
X37977000Y15216143D01*
X37953190Y15263762D01*
X37953190Y15382810D01*
X37977000Y15430429D01*
X38000809Y15454239D01*
X38048428Y15478048D01*
X38096047Y15478048D01*
X38167476Y15454239D01*
X38453190Y15168524D01*
X38453190Y15478048D01*
X38453190Y11755477D02*
X38215095Y11588810D01*
X38453190Y11469762D02*
X37953190Y11469762D01*
X37953190Y11660239D01*
X37977000Y11707858D01*
X38000809Y11731667D01*
X38048428Y11755477D01*
X38119857Y11755477D01*
X38167476Y11731667D01*
X38191285Y11707858D01*
X38215095Y11660239D01*
X38215095Y11469762D01*
X38191285Y11969762D02*
X38191285Y12136429D01*
X38453190Y12207858D02*
X38453190Y11969762D01*
X37953190Y11969762D01*
X37953190Y12207858D01*
X38453190Y12684048D02*
X38453190Y12398334D01*
X38453190Y12541191D02*
X37953190Y12541191D01*
X38024619Y12493572D01*
X38072238Y12445953D01*
X38096047Y12398334D01*
X38453190Y9342477D02*
X38215095Y9175810D01*
X38453190Y9056762D02*
X37953190Y9056762D01*
X37953190Y9247239D01*
X37977000Y9294858D01*
X38000809Y9318667D01*
X38048428Y9342477D01*
X38119857Y9342477D01*
X38167476Y9318667D01*
X38191285Y9294858D01*
X38215095Y9247239D01*
X38215095Y9056762D01*
X38191285Y9556762D02*
X38191285Y9723429D01*
X38453190Y9794858D02*
X38453190Y9556762D01*
X37953190Y9556762D01*
X37953190Y9794858D01*
X37953190Y10104381D02*
X37953190Y10152000D01*
X37977000Y10199620D01*
X38000809Y10223429D01*
X38048428Y10247239D01*
X38143666Y10271048D01*
X38262714Y10271048D01*
X38357952Y10247239D01*
X38405571Y10223429D01*
X38429380Y10199620D01*
X38453190Y10152000D01*
X38453190Y10104381D01*
X38429380Y10056762D01*
X38405571Y10032953D01*
X38357952Y10009143D01*
X38262714Y9985334D01*
X38143666Y9985334D01*
X38048428Y10009143D01*
X38000809Y10032953D01*
X37977000Y10056762D01*
X37953190Y10104381D01*
X38453190Y6687381D02*
X38215095Y6520715D01*
X38453190Y6401667D02*
X37953190Y6401667D01*
X37953190Y6592143D01*
X37977000Y6639762D01*
X38000809Y6663572D01*
X38048428Y6687381D01*
X38119857Y6687381D01*
X38167476Y6663572D01*
X38191285Y6639762D01*
X38215095Y6592143D01*
X38215095Y6401667D01*
X38310333Y6877858D02*
X38310333Y7115953D01*
X38453190Y6830239D02*
X37953190Y6996905D01*
X38453190Y7163572D01*
X37953190Y7568334D02*
X37953190Y7330239D01*
X38191285Y7306429D01*
X38167476Y7330239D01*
X38143666Y7377858D01*
X38143666Y7496905D01*
X38167476Y7544524D01*
X38191285Y7568334D01*
X38238904Y7592143D01*
X38357952Y7592143D01*
X38405571Y7568334D01*
X38429380Y7544524D01*
X38453190Y7496905D01*
X38453190Y7377858D01*
X38429380Y7330239D01*
X38405571Y7306429D01*
X38453190Y4020381D02*
X38215095Y3853715D01*
X38453190Y3734667D02*
X37953190Y3734667D01*
X37953190Y3925143D01*
X37977000Y3972762D01*
X38000809Y3996572D01*
X38048428Y4020381D01*
X38119857Y4020381D01*
X38167476Y3996572D01*
X38191285Y3972762D01*
X38215095Y3925143D01*
X38215095Y3734667D01*
X38310333Y4210858D02*
X38310333Y4448953D01*
X38453190Y4163239D02*
X37953190Y4329905D01*
X38453190Y4496572D01*
X38119857Y4877524D02*
X38453190Y4877524D01*
X37929380Y4758477D02*
X38286523Y4639429D01*
X38286523Y4948953D01*
X34317904Y19022191D02*
X34341714Y19046000D01*
X34389333Y19069810D01*
X34508380Y19069810D01*
X34556000Y19046000D01*
X34579809Y19022191D01*
X34603619Y18974572D01*
X34603619Y18926953D01*
X34579809Y18855524D01*
X34294095Y18569810D01*
X34603619Y18569810D01*
X34794095Y19022191D02*
X34817904Y19046000D01*
X34865523Y19069810D01*
X34984571Y19069810D01*
X35032190Y19046000D01*
X35056000Y19022191D01*
X35079809Y18974572D01*
X35079809Y18926953D01*
X35056000Y18855524D01*
X34770285Y18569810D01*
X35079809Y18569810D01*
X35389333Y19069810D02*
X35436952Y19069810D01*
X35484571Y19046000D01*
X35508380Y19022191D01*
X35532190Y18974572D01*
X35556000Y18879334D01*
X35556000Y18760286D01*
X35532190Y18665048D01*
X35508380Y18617429D01*
X35484571Y18593620D01*
X35436952Y18569810D01*
X35389333Y18569810D01*
X35341714Y18593620D01*
X35317904Y18617429D01*
X35294095Y18665048D01*
X35270285Y18760286D01*
X35270285Y18879334D01*
X35294095Y18974572D01*
X35317904Y19022191D01*
X35341714Y19046000D01*
X35389333Y19069810D01*
X35770285Y18903143D02*
X35770285Y18569810D01*
X35770285Y18855524D02*
X35794095Y18879334D01*
X35841714Y18903143D01*
X35913142Y18903143D01*
X35960761Y18879334D01*
X35984571Y18831715D01*
X35984571Y18569810D01*
X36151238Y18903143D02*
X36341714Y18903143D01*
X36222666Y18569810D02*
X36222666Y18998381D01*
X36246476Y19046000D01*
X36294095Y19069810D01*
X36341714Y19069810D01*
X32690571Y16426667D02*
X32714380Y16402858D01*
X32738190Y16331429D01*
X32738190Y16283810D01*
X32714380Y16212381D01*
X32666761Y16164762D01*
X32619142Y16140953D01*
X32523904Y16117143D01*
X32452476Y16117143D01*
X32357238Y16140953D01*
X32309619Y16164762D01*
X32262000Y16212381D01*
X32238190Y16283810D01*
X32238190Y16331429D01*
X32262000Y16402858D01*
X32285809Y16426667D01*
X32404857Y16855239D02*
X32738190Y16855239D01*
X32214380Y16736191D02*
X32571523Y16617143D01*
X32571523Y16926667D01*
X28634619Y15394810D02*
X28348904Y15394810D01*
X28491761Y15394810D02*
X28491761Y15894810D01*
X28444142Y15823381D01*
X28396523Y15775762D01*
X28348904Y15751953D01*
X28944142Y15894810D02*
X28991761Y15894810D01*
X29039380Y15871000D01*
X29063190Y15847191D01*
X29087000Y15799572D01*
X29110809Y15704334D01*
X29110809Y15585286D01*
X29087000Y15490048D01*
X29063190Y15442429D01*
X29039380Y15418620D01*
X28991761Y15394810D01*
X28944142Y15394810D01*
X28896523Y15418620D01*
X28872714Y15442429D01*
X28848904Y15490048D01*
X28825095Y15585286D01*
X28825095Y15704334D01*
X28848904Y15799572D01*
X28872714Y15847191D01*
X28896523Y15871000D01*
X28944142Y15894810D01*
X29420333Y15894810D02*
X29467952Y15894810D01*
X29515571Y15871000D01*
X29539380Y15847191D01*
X29563190Y15799572D01*
X29587000Y15704334D01*
X29587000Y15585286D01*
X29563190Y15490048D01*
X29539380Y15442429D01*
X29515571Y15418620D01*
X29467952Y15394810D01*
X29420333Y15394810D01*
X29372714Y15418620D01*
X29348904Y15442429D01*
X29325095Y15490048D01*
X29301285Y15585286D01*
X29301285Y15704334D01*
X29325095Y15799572D01*
X29348904Y15847191D01*
X29372714Y15871000D01*
X29420333Y15894810D01*
X29801285Y15728143D02*
X29801285Y15394810D01*
X29801285Y15680524D02*
X29825095Y15704334D01*
X29872714Y15728143D01*
X29944142Y15728143D01*
X29991761Y15704334D01*
X30015571Y15656715D01*
X30015571Y15394810D01*
X30182238Y15728143D02*
X30372714Y15728143D01*
X30253666Y15394810D02*
X30253666Y15823381D01*
X30277476Y15871000D01*
X30325095Y15894810D01*
X30372714Y15894810D01*
X16176666Y7437810D02*
X16010000Y7675905D01*
X15890952Y7437810D02*
X15890952Y7937810D01*
X16081428Y7937810D01*
X16129047Y7914000D01*
X16152857Y7890191D01*
X16176666Y7842572D01*
X16176666Y7771143D01*
X16152857Y7723524D01*
X16129047Y7699715D01*
X16081428Y7675905D01*
X15890952Y7675905D01*
X16557619Y7699715D02*
X16629047Y7675905D01*
X16652857Y7652096D01*
X16676666Y7604477D01*
X16676666Y7533048D01*
X16652857Y7485429D01*
X16629047Y7461620D01*
X16581428Y7437810D01*
X16390952Y7437810D01*
X16390952Y7937810D01*
X16557619Y7937810D01*
X16605238Y7914000D01*
X16629047Y7890191D01*
X16652857Y7842572D01*
X16652857Y7794953D01*
X16629047Y7747334D01*
X16605238Y7723524D01*
X16557619Y7699715D01*
X16390952Y7699715D01*
X17105238Y7937810D02*
X17010000Y7937810D01*
X16962380Y7914000D01*
X16938571Y7890191D01*
X16890952Y7818762D01*
X16867142Y7723524D01*
X16867142Y7533048D01*
X16890952Y7485429D01*
X16914761Y7461620D01*
X16962380Y7437810D01*
X17057619Y7437810D01*
X17105238Y7461620D01*
X17129047Y7485429D01*
X17152857Y7533048D01*
X17152857Y7652096D01*
X17129047Y7699715D01*
X17105238Y7723524D01*
X17057619Y7747334D01*
X16962380Y7747334D01*
X16914761Y7723524D01*
X16890952Y7699715D01*
X16867142Y7652096D01*
X15879047Y6587810D02*
X15879047Y7087810D01*
X16069523Y7087810D01*
X16117142Y7064000D01*
X16140952Y7040191D01*
X16164761Y6992572D01*
X16164761Y6921143D01*
X16140952Y6873524D01*
X16117142Y6849715D01*
X16069523Y6825905D01*
X15879047Y6825905D01*
X16640952Y7064000D02*
X16593333Y7087810D01*
X16521904Y7087810D01*
X16450476Y7064000D01*
X16402857Y7016381D01*
X16379047Y6968762D01*
X16355238Y6873524D01*
X16355238Y6802096D01*
X16379047Y6706858D01*
X16402857Y6659239D01*
X16450476Y6611620D01*
X16521904Y6587810D01*
X16569523Y6587810D01*
X16640952Y6611620D01*
X16664761Y6635429D01*
X16664761Y6802096D01*
X16569523Y6802096D01*
X17164761Y6635429D02*
X17140952Y6611620D01*
X17069523Y6587810D01*
X17021904Y6587810D01*
X16950476Y6611620D01*
X16902857Y6659239D01*
X16879047Y6706858D01*
X16855238Y6802096D01*
X16855238Y6873524D01*
X16879047Y6968762D01*
X16902857Y7016381D01*
X16950476Y7064000D01*
X17021904Y7087810D01*
X17069523Y7087810D01*
X17140952Y7064000D01*
X17164761Y7040191D01*
X18716666Y7437810D02*
X18550000Y7675905D01*
X18430952Y7437810D02*
X18430952Y7937810D01*
X18621428Y7937810D01*
X18669047Y7914000D01*
X18692857Y7890191D01*
X18716666Y7842572D01*
X18716666Y7771143D01*
X18692857Y7723524D01*
X18669047Y7699715D01*
X18621428Y7675905D01*
X18430952Y7675905D01*
X19097619Y7699715D02*
X19169047Y7675905D01*
X19192857Y7652096D01*
X19216666Y7604477D01*
X19216666Y7533048D01*
X19192857Y7485429D01*
X19169047Y7461620D01*
X19121428Y7437810D01*
X18930952Y7437810D01*
X18930952Y7937810D01*
X19097619Y7937810D01*
X19145238Y7914000D01*
X19169047Y7890191D01*
X19192857Y7842572D01*
X19192857Y7794953D01*
X19169047Y7747334D01*
X19145238Y7723524D01*
X19097619Y7699715D01*
X18930952Y7699715D01*
X19383333Y7937810D02*
X19716666Y7937810D01*
X19502380Y7437810D01*
X18419047Y6587810D02*
X18419047Y7087810D01*
X18609523Y7087810D01*
X18657142Y7064000D01*
X18680952Y7040191D01*
X18704761Y6992572D01*
X18704761Y6921143D01*
X18680952Y6873524D01*
X18657142Y6849715D01*
X18609523Y6825905D01*
X18419047Y6825905D01*
X19180952Y7064000D02*
X19133333Y7087810D01*
X19061904Y7087810D01*
X18990476Y7064000D01*
X18942857Y7016381D01*
X18919047Y6968762D01*
X18895238Y6873524D01*
X18895238Y6802096D01*
X18919047Y6706858D01*
X18942857Y6659239D01*
X18990476Y6611620D01*
X19061904Y6587810D01*
X19109523Y6587810D01*
X19180952Y6611620D01*
X19204761Y6635429D01*
X19204761Y6802096D01*
X19109523Y6802096D01*
X19419047Y6587810D02*
X19419047Y7087810D01*
X19538095Y7087810D01*
X19609523Y7064000D01*
X19657142Y7016381D01*
X19680952Y6968762D01*
X19704761Y6873524D01*
X19704761Y6802096D01*
X19680952Y6706858D01*
X19657142Y6659239D01*
X19609523Y6611620D01*
X19538095Y6587810D01*
X19419047Y6587810D01*
X21209047Y7108000D02*
X21161428Y7131810D01*
X21090000Y7131810D01*
X21018571Y7108000D01*
X20970952Y7060381D01*
X20947142Y7012762D01*
X20923333Y6917524D01*
X20923333Y6846096D01*
X20947142Y6750858D01*
X20970952Y6703239D01*
X21018571Y6655620D01*
X21090000Y6631810D01*
X21137619Y6631810D01*
X21209047Y6655620D01*
X21232857Y6679429D01*
X21232857Y6846096D01*
X21137619Y6846096D01*
X21447142Y6631810D02*
X21447142Y7131810D01*
X21732857Y6631810D01*
X21732857Y7131810D01*
X21970952Y6631810D02*
X21970952Y7131810D01*
X22090000Y7131810D01*
X22161428Y7108000D01*
X22209047Y7060381D01*
X22232857Y7012762D01*
X22256666Y6917524D01*
X22256666Y6846096D01*
X22232857Y6750858D01*
X22209047Y6703239D01*
X22161428Y6655620D01*
X22090000Y6631810D01*
X21970952Y6631810D01*
X23360142Y6822286D02*
X23741095Y6822286D01*
X23550619Y6631810D02*
X23550619Y7012762D01*
X24217285Y7131810D02*
X23979190Y7131810D01*
X23955380Y6893715D01*
X23979190Y6917524D01*
X24026809Y6941334D01*
X24145857Y6941334D01*
X24193476Y6917524D01*
X24217285Y6893715D01*
X24241095Y6846096D01*
X24241095Y6727048D01*
X24217285Y6679429D01*
X24193476Y6655620D01*
X24145857Y6631810D01*
X24026809Y6631810D01*
X23979190Y6655620D01*
X23955380Y6679429D01*
X24383952Y7131810D02*
X24550619Y6631810D01*
X24717285Y7131810D01*
X26733476Y7060381D02*
X26733476Y7084191D01*
X26709666Y7012762D02*
X26709666Y7084191D01*
X26685857Y6965143D02*
X26685857Y7084191D01*
X26662047Y6917524D02*
X26662047Y7084191D01*
X26638238Y6893715D02*
X26638238Y7084191D01*
X26614428Y6846096D02*
X26614428Y7084191D01*
X26590619Y6798477D02*
X26590619Y7084191D01*
X26566809Y6750858D02*
X26566809Y7084191D01*
X26543000Y6703239D02*
X26543000Y7084191D01*
X26519190Y6750858D02*
X26519190Y7084191D01*
X26495380Y6798477D02*
X26495380Y7084191D01*
X26471571Y6846096D02*
X26471571Y7084191D01*
X26447761Y6893715D02*
X26447761Y7084191D01*
X26423952Y6917524D02*
X26423952Y7084191D01*
X26400142Y6965143D02*
X26400142Y7084191D01*
X26376333Y7012762D02*
X26376333Y7084191D01*
X26352523Y7084191D02*
X26543000Y6727048D01*
X26733476Y7084191D01*
X26352523Y7060381D02*
X26352523Y7084191D01*
X26543000Y6703239D02*
X26328714Y7084191D01*
X26757285Y7084191D01*
X26543000Y6703239D01*
X8683666Y3456810D02*
X8517000Y3694905D01*
X8397952Y3456810D02*
X8397952Y3956810D01*
X8588428Y3956810D01*
X8636047Y3933000D01*
X8659857Y3909191D01*
X8683666Y3861572D01*
X8683666Y3790143D01*
X8659857Y3742524D01*
X8636047Y3718715D01*
X8588428Y3694905D01*
X8397952Y3694905D01*
X9064619Y3718715D02*
X9136047Y3694905D01*
X9159857Y3671096D01*
X9183666Y3623477D01*
X9183666Y3552048D01*
X9159857Y3504429D01*
X9136047Y3480620D01*
X9088428Y3456810D01*
X8897952Y3456810D01*
X8897952Y3956810D01*
X9064619Y3956810D01*
X9112238Y3933000D01*
X9136047Y3909191D01*
X9159857Y3861572D01*
X9159857Y3813953D01*
X9136047Y3766334D01*
X9112238Y3742524D01*
X9064619Y3718715D01*
X8897952Y3718715D01*
X9350333Y3956810D02*
X9659857Y3956810D01*
X9493190Y3766334D01*
X9564619Y3766334D01*
X9612238Y3742524D01*
X9636047Y3718715D01*
X9659857Y3671096D01*
X9659857Y3552048D01*
X9636047Y3504429D01*
X9612238Y3480620D01*
X9564619Y3456810D01*
X9421761Y3456810D01*
X9374142Y3480620D01*
X9350333Y3504429D01*
X11096666Y3583810D02*
X10930000Y3821905D01*
X10810952Y3583810D02*
X10810952Y4083810D01*
X11001428Y4083810D01*
X11049047Y4060000D01*
X11072857Y4036191D01*
X11096666Y3988572D01*
X11096666Y3917143D01*
X11072857Y3869524D01*
X11049047Y3845715D01*
X11001428Y3821905D01*
X10810952Y3821905D01*
X11477619Y3845715D02*
X11549047Y3821905D01*
X11572857Y3798096D01*
X11596666Y3750477D01*
X11596666Y3679048D01*
X11572857Y3631429D01*
X11549047Y3607620D01*
X11501428Y3583810D01*
X11310952Y3583810D01*
X11310952Y4083810D01*
X11477619Y4083810D01*
X11525238Y4060000D01*
X11549047Y4036191D01*
X11572857Y3988572D01*
X11572857Y3940953D01*
X11549047Y3893334D01*
X11525238Y3869524D01*
X11477619Y3845715D01*
X11310952Y3845715D01*
X12025238Y3917143D02*
X12025238Y3583810D01*
X11906190Y4107620D02*
X11787142Y3750477D01*
X12096666Y3750477D01*
X13636666Y3583810D02*
X13470000Y3821905D01*
X13350952Y3583810D02*
X13350952Y4083810D01*
X13541428Y4083810D01*
X13589047Y4060000D01*
X13612857Y4036191D01*
X13636666Y3988572D01*
X13636666Y3917143D01*
X13612857Y3869524D01*
X13589047Y3845715D01*
X13541428Y3821905D01*
X13350952Y3821905D01*
X14017619Y3845715D02*
X14089047Y3821905D01*
X14112857Y3798096D01*
X14136666Y3750477D01*
X14136666Y3679048D01*
X14112857Y3631429D01*
X14089047Y3607620D01*
X14041428Y3583810D01*
X13850952Y3583810D01*
X13850952Y4083810D01*
X14017619Y4083810D01*
X14065238Y4060000D01*
X14089047Y4036191D01*
X14112857Y3988572D01*
X14112857Y3940953D01*
X14089047Y3893334D01*
X14065238Y3869524D01*
X14017619Y3845715D01*
X13850952Y3845715D01*
X14589047Y4083810D02*
X14350952Y4083810D01*
X14327142Y3845715D01*
X14350952Y3869524D01*
X14398571Y3893334D01*
X14517619Y3893334D01*
X14565238Y3869524D01*
X14589047Y3845715D01*
X14612857Y3798096D01*
X14612857Y3679048D01*
X14589047Y3631429D01*
X14565238Y3607620D01*
X14517619Y3583810D01*
X14398571Y3583810D01*
X14350952Y3607620D01*
X14327142Y3631429D01*
X16176666Y3202810D02*
X16010000Y3440905D01*
X15890952Y3202810D02*
X15890952Y3702810D01*
X16081428Y3702810D01*
X16129047Y3679000D01*
X16152857Y3655191D01*
X16176666Y3607572D01*
X16176666Y3536143D01*
X16152857Y3488524D01*
X16129047Y3464715D01*
X16081428Y3440905D01*
X15890952Y3440905D01*
X16557619Y3464715D02*
X16629047Y3440905D01*
X16652857Y3417096D01*
X16676666Y3369477D01*
X16676666Y3298048D01*
X16652857Y3250429D01*
X16629047Y3226620D01*
X16581428Y3202810D01*
X16390952Y3202810D01*
X16390952Y3702810D01*
X16557619Y3702810D01*
X16605238Y3679000D01*
X16629047Y3655191D01*
X16652857Y3607572D01*
X16652857Y3559953D01*
X16629047Y3512334D01*
X16605238Y3488524D01*
X16557619Y3464715D01*
X16390952Y3464715D01*
X17105238Y3702810D02*
X17010000Y3702810D01*
X16962380Y3679000D01*
X16938571Y3655191D01*
X16890952Y3583762D01*
X16867142Y3488524D01*
X16867142Y3298048D01*
X16890952Y3250429D01*
X16914761Y3226620D01*
X16962380Y3202810D01*
X17057619Y3202810D01*
X17105238Y3226620D01*
X17129047Y3250429D01*
X17152857Y3298048D01*
X17152857Y3417096D01*
X17129047Y3464715D01*
X17105238Y3488524D01*
X17057619Y3512334D01*
X16962380Y3512334D01*
X16914761Y3488524D01*
X16890952Y3464715D01*
X16867142Y3417096D01*
X18716666Y3202810D02*
X18550000Y3440905D01*
X18430952Y3202810D02*
X18430952Y3702810D01*
X18621428Y3702810D01*
X18669047Y3679000D01*
X18692857Y3655191D01*
X18716666Y3607572D01*
X18716666Y3536143D01*
X18692857Y3488524D01*
X18669047Y3464715D01*
X18621428Y3440905D01*
X18430952Y3440905D01*
X19097619Y3464715D02*
X19169047Y3440905D01*
X19192857Y3417096D01*
X19216666Y3369477D01*
X19216666Y3298048D01*
X19192857Y3250429D01*
X19169047Y3226620D01*
X19121428Y3202810D01*
X18930952Y3202810D01*
X18930952Y3702810D01*
X19097619Y3702810D01*
X19145238Y3679000D01*
X19169047Y3655191D01*
X19192857Y3607572D01*
X19192857Y3559953D01*
X19169047Y3512334D01*
X19145238Y3488524D01*
X19097619Y3464715D01*
X18930952Y3464715D01*
X19383333Y3702810D02*
X19716666Y3702810D01*
X19502380Y3202810D01*
X21153476Y3202810D02*
X20986809Y3440905D01*
X20867761Y3202810D02*
X20867761Y3702810D01*
X21058238Y3702810D01*
X21105857Y3679000D01*
X21129666Y3655191D01*
X21153476Y3607572D01*
X21153476Y3536143D01*
X21129666Y3488524D01*
X21105857Y3464715D01*
X21058238Y3440905D01*
X20867761Y3440905D01*
X21367761Y3464715D02*
X21534428Y3464715D01*
X21605857Y3202810D02*
X21367761Y3202810D01*
X21367761Y3702810D01*
X21605857Y3702810D01*
X21772523Y3702810D02*
X22082047Y3702810D01*
X21915380Y3512334D01*
X21986809Y3512334D01*
X22034428Y3488524D01*
X22058238Y3464715D01*
X22082047Y3417096D01*
X22082047Y3298048D01*
X22058238Y3250429D01*
X22034428Y3226620D01*
X21986809Y3202810D01*
X21843952Y3202810D01*
X21796333Y3226620D01*
X21772523Y3250429D01*
X23705380Y3202810D02*
X23538714Y3440905D01*
X23419666Y3202810D02*
X23419666Y3702810D01*
X23610142Y3702810D01*
X23657761Y3679000D01*
X23681571Y3655191D01*
X23705380Y3607572D01*
X23705380Y3536143D01*
X23681571Y3488524D01*
X23657761Y3464715D01*
X23610142Y3440905D01*
X23419666Y3440905D01*
X23895857Y3345667D02*
X24133952Y3345667D01*
X23848238Y3202810D02*
X24014904Y3702810D01*
X24181571Y3202810D01*
X24443476Y3702810D02*
X24491095Y3702810D01*
X24538714Y3679000D01*
X24562523Y3655191D01*
X24586333Y3607572D01*
X24610142Y3512334D01*
X24610142Y3393286D01*
X24586333Y3298048D01*
X24562523Y3250429D01*
X24538714Y3226620D01*
X24491095Y3202810D01*
X24443476Y3202810D01*
X24395857Y3226620D01*
X24372047Y3250429D01*
X24348238Y3298048D01*
X24324428Y3393286D01*
X24324428Y3512334D01*
X24348238Y3607572D01*
X24372047Y3655191D01*
X24395857Y3679000D01*
X24443476Y3702810D01*
X26372380Y3456810D02*
X26205714Y3694905D01*
X26086666Y3456810D02*
X26086666Y3956810D01*
X26277142Y3956810D01*
X26324761Y3933000D01*
X26348571Y3909191D01*
X26372380Y3861572D01*
X26372380Y3790143D01*
X26348571Y3742524D01*
X26324761Y3718715D01*
X26277142Y3694905D01*
X26086666Y3694905D01*
X26562857Y3599667D02*
X26800952Y3599667D01*
X26515238Y3456810D02*
X26681904Y3956810D01*
X26848571Y3456810D01*
X27277142Y3456810D02*
X26991428Y3456810D01*
X27134285Y3456810D02*
X27134285Y3956810D01*
X27086666Y3885381D01*
X27039047Y3837762D01*
X26991428Y3813953D01*
X28912380Y3583810D02*
X28745714Y3821905D01*
X28626666Y3583810D02*
X28626666Y4083810D01*
X28817142Y4083810D01*
X28864761Y4060000D01*
X28888571Y4036191D01*
X28912380Y3988572D01*
X28912380Y3917143D01*
X28888571Y3869524D01*
X28864761Y3845715D01*
X28817142Y3821905D01*
X28626666Y3821905D01*
X29102857Y3726667D02*
X29340952Y3726667D01*
X29055238Y3583810D02*
X29221904Y4083810D01*
X29388571Y3583810D01*
X29531428Y4036191D02*
X29555238Y4060000D01*
X29602857Y4083810D01*
X29721904Y4083810D01*
X29769523Y4060000D01*
X29793333Y4036191D01*
X29817142Y3988572D01*
X29817142Y3940953D01*
X29793333Y3869524D01*
X29507619Y3583810D01*
X29817142Y3583810D01*
X31452380Y3583810D02*
X31285714Y3821905D01*
X31166666Y3583810D02*
X31166666Y4083810D01*
X31357142Y4083810D01*
X31404761Y4060000D01*
X31428571Y4036191D01*
X31452380Y3988572D01*
X31452380Y3917143D01*
X31428571Y3869524D01*
X31404761Y3845715D01*
X31357142Y3821905D01*
X31166666Y3821905D01*
X31642857Y3726667D02*
X31880952Y3726667D01*
X31595238Y3583810D02*
X31761904Y4083810D01*
X31928571Y3583810D01*
X32047619Y4083810D02*
X32357142Y4083810D01*
X32190476Y3893334D01*
X32261904Y3893334D01*
X32309523Y3869524D01*
X32333333Y3845715D01*
X32357142Y3798096D01*
X32357142Y3679048D01*
X32333333Y3631429D01*
X32309523Y3607620D01*
X32261904Y3583810D01*
X32119047Y3583810D01*
X32071428Y3607620D01*
X32047619Y3631429D01*
D11*
G04 #@! TO.C,OSC1*
X31810000Y23943000D02*
X30480000Y23943000D01*
X31810000Y25273000D02*
X31810000Y23943000D01*
X29210000Y24003000D02*
X29150000Y26543000D01*
X31810000Y26543000D02*
X31810000Y29143000D01*
X31810000Y29143000D02*
X29150000Y29143000D01*
G04 #@! TO.C,OSC2*
X31810000Y23047000D02*
X29150000Y23047000D01*
X31810000Y20447000D02*
X31810000Y23047000D01*
X29150000Y20447000D02*
X29150000Y23047000D01*
X29210000Y17907000D02*
X29150000Y20447000D01*
X31810000Y19177000D02*
X31810000Y17847000D01*
X31810000Y17847000D02*
X30480000Y17847000D01*
D12*
G04 #@! TO.C,U1*
X14528800Y11239200D02*
X15072860Y11239200D01*
X24790400Y11239200D02*
X24790400Y11783260D01*
X24790400Y21500800D02*
X24246340Y21500800D01*
X14528800Y21500800D02*
X14528800Y20956740D01*
X14528800Y11783260D02*
X14528800Y11239200D01*
X24246340Y11239200D02*
X24790400Y11239200D01*
X24790400Y20956740D02*
X24790400Y21500800D01*
X15072860Y21500800D02*
X14528800Y21500800D01*
D11*
G04 #@! TO.C,*
X20888000Y25400000D02*
X20888000Y24070000D01*
X20888000Y24070000D02*
X19558000Y24070000D01*
G04 #@! TO.C,Interruptor*
X18348000Y25400000D02*
X18348000Y24070000D01*
X18348000Y24070000D02*
X17018000Y24070000D01*
G04 #@! TO.C,P.UP*
X4893000Y14157000D02*
X6223000Y14157000D01*
X4893000Y12827000D02*
X4893000Y14157000D01*
G04 #@! TO.C,C3*
X29165733Y13972000D02*
X29508267Y13972000D01*
X29165733Y12952000D02*
X29508267Y12952000D01*
G04 #@! TO.C,C5*
X33145000Y16681267D02*
X33145000Y16338733D01*
X34165000Y16681267D02*
X34165000Y16338733D01*
G04 #@! TO.C, *
X36320000Y16338733D02*
X36320000Y16681267D01*
X37340000Y16338733D02*
X37340000Y16681267D01*
G04 #@! TO.C,C1*
X9226733Y19941000D02*
X9569267Y19941000D01*
X9226733Y18921000D02*
X9569267Y18921000D01*
G04 #@! TO.C,C2*
X8845733Y16254000D02*
X9188267Y16254000D01*
X8845733Y17274000D02*
X9188267Y17274000D01*
G04 #@! TO.C,D1*
X34043000Y6152000D02*
X36903000Y6152000D01*
X36903000Y6152000D02*
X36903000Y8072000D01*
X36903000Y8072000D02*
X34043000Y8072000D01*
G04 #@! TO.C,Alim*
X26349000Y23943000D02*
X25019000Y23943000D01*
X26349000Y25273000D02*
X26349000Y23943000D01*
X26349000Y26543000D02*
X23689000Y26543000D01*
X23689000Y26543000D02*
X23689000Y29143000D01*
X26349000Y26543000D02*
X26349000Y29143000D01*
X26349000Y29143000D02*
X23689000Y29143000D01*
G04 #@! TO.C,R1*
X9644748Y14299000D02*
X10167252Y14299000D01*
X9644748Y12879000D02*
X10167252Y12879000D01*
G04 #@! TO.C,R2*
X29583748Y7695000D02*
X30106252Y7695000D01*
X29583748Y6275000D02*
X30106252Y6275000D01*
G04 #@! TO.C,R3*
X9771748Y10593000D02*
X10294252Y10593000D01*
X9771748Y12013000D02*
X10294252Y12013000D01*
G04 #@! TO.C,R4*
X9644748Y9727000D02*
X10167252Y9727000D01*
X9644748Y8307000D02*
X10167252Y8307000D01*
G04 #@! TO.C,R5*
X9762748Y5767000D02*
X10285252Y5767000D01*
X9762748Y7187000D02*
X10285252Y7187000D01*
G04 #@! TO.C,R7*
X32758748Y12879000D02*
X33281252Y12879000D01*
X32758748Y14299000D02*
X33281252Y14299000D01*
G04 #@! TO.C,RESET*
X33826000Y8177000D02*
X27006000Y8177000D01*
X33826000Y12397000D02*
X27006000Y12397000D01*
X33826000Y8177000D02*
X33826000Y9487000D01*
X33826000Y11087000D02*
X33826000Y12397000D01*
X27006000Y8177000D02*
X27006000Y9487000D01*
X27006000Y11087000D02*
X27006000Y12397000D01*
X34066000Y7937000D02*
X32683000Y7937000D01*
X34066000Y7937000D02*
X34066000Y9320000D01*
X32226000Y9652000D02*
X32226000Y10922000D01*
X32226000Y10922000D02*
X28606000Y10922000D01*
X28606000Y10922000D02*
X28606000Y9652000D01*
X28606000Y9652000D02*
X32226000Y9652000D01*
X32226000Y9772000D02*
X31019333Y9772000D01*
X32226000Y9892000D02*
X31019333Y9892000D01*
X32226000Y10012000D02*
X31019333Y10012000D01*
X32226000Y10132000D02*
X31019333Y10132000D01*
X32226000Y10252000D02*
X31019333Y10252000D01*
X32226000Y10372000D02*
X31019333Y10372000D01*
X32226000Y10492000D02*
X31019333Y10492000D01*
X32226000Y10612000D02*
X31019333Y10612000D01*
X32226000Y10732000D02*
X31019333Y10732000D01*
X32226000Y10852000D02*
X31019333Y10852000D01*
X31019333Y9652000D02*
X31019333Y10922000D01*
G04 #@! TO.C,U2*
X6574000Y28429000D02*
X6574000Y27169000D01*
X6574000Y21609000D02*
X6574000Y22869000D01*
X10334000Y28429000D02*
X6574000Y28429000D01*
X12584000Y21609000D02*
X6574000Y21609000D01*
G04 #@! TO.C,Y1*
X37196000Y26593000D02*
X37196000Y20343000D01*
X32146000Y26593000D02*
X32146000Y20343000D01*
X32146000Y26593000D02*
G75*
G02X37196000Y26593000I2525000J0D01*
G01*
X32146000Y20343000D02*
G75*
G03X37196000Y20343000I2525000J0D01*
G01*
G04 #@! TD*
G04 #@! TO.C,*
D13*
G04 #@! TO.C,OSC1*
D10*
X28428190Y25515191D02*
X28428190Y25610429D01*
X28452000Y25658048D01*
X28499619Y25705667D01*
X28594857Y25729477D01*
X28761523Y25729477D01*
X28856761Y25705667D01*
X28904380Y25658048D01*
X28928190Y25610429D01*
X28928190Y25515191D01*
X28904380Y25467572D01*
X28856761Y25419953D01*
X28761523Y25396143D01*
X28594857Y25396143D01*
X28499619Y25419953D01*
X28452000Y25467572D01*
X28428190Y25515191D01*
X28904380Y25919953D02*
X28928190Y25991381D01*
X28928190Y26110429D01*
X28904380Y26158048D01*
X28880571Y26181858D01*
X28832952Y26205667D01*
X28785333Y26205667D01*
X28737714Y26181858D01*
X28713904Y26158048D01*
X28690095Y26110429D01*
X28666285Y26015191D01*
X28642476Y25967572D01*
X28618666Y25943762D01*
X28571047Y25919953D01*
X28523428Y25919953D01*
X28475809Y25943762D01*
X28452000Y25967572D01*
X28428190Y26015191D01*
X28428190Y26134239D01*
X28452000Y26205667D01*
X28880571Y26705667D02*
X28904380Y26681858D01*
X28928190Y26610429D01*
X28928190Y26562810D01*
X28904380Y26491381D01*
X28856761Y26443762D01*
X28809142Y26419953D01*
X28713904Y26396143D01*
X28642476Y26396143D01*
X28547238Y26419953D01*
X28499619Y26443762D01*
X28452000Y26491381D01*
X28428190Y26562810D01*
X28428190Y26610429D01*
X28452000Y26681858D01*
X28475809Y26705667D01*
X28928190Y27181858D02*
X28928190Y26896143D01*
X28928190Y27039000D02*
X28428190Y27039000D01*
X28499619Y26991381D01*
X28547238Y26943762D01*
X28571047Y26896143D01*
G04 #@! TO.C,OSC2*
X28428190Y19546191D02*
X28428190Y19641429D01*
X28452000Y19689048D01*
X28499619Y19736667D01*
X28594857Y19760477D01*
X28761523Y19760477D01*
X28856761Y19736667D01*
X28904380Y19689048D01*
X28928190Y19641429D01*
X28928190Y19546191D01*
X28904380Y19498572D01*
X28856761Y19450953D01*
X28761523Y19427143D01*
X28594857Y19427143D01*
X28499619Y19450953D01*
X28452000Y19498572D01*
X28428190Y19546191D01*
X28904380Y19950953D02*
X28928190Y20022381D01*
X28928190Y20141429D01*
X28904380Y20189048D01*
X28880571Y20212858D01*
X28832952Y20236667D01*
X28785333Y20236667D01*
X28737714Y20212858D01*
X28713904Y20189048D01*
X28690095Y20141429D01*
X28666285Y20046191D01*
X28642476Y19998572D01*
X28618666Y19974762D01*
X28571047Y19950953D01*
X28523428Y19950953D01*
X28475809Y19974762D01*
X28452000Y19998572D01*
X28428190Y20046191D01*
X28428190Y20165239D01*
X28452000Y20236667D01*
X28880571Y20736667D02*
X28904380Y20712858D01*
X28928190Y20641429D01*
X28928190Y20593810D01*
X28904380Y20522381D01*
X28856761Y20474762D01*
X28809142Y20450953D01*
X28713904Y20427143D01*
X28642476Y20427143D01*
X28547238Y20450953D01*
X28499619Y20474762D01*
X28452000Y20522381D01*
X28428190Y20593810D01*
X28428190Y20641429D01*
X28452000Y20712858D01*
X28475809Y20736667D01*
X28475809Y20927143D02*
X28452000Y20950953D01*
X28428190Y20998572D01*
X28428190Y21117620D01*
X28452000Y21165239D01*
X28475809Y21189048D01*
X28523428Y21212858D01*
X28571047Y21212858D01*
X28642476Y21189048D01*
X28928190Y20903334D01*
X28928190Y21212858D01*
G04 #@! TO.C,U1*
X14351047Y22752810D02*
X14351047Y22348048D01*
X14374857Y22300429D01*
X14398666Y22276620D01*
X14446285Y22252810D01*
X14541523Y22252810D01*
X14589142Y22276620D01*
X14612952Y22300429D01*
X14636761Y22348048D01*
X14636761Y22752810D01*
X15136761Y22252810D02*
X14851047Y22252810D01*
X14993904Y22252810D02*
X14993904Y22752810D01*
X14946285Y22681381D01*
X14898666Y22633762D01*
X14851047Y22609953D01*
X17208296Y13406886D02*
X16642611Y13972572D01*
X16858110Y14188071D01*
X16938922Y14215008D01*
X16992797Y14215008D01*
X17073609Y14188071D01*
X17154421Y14107259D01*
X17181359Y14026447D01*
X17181359Y13972572D01*
X17154421Y13891760D01*
X16938922Y13676260D01*
X17773981Y13972572D02*
X17208296Y14538257D01*
X18312729Y14619069D02*
X18312729Y14565195D01*
X18258855Y14457445D01*
X18204980Y14403570D01*
X18097230Y14349695D01*
X17989481Y14349695D01*
X17908668Y14376633D01*
X17773981Y14457445D01*
X17693169Y14538257D01*
X17612357Y14672944D01*
X17585420Y14753756D01*
X17585420Y14861506D01*
X17639294Y14969256D01*
X17693169Y15023130D01*
X17800919Y15077005D01*
X17854794Y15077005D01*
X18905352Y15103943D02*
X18582103Y14780694D01*
X18743728Y14942318D02*
X18178042Y15508004D01*
X18204980Y15373317D01*
X18204980Y15265567D01*
X18178042Y15184755D01*
X18905352Y15750440D02*
X18824540Y15723503D01*
X18770665Y15723503D01*
X18689853Y15750440D01*
X18662916Y15777378D01*
X18635978Y15858190D01*
X18635978Y15912065D01*
X18662916Y15992877D01*
X18770665Y16100626D01*
X18851477Y16127564D01*
X18905352Y16127564D01*
X18986164Y16100626D01*
X19013102Y16073689D01*
X19040039Y15992877D01*
X19040039Y15939002D01*
X19013102Y15858190D01*
X18905352Y15750440D01*
X18878415Y15669628D01*
X18878415Y15615753D01*
X18905352Y15534941D01*
X19013102Y15427191D01*
X19093914Y15400254D01*
X19147789Y15400254D01*
X19228601Y15427191D01*
X19336351Y15534941D01*
X19363288Y15615753D01*
X19363288Y15669628D01*
X19336351Y15750440D01*
X19228601Y15858190D01*
X19147789Y15885127D01*
X19093914Y15885127D01*
X19013102Y15858190D01*
X19578787Y16370001D02*
X19390225Y16181439D01*
X19686537Y15885127D02*
X19120851Y16450813D01*
X19390225Y16720187D01*
X20036723Y16989561D02*
X20413847Y16612437D01*
X19686537Y17070373D02*
X19955911Y16531625D01*
X20306097Y16881811D01*
X20413847Y17743808D02*
X20144473Y17474434D01*
X20386909Y17178123D01*
X20386909Y17231997D01*
X20413847Y17312810D01*
X20548534Y17447497D01*
X20629346Y17474434D01*
X20683221Y17474434D01*
X20764033Y17447497D01*
X20898720Y17312810D01*
X20925657Y17231997D01*
X20925657Y17178123D01*
X20898720Y17097310D01*
X20764033Y16962623D01*
X20683221Y16935686D01*
X20629346Y16935686D01*
X21248906Y17447497D02*
X20683221Y18013182D01*
X21572155Y17770745D02*
X21006470Y17851558D01*
X21006470Y18336431D02*
X21006470Y17689933D01*
X21275844Y18498055D02*
X21275844Y18551930D01*
X21302781Y18632742D01*
X21437468Y18767429D01*
X21518280Y18794367D01*
X21572155Y18794367D01*
X21652967Y18767429D01*
X21706842Y18713554D01*
X21760717Y18605805D01*
X21760717Y17959307D01*
X22110903Y18309493D01*
X21814592Y19036803D02*
X21814592Y19090678D01*
X21841529Y19171490D01*
X21976216Y19306177D01*
X22057028Y19333115D01*
X22110903Y19333115D01*
X22191715Y19306177D01*
X22245590Y19252302D01*
X22299465Y19144553D01*
X22299465Y18498055D01*
X22649651Y18848241D01*
D13*
X13970000Y22010620D02*
X13970000Y21772524D01*
X13731904Y21867762D02*
X13970000Y21772524D01*
X14208095Y21867762D01*
X13827142Y21582048D02*
X13970000Y21772524D01*
X14112857Y21582048D01*
G04 #@! TO.C,*
G04 #@! TO.C,Interruptor*
D10*
X16545952Y23395810D02*
X16545952Y23895810D01*
X16784047Y23729143D02*
X16784047Y23395810D01*
X16784047Y23681524D02*
X16807857Y23705334D01*
X16855476Y23729143D01*
X16926904Y23729143D01*
X16974523Y23705334D01*
X16998333Y23657715D01*
X16998333Y23395810D01*
X17165000Y23729143D02*
X17355476Y23729143D01*
X17236428Y23895810D02*
X17236428Y23467239D01*
X17260238Y23419620D01*
X17307857Y23395810D01*
X17355476Y23395810D01*
X17712619Y23419620D02*
X17665000Y23395810D01*
X17569761Y23395810D01*
X17522142Y23419620D01*
X17498333Y23467239D01*
X17498333Y23657715D01*
X17522142Y23705334D01*
X17569761Y23729143D01*
X17665000Y23729143D01*
X17712619Y23705334D01*
X17736428Y23657715D01*
X17736428Y23610096D01*
X17498333Y23562477D01*
X17950714Y23395810D02*
X17950714Y23729143D01*
X17950714Y23633905D02*
X17974523Y23681524D01*
X17998333Y23705334D01*
X18045952Y23729143D01*
X18093571Y23729143D01*
X18260238Y23395810D02*
X18260238Y23729143D01*
X18260238Y23633905D02*
X18284047Y23681524D01*
X18307857Y23705334D01*
X18355476Y23729143D01*
X18403095Y23729143D01*
X18784047Y23729143D02*
X18784047Y23395810D01*
X18569761Y23729143D02*
X18569761Y23467239D01*
X18593571Y23419620D01*
X18641190Y23395810D01*
X18712619Y23395810D01*
X18760238Y23419620D01*
X18784047Y23443429D01*
X19022142Y23729143D02*
X19022142Y23229143D01*
X19022142Y23705334D02*
X19069761Y23729143D01*
X19165000Y23729143D01*
X19212619Y23705334D01*
X19236428Y23681524D01*
X19260238Y23633905D01*
X19260238Y23491048D01*
X19236428Y23443429D01*
X19212619Y23419620D01*
X19165000Y23395810D01*
X19069761Y23395810D01*
X19022142Y23419620D01*
X19403095Y23729143D02*
X19593571Y23729143D01*
X19474523Y23895810D02*
X19474523Y23467239D01*
X19498333Y23419620D01*
X19545952Y23395810D01*
X19593571Y23395810D01*
X19831666Y23395810D02*
X19784047Y23419620D01*
X19760238Y23443429D01*
X19736428Y23491048D01*
X19736428Y23633905D01*
X19760238Y23681524D01*
X19784047Y23705334D01*
X19831666Y23729143D01*
X19903095Y23729143D01*
X19950714Y23705334D01*
X19974523Y23681524D01*
X19998333Y23633905D01*
X19998333Y23491048D01*
X19974523Y23443429D01*
X19950714Y23419620D01*
X19903095Y23395810D01*
X19831666Y23395810D01*
X20212619Y23395810D02*
X20212619Y23729143D01*
X20212619Y23633905D02*
X20236428Y23681524D01*
X20260238Y23705334D01*
X20307857Y23729143D01*
X20355476Y23729143D01*
G04 #@! TO.C,*
D13*
G04 #@! TO.C,P.UP*
D10*
X4671190Y11176096D02*
X4171190Y11176096D01*
X4171190Y11366572D01*
X4195000Y11414191D01*
X4218809Y11438000D01*
X4266428Y11461810D01*
X4337857Y11461810D01*
X4385476Y11438000D01*
X4409285Y11414191D01*
X4433095Y11366572D01*
X4433095Y11176096D01*
X4623571Y11676096D02*
X4647380Y11699905D01*
X4671190Y11676096D01*
X4647380Y11652286D01*
X4623571Y11676096D01*
X4671190Y11676096D01*
X4171190Y11914191D02*
X4575952Y11914191D01*
X4623571Y11938000D01*
X4647380Y11961810D01*
X4671190Y12009429D01*
X4671190Y12104667D01*
X4647380Y12152286D01*
X4623571Y12176096D01*
X4575952Y12199905D01*
X4171190Y12199905D01*
X4671190Y12438000D02*
X4171190Y12438000D01*
X4171190Y12628477D01*
X4195000Y12676096D01*
X4218809Y12699905D01*
X4266428Y12723715D01*
X4337857Y12723715D01*
X4385476Y12699905D01*
X4409285Y12676096D01*
X4433095Y12628477D01*
X4433095Y12438000D01*
G04 #@! TO.C,PROG*
X14704190Y4314143D02*
X14204190Y4314143D01*
X14204190Y4504620D01*
X14228000Y4552239D01*
X14251809Y4576048D01*
X14299428Y4599858D01*
X14370857Y4599858D01*
X14418476Y4576048D01*
X14442285Y4552239D01*
X14466095Y4504620D01*
X14466095Y4314143D01*
X14704190Y5099858D02*
X14466095Y4933191D01*
X14704190Y4814143D02*
X14204190Y4814143D01*
X14204190Y5004620D01*
X14228000Y5052239D01*
X14251809Y5076048D01*
X14299428Y5099858D01*
X14370857Y5099858D01*
X14418476Y5076048D01*
X14442285Y5052239D01*
X14466095Y5004620D01*
X14466095Y4814143D01*
X14204190Y5409381D02*
X14204190Y5504620D01*
X14228000Y5552239D01*
X14275619Y5599858D01*
X14370857Y5623667D01*
X14537523Y5623667D01*
X14632761Y5599858D01*
X14680380Y5552239D01*
X14704190Y5504620D01*
X14704190Y5409381D01*
X14680380Y5361762D01*
X14632761Y5314143D01*
X14537523Y5290334D01*
X14370857Y5290334D01*
X14275619Y5314143D01*
X14228000Y5361762D01*
X14204190Y5409381D01*
X14228000Y6099858D02*
X14204190Y6052239D01*
X14204190Y5980810D01*
X14228000Y5909381D01*
X14275619Y5861762D01*
X14323238Y5837953D01*
X14418476Y5814143D01*
X14489904Y5814143D01*
X14585142Y5837953D01*
X14632761Y5861762D01*
X14680380Y5909381D01*
X14704190Y5980810D01*
X14704190Y6028429D01*
X14680380Y6099858D01*
X14656571Y6123667D01*
X14489904Y6123667D01*
X14489904Y6028429D01*
G04 #@! TO.C,C3*
X29126666Y14553429D02*
X29102857Y14529620D01*
X29031428Y14505810D01*
X28983809Y14505810D01*
X28912380Y14529620D01*
X28864761Y14577239D01*
X28840952Y14624858D01*
X28817142Y14720096D01*
X28817142Y14791524D01*
X28840952Y14886762D01*
X28864761Y14934381D01*
X28912380Y14982000D01*
X28983809Y15005810D01*
X29031428Y15005810D01*
X29102857Y14982000D01*
X29126666Y14958191D01*
X29293333Y15005810D02*
X29602857Y15005810D01*
X29436190Y14815334D01*
X29507619Y14815334D01*
X29555238Y14791524D01*
X29579047Y14767715D01*
X29602857Y14720096D01*
X29602857Y14601048D01*
X29579047Y14553429D01*
X29555238Y14529620D01*
X29507619Y14505810D01*
X29364761Y14505810D01*
X29317142Y14529620D01*
X29293333Y14553429D01*
G04 #@! TO.C,C5*
X35611571Y16426667D02*
X35635380Y16402858D01*
X35659190Y16331429D01*
X35659190Y16283810D01*
X35635380Y16212381D01*
X35587761Y16164762D01*
X35540142Y16140953D01*
X35444904Y16117143D01*
X35373476Y16117143D01*
X35278238Y16140953D01*
X35230619Y16164762D01*
X35183000Y16212381D01*
X35159190Y16283810D01*
X35159190Y16331429D01*
X35183000Y16402858D01*
X35206809Y16426667D01*
X35159190Y16879048D02*
X35159190Y16640953D01*
X35397285Y16617143D01*
X35373476Y16640953D01*
X35349666Y16688572D01*
X35349666Y16807620D01*
X35373476Y16855239D01*
X35397285Y16879048D01*
X35444904Y16902858D01*
X35563952Y16902858D01*
X35611571Y16879048D01*
X35635380Y16855239D01*
X35659190Y16807620D01*
X35659190Y16688572D01*
X35635380Y16640953D01*
X35611571Y16617143D01*
G04 #@! TO.C, *
D13*
G04 #@! TO.C,C1*
D10*
X9314666Y20268429D02*
X9290857Y20244620D01*
X9219428Y20220810D01*
X9171809Y20220810D01*
X9100380Y20244620D01*
X9052761Y20292239D01*
X9028952Y20339858D01*
X9005142Y20435096D01*
X9005142Y20506524D01*
X9028952Y20601762D01*
X9052761Y20649381D01*
X9100380Y20697000D01*
X9171809Y20720810D01*
X9219428Y20720810D01*
X9290857Y20697000D01*
X9314666Y20673191D01*
X9790857Y20220810D02*
X9505142Y20220810D01*
X9648000Y20220810D02*
X9648000Y20720810D01*
X9600380Y20649381D01*
X9552761Y20601762D01*
X9505142Y20577953D01*
G04 #@! TO.C,C2*
X8933666Y17728429D02*
X8909857Y17704620D01*
X8838428Y17680810D01*
X8790809Y17680810D01*
X8719380Y17704620D01*
X8671761Y17752239D01*
X8647952Y17799858D01*
X8624142Y17895096D01*
X8624142Y17966524D01*
X8647952Y18061762D01*
X8671761Y18109381D01*
X8719380Y18157000D01*
X8790809Y18180810D01*
X8838428Y18180810D01*
X8909857Y18157000D01*
X8933666Y18133191D01*
X9124142Y18133191D02*
X9147952Y18157000D01*
X9195571Y18180810D01*
X9314619Y18180810D01*
X9362238Y18157000D01*
X9386047Y18133191D01*
X9409857Y18085572D01*
X9409857Y18037953D01*
X9386047Y17966524D01*
X9100333Y17680810D01*
X9409857Y17680810D01*
G04 #@! TO.C,D1*
X34673952Y5235810D02*
X34673952Y5735810D01*
X34793000Y5735810D01*
X34864428Y5712000D01*
X34912047Y5664381D01*
X34935857Y5616762D01*
X34959666Y5521524D01*
X34959666Y5450096D01*
X34935857Y5354858D01*
X34912047Y5307239D01*
X34864428Y5259620D01*
X34793000Y5235810D01*
X34673952Y5235810D01*
X35435857Y5235810D02*
X35150142Y5235810D01*
X35293000Y5235810D02*
X35293000Y5735810D01*
X35245380Y5664381D01*
X35197761Y5616762D01*
X35150142Y5592953D01*
G04 #@! TO.C,Alim*
X24443619Y23411667D02*
X24681714Y23411667D01*
X24396000Y23268810D02*
X24562666Y23768810D01*
X24729333Y23268810D01*
X24967428Y23268810D02*
X24919809Y23292620D01*
X24896000Y23340239D01*
X24896000Y23768810D01*
X25157904Y23268810D02*
X25157904Y23602143D01*
X25157904Y23768810D02*
X25134095Y23745000D01*
X25157904Y23721191D01*
X25181714Y23745000D01*
X25157904Y23768810D01*
X25157904Y23721191D01*
X25396000Y23268810D02*
X25396000Y23602143D01*
X25396000Y23554524D02*
X25419809Y23578334D01*
X25467428Y23602143D01*
X25538857Y23602143D01*
X25586476Y23578334D01*
X25610285Y23530715D01*
X25610285Y23268810D01*
X25610285Y23530715D02*
X25634095Y23578334D01*
X25681714Y23602143D01*
X25753142Y23602143D01*
X25800761Y23578334D01*
X25824571Y23530715D01*
X25824571Y23268810D01*
G04 #@! TO.C,R1*
X9822666Y14632810D02*
X9656000Y14870905D01*
X9536952Y14632810D02*
X9536952Y15132810D01*
X9727428Y15132810D01*
X9775047Y15109000D01*
X9798857Y15085191D01*
X9822666Y15037572D01*
X9822666Y14966143D01*
X9798857Y14918524D01*
X9775047Y14894715D01*
X9727428Y14870905D01*
X9536952Y14870905D01*
X10298857Y14632810D02*
X10013142Y14632810D01*
X10156000Y14632810D02*
X10156000Y15132810D01*
X10108380Y15061381D01*
X10060761Y15013762D01*
X10013142Y14989953D01*
G04 #@! TO.C,R2*
X30142666Y5107810D02*
X29976000Y5345905D01*
X29856952Y5107810D02*
X29856952Y5607810D01*
X30047428Y5607810D01*
X30095047Y5584000D01*
X30118857Y5560191D01*
X30142666Y5512572D01*
X30142666Y5441143D01*
X30118857Y5393524D01*
X30095047Y5369715D01*
X30047428Y5345905D01*
X29856952Y5345905D01*
X30333142Y5560191D02*
X30356952Y5584000D01*
X30404571Y5607810D01*
X30523619Y5607810D01*
X30571238Y5584000D01*
X30595047Y5560191D01*
X30618857Y5512572D01*
X30618857Y5464953D01*
X30595047Y5393524D01*
X30309333Y5107810D01*
X30618857Y5107810D01*
G04 #@! TO.C,R3*
X9949666Y12219810D02*
X9783000Y12457905D01*
X9663952Y12219810D02*
X9663952Y12719810D01*
X9854428Y12719810D01*
X9902047Y12696000D01*
X9925857Y12672191D01*
X9949666Y12624572D01*
X9949666Y12553143D01*
X9925857Y12505524D01*
X9902047Y12481715D01*
X9854428Y12457905D01*
X9663952Y12457905D01*
X10116333Y12719810D02*
X10425857Y12719810D01*
X10259190Y12529334D01*
X10330619Y12529334D01*
X10378238Y12505524D01*
X10402047Y12481715D01*
X10425857Y12434096D01*
X10425857Y12315048D01*
X10402047Y12267429D01*
X10378238Y12243620D01*
X10330619Y12219810D01*
X10187761Y12219810D01*
X10140142Y12243620D01*
X10116333Y12267429D01*
G04 #@! TO.C,R4*
X9822666Y9933810D02*
X9656000Y10171905D01*
X9536952Y9933810D02*
X9536952Y10433810D01*
X9727428Y10433810D01*
X9775047Y10410000D01*
X9798857Y10386191D01*
X9822666Y10338572D01*
X9822666Y10267143D01*
X9798857Y10219524D01*
X9775047Y10195715D01*
X9727428Y10171905D01*
X9536952Y10171905D01*
X10251238Y10267143D02*
X10251238Y9933810D01*
X10132190Y10457620D02*
X10013142Y10100477D01*
X10322666Y10100477D01*
G04 #@! TO.C,R5*
X9949666Y7520810D02*
X9783000Y7758905D01*
X9663952Y7520810D02*
X9663952Y8020810D01*
X9854428Y8020810D01*
X9902047Y7997000D01*
X9925857Y7973191D01*
X9949666Y7925572D01*
X9949666Y7854143D01*
X9925857Y7806524D01*
X9902047Y7782715D01*
X9854428Y7758905D01*
X9663952Y7758905D01*
X10402047Y8020810D02*
X10163952Y8020810D01*
X10140142Y7782715D01*
X10163952Y7806524D01*
X10211571Y7830334D01*
X10330619Y7830334D01*
X10378238Y7806524D01*
X10402047Y7782715D01*
X10425857Y7735096D01*
X10425857Y7616048D01*
X10402047Y7568429D01*
X10378238Y7544620D01*
X10330619Y7520810D01*
X10211571Y7520810D01*
X10163952Y7544620D01*
X10140142Y7568429D01*
G04 #@! TO.C,R7*
X32047666Y14759810D02*
X31881000Y14997905D01*
X31761952Y14759810D02*
X31761952Y15259810D01*
X31952428Y15259810D01*
X32000047Y15236000D01*
X32023857Y15212191D01*
X32047666Y15164572D01*
X32047666Y15093143D01*
X32023857Y15045524D01*
X32000047Y15021715D01*
X31952428Y14997905D01*
X31761952Y14997905D01*
X32214333Y15259810D02*
X32547666Y15259810D01*
X32333380Y14759810D01*
G04 #@! TO.C,RESET*
X35913190Y9687810D02*
X35675095Y9521143D01*
X35913190Y9402096D02*
X35413190Y9402096D01*
X35413190Y9592572D01*
X35437000Y9640191D01*
X35460809Y9664000D01*
X35508428Y9687810D01*
X35579857Y9687810D01*
X35627476Y9664000D01*
X35651285Y9640191D01*
X35675095Y9592572D01*
X35675095Y9402096D01*
X35651285Y9902096D02*
X35651285Y10068762D01*
X35913190Y10140191D02*
X35913190Y9902096D01*
X35413190Y9902096D01*
X35413190Y10140191D01*
X35889380Y10330667D02*
X35913190Y10402096D01*
X35913190Y10521143D01*
X35889380Y10568762D01*
X35865571Y10592572D01*
X35817952Y10616381D01*
X35770333Y10616381D01*
X35722714Y10592572D01*
X35698904Y10568762D01*
X35675095Y10521143D01*
X35651285Y10425905D01*
X35627476Y10378286D01*
X35603666Y10354477D01*
X35556047Y10330667D01*
X35508428Y10330667D01*
X35460809Y10354477D01*
X35437000Y10378286D01*
X35413190Y10425905D01*
X35413190Y10544953D01*
X35437000Y10616381D01*
X35651285Y10830667D02*
X35651285Y10997334D01*
X35913190Y11068762D02*
X35913190Y10830667D01*
X35413190Y10830667D01*
X35413190Y11068762D01*
X35413190Y11211620D02*
X35413190Y11497334D01*
X35913190Y11354477D02*
X35413190Y11354477D01*
G04 #@! TO.C,U2*
X5461047Y29229810D02*
X5461047Y28825048D01*
X5484857Y28777429D01*
X5508666Y28753620D01*
X5556285Y28729810D01*
X5651523Y28729810D01*
X5699142Y28753620D01*
X5722952Y28777429D01*
X5746761Y28825048D01*
X5746761Y29229810D01*
X5961047Y29182191D02*
X5984857Y29206000D01*
X6032476Y29229810D01*
X6151523Y29229810D01*
X6199142Y29206000D01*
X6222952Y29182191D01*
X6246761Y29134572D01*
X6246761Y29086953D01*
X6222952Y29015524D01*
X5937238Y28729810D01*
X6246761Y28729810D01*
G04 #@! TO.C,Y1*
X34686904Y29729905D02*
X34686904Y29491810D01*
X34520238Y29991810D02*
X34686904Y29729905D01*
X34853571Y29991810D01*
X35282142Y29491810D02*
X34996428Y29491810D01*
X35139285Y29491810D02*
X35139285Y29991810D01*
X35091666Y29920381D01*
X35044047Y29872762D01*
X34996428Y29848953D01*
G04 #@! TD*
%LPC*%
D14*
G04 #@! TO.C,*
X40005000Y4445000D03*
X40005000Y6985000D03*
X40005000Y9525000D03*
X40005000Y12065000D03*
X40005000Y14605000D03*
X40005000Y17145000D03*
X40005000Y19685000D03*
X40005000Y22225000D03*
X40005000Y24765000D03*
X40005000Y27305000D03*
G04 #@! TD*
G04 #@! TO.C,OSC1*
X30480000Y27813000D03*
X30480000Y25273000D03*
G04 #@! TD*
G04 #@! TO.C,OSC2*
X30480000Y21717000D03*
X30480000Y19177000D03*
G04 #@! TD*
D15*
G04 #@! TO.C,U1*
X14046200Y20370000D03*
X14046200Y19569999D03*
X14046200Y18770000D03*
X14046200Y17969999D03*
X14046200Y17170001D03*
X14046200Y16370000D03*
X14046200Y15569999D03*
X14046200Y14770001D03*
X14046200Y13970000D03*
X14046200Y13170001D03*
X14046200Y12370000D03*
D16*
X15659600Y10756600D03*
X16459601Y10756600D03*
X17259600Y10756600D03*
X18059601Y10756600D03*
X18859599Y10756600D03*
X19659600Y10756600D03*
X20459601Y10756600D03*
X21259599Y10756600D03*
X22059600Y10756600D03*
X22859599Y10756600D03*
X23659600Y10756600D03*
D15*
X25273000Y12370000D03*
X25273000Y13170001D03*
X25273000Y13970000D03*
X25273000Y14770001D03*
X25273000Y15569999D03*
X25273000Y16370000D03*
X25273000Y17170001D03*
X25273000Y17969999D03*
X25273000Y18770000D03*
X25273000Y19569999D03*
X25273000Y20370000D03*
D16*
X23659600Y21983400D03*
X22859599Y21983400D03*
X22059600Y21983400D03*
X21259599Y21983400D03*
X20459601Y21983400D03*
X19659600Y21983400D03*
X18859599Y21983400D03*
X18059601Y21983400D03*
X17259600Y21983400D03*
X16459601Y21983400D03*
X15659600Y21983400D03*
G04 #@! TD*
D17*
G04 #@! TO.C,*
X19558000Y25400000D03*
D14*
X19558000Y27940000D03*
G04 #@! TD*
D17*
G04 #@! TO.C,Interruptor*
X17018000Y25400000D03*
D14*
X17018000Y27940000D03*
G04 #@! TD*
G04 #@! TO.C,*
X31750000Y2032000D03*
X29210000Y2032000D03*
X26670000Y2032000D03*
X24130000Y2032000D03*
X21590000Y2032000D03*
X19050000Y2032000D03*
X16510000Y2032000D03*
X13970000Y2032000D03*
X11430000Y2032000D03*
X8890000Y2032000D03*
G04 #@! TD*
G04 #@! TO.C,*
X11938000Y31242000D03*
X14478000Y31242000D03*
X17018000Y31242000D03*
X19558000Y31242000D03*
X22098000Y31242000D03*
X24638000Y31242000D03*
X27178000Y31242000D03*
X29718000Y31242000D03*
X32258000Y31242000D03*
X9398000Y31242000D03*
G04 #@! TD*
G04 #@! TO.C,*
X2032000Y3810000D03*
X2032000Y6350000D03*
X2032000Y8890000D03*
X2032000Y11430000D03*
X2032000Y13970000D03*
X2032000Y16510000D03*
X2032000Y19050000D03*
X2032000Y21590000D03*
X2032000Y24130000D03*
X2032000Y26670000D03*
G04 #@! TD*
G04 #@! TO.C,P.UP*
X6223000Y10287000D03*
X6223000Y12827000D03*
G04 #@! TD*
G04 #@! TO.C,PROG*
X24003000Y5080000D03*
X21463000Y5080000D03*
X18923000Y5080000D03*
X16383000Y5080000D03*
X26543000Y5080000D03*
G04 #@! TD*
D10*
G04 #@! TO.C,C3*
G36*
X28800779Y13986734D02*
X28826309Y13982947D01*
X28851345Y13976675D01*
X28875646Y13967980D01*
X28898977Y13956945D01*
X28921115Y13943677D01*
X28941845Y13928302D01*
X28960969Y13910969D01*
X28978302Y13891845D01*
X28993677Y13871115D01*
X29006945Y13848977D01*
X29017980Y13825646D01*
X29026675Y13801345D01*
X29032947Y13776309D01*
X29036734Y13750779D01*
X29038000Y13725000D01*
X29038000Y13199000D01*
X29036734Y13173221D01*
X29032947Y13147691D01*
X29026675Y13122655D01*
X29017980Y13098354D01*
X29006945Y13075023D01*
X28993677Y13052885D01*
X28978302Y13032155D01*
X28960969Y13013031D01*
X28941845Y12995698D01*
X28921115Y12980323D01*
X28898977Y12967055D01*
X28875646Y12956020D01*
X28851345Y12947325D01*
X28826309Y12941053D01*
X28800779Y12937266D01*
X28775000Y12936000D01*
X28149000Y12936000D01*
X28123221Y12937266D01*
X28097691Y12941053D01*
X28072655Y12947325D01*
X28048354Y12956020D01*
X28025023Y12967055D01*
X28002885Y12980323D01*
X27982155Y12995698D01*
X27963031Y13013031D01*
X27945698Y13032155D01*
X27930323Y13052885D01*
X27917055Y13075023D01*
X27906020Y13098354D01*
X27897325Y13122655D01*
X27891053Y13147691D01*
X27887266Y13173221D01*
X27886000Y13199000D01*
X27886000Y13725000D01*
X27887266Y13750779D01*
X27891053Y13776309D01*
X27897325Y13801345D01*
X27906020Y13825646D01*
X27917055Y13848977D01*
X27930323Y13871115D01*
X27945698Y13891845D01*
X27963031Y13910969D01*
X27982155Y13928302D01*
X28002885Y13943677D01*
X28025023Y13956945D01*
X28048354Y13967980D01*
X28072655Y13976675D01*
X28097691Y13982947D01*
X28123221Y13986734D01*
X28149000Y13988000D01*
X28775000Y13988000D01*
X28800779Y13986734D01*
X28800779Y13986734D01*
G37*
D18*
X28462000Y13462000D03*
D10*
G36*
X30550779Y13986734D02*
X30576309Y13982947D01*
X30601345Y13976675D01*
X30625646Y13967980D01*
X30648977Y13956945D01*
X30671115Y13943677D01*
X30691845Y13928302D01*
X30710969Y13910969D01*
X30728302Y13891845D01*
X30743677Y13871115D01*
X30756945Y13848977D01*
X30767980Y13825646D01*
X30776675Y13801345D01*
X30782947Y13776309D01*
X30786734Y13750779D01*
X30788000Y13725000D01*
X30788000Y13199000D01*
X30786734Y13173221D01*
X30782947Y13147691D01*
X30776675Y13122655D01*
X30767980Y13098354D01*
X30756945Y13075023D01*
X30743677Y13052885D01*
X30728302Y13032155D01*
X30710969Y13013031D01*
X30691845Y12995698D01*
X30671115Y12980323D01*
X30648977Y12967055D01*
X30625646Y12956020D01*
X30601345Y12947325D01*
X30576309Y12941053D01*
X30550779Y12937266D01*
X30525000Y12936000D01*
X29899000Y12936000D01*
X29873221Y12937266D01*
X29847691Y12941053D01*
X29822655Y12947325D01*
X29798354Y12956020D01*
X29775023Y12967055D01*
X29752885Y12980323D01*
X29732155Y12995698D01*
X29713031Y13013031D01*
X29695698Y13032155D01*
X29680323Y13052885D01*
X29667055Y13075023D01*
X29656020Y13098354D01*
X29647325Y13122655D01*
X29641053Y13147691D01*
X29637266Y13173221D01*
X29636000Y13199000D01*
X29636000Y13725000D01*
X29637266Y13750779D01*
X29641053Y13776309D01*
X29647325Y13801345D01*
X29656020Y13825646D01*
X29667055Y13848977D01*
X29680323Y13871115D01*
X29695698Y13891845D01*
X29713031Y13910969D01*
X29732155Y13928302D01*
X29752885Y13943677D01*
X29775023Y13956945D01*
X29798354Y13967980D01*
X29822655Y13976675D01*
X29847691Y13982947D01*
X29873221Y13986734D01*
X29899000Y13988000D01*
X30525000Y13988000D01*
X30550779Y13986734D01*
X30550779Y13986734D01*
G37*
D18*
X30212000Y13462000D03*
G04 #@! TD*
D10*
G04 #@! TO.C,C5*
G36*
X33943779Y16209734D02*
X33969309Y16205947D01*
X33994345Y16199675D01*
X34018646Y16190980D01*
X34041977Y16179945D01*
X34064115Y16166677D01*
X34084845Y16151302D01*
X34103969Y16133969D01*
X34121302Y16114845D01*
X34136677Y16094115D01*
X34149945Y16071977D01*
X34160980Y16048646D01*
X34169675Y16024345D01*
X34175947Y15999309D01*
X34179734Y15973779D01*
X34181000Y15948000D01*
X34181000Y15322000D01*
X34179734Y15296221D01*
X34175947Y15270691D01*
X34169675Y15245655D01*
X34160980Y15221354D01*
X34149945Y15198023D01*
X34136677Y15175885D01*
X34121302Y15155155D01*
X34103969Y15136031D01*
X34084845Y15118698D01*
X34064115Y15103323D01*
X34041977Y15090055D01*
X34018646Y15079020D01*
X33994345Y15070325D01*
X33969309Y15064053D01*
X33943779Y15060266D01*
X33918000Y15059000D01*
X33392000Y15059000D01*
X33366221Y15060266D01*
X33340691Y15064053D01*
X33315655Y15070325D01*
X33291354Y15079020D01*
X33268023Y15090055D01*
X33245885Y15103323D01*
X33225155Y15118698D01*
X33206031Y15136031D01*
X33188698Y15155155D01*
X33173323Y15175885D01*
X33160055Y15198023D01*
X33149020Y15221354D01*
X33140325Y15245655D01*
X33134053Y15270691D01*
X33130266Y15296221D01*
X33129000Y15322000D01*
X33129000Y15948000D01*
X33130266Y15973779D01*
X33134053Y15999309D01*
X33140325Y16024345D01*
X33149020Y16048646D01*
X33160055Y16071977D01*
X33173323Y16094115D01*
X33188698Y16114845D01*
X33206031Y16133969D01*
X33225155Y16151302D01*
X33245885Y16166677D01*
X33268023Y16179945D01*
X33291354Y16190980D01*
X33315655Y16199675D01*
X33340691Y16205947D01*
X33366221Y16209734D01*
X33392000Y16211000D01*
X33918000Y16211000D01*
X33943779Y16209734D01*
X33943779Y16209734D01*
G37*
D18*
X33655000Y15635000D03*
D10*
G36*
X33943779Y17959734D02*
X33969309Y17955947D01*
X33994345Y17949675D01*
X34018646Y17940980D01*
X34041977Y17929945D01*
X34064115Y17916677D01*
X34084845Y17901302D01*
X34103969Y17883969D01*
X34121302Y17864845D01*
X34136677Y17844115D01*
X34149945Y17821977D01*
X34160980Y17798646D01*
X34169675Y17774345D01*
X34175947Y17749309D01*
X34179734Y17723779D01*
X34181000Y17698000D01*
X34181000Y17072000D01*
X34179734Y17046221D01*
X34175947Y17020691D01*
X34169675Y16995655D01*
X34160980Y16971354D01*
X34149945Y16948023D01*
X34136677Y16925885D01*
X34121302Y16905155D01*
X34103969Y16886031D01*
X34084845Y16868698D01*
X34064115Y16853323D01*
X34041977Y16840055D01*
X34018646Y16829020D01*
X33994345Y16820325D01*
X33969309Y16814053D01*
X33943779Y16810266D01*
X33918000Y16809000D01*
X33392000Y16809000D01*
X33366221Y16810266D01*
X33340691Y16814053D01*
X33315655Y16820325D01*
X33291354Y16829020D01*
X33268023Y16840055D01*
X33245885Y16853323D01*
X33225155Y16868698D01*
X33206031Y16886031D01*
X33188698Y16905155D01*
X33173323Y16925885D01*
X33160055Y16948023D01*
X33149020Y16971354D01*
X33140325Y16995655D01*
X33134053Y17020691D01*
X33130266Y17046221D01*
X33129000Y17072000D01*
X33129000Y17698000D01*
X33130266Y17723779D01*
X33134053Y17749309D01*
X33140325Y17774345D01*
X33149020Y17798646D01*
X33160055Y17821977D01*
X33173323Y17844115D01*
X33188698Y17864845D01*
X33206031Y17883969D01*
X33225155Y17901302D01*
X33245885Y17916677D01*
X33268023Y17929945D01*
X33291354Y17940980D01*
X33315655Y17949675D01*
X33340691Y17955947D01*
X33366221Y17959734D01*
X33392000Y17961000D01*
X33918000Y17961000D01*
X33943779Y17959734D01*
X33943779Y17959734D01*
G37*
D18*
X33655000Y17385000D03*
G04 #@! TD*
D10*
G04 #@! TO.C, *
G36*
X37118779Y16209734D02*
X37144309Y16205947D01*
X37169345Y16199675D01*
X37193646Y16190980D01*
X37216977Y16179945D01*
X37239115Y16166677D01*
X37259845Y16151302D01*
X37278969Y16133969D01*
X37296302Y16114845D01*
X37311677Y16094115D01*
X37324945Y16071977D01*
X37335980Y16048646D01*
X37344675Y16024345D01*
X37350947Y15999309D01*
X37354734Y15973779D01*
X37356000Y15948000D01*
X37356000Y15322000D01*
X37354734Y15296221D01*
X37350947Y15270691D01*
X37344675Y15245655D01*
X37335980Y15221354D01*
X37324945Y15198023D01*
X37311677Y15175885D01*
X37296302Y15155155D01*
X37278969Y15136031D01*
X37259845Y15118698D01*
X37239115Y15103323D01*
X37216977Y15090055D01*
X37193646Y15079020D01*
X37169345Y15070325D01*
X37144309Y15064053D01*
X37118779Y15060266D01*
X37093000Y15059000D01*
X36567000Y15059000D01*
X36541221Y15060266D01*
X36515691Y15064053D01*
X36490655Y15070325D01*
X36466354Y15079020D01*
X36443023Y15090055D01*
X36420885Y15103323D01*
X36400155Y15118698D01*
X36381031Y15136031D01*
X36363698Y15155155D01*
X36348323Y15175885D01*
X36335055Y15198023D01*
X36324020Y15221354D01*
X36315325Y15245655D01*
X36309053Y15270691D01*
X36305266Y15296221D01*
X36304000Y15322000D01*
X36304000Y15948000D01*
X36305266Y15973779D01*
X36309053Y15999309D01*
X36315325Y16024345D01*
X36324020Y16048646D01*
X36335055Y16071977D01*
X36348323Y16094115D01*
X36363698Y16114845D01*
X36381031Y16133969D01*
X36400155Y16151302D01*
X36420885Y16166677D01*
X36443023Y16179945D01*
X36466354Y16190980D01*
X36490655Y16199675D01*
X36515691Y16205947D01*
X36541221Y16209734D01*
X36567000Y16211000D01*
X37093000Y16211000D01*
X37118779Y16209734D01*
X37118779Y16209734D01*
G37*
D18*
X36830000Y15635000D03*
D10*
G36*
X37118779Y17959734D02*
X37144309Y17955947D01*
X37169345Y17949675D01*
X37193646Y17940980D01*
X37216977Y17929945D01*
X37239115Y17916677D01*
X37259845Y17901302D01*
X37278969Y17883969D01*
X37296302Y17864845D01*
X37311677Y17844115D01*
X37324945Y17821977D01*
X37335980Y17798646D01*
X37344675Y17774345D01*
X37350947Y17749309D01*
X37354734Y17723779D01*
X37356000Y17698000D01*
X37356000Y17072000D01*
X37354734Y17046221D01*
X37350947Y17020691D01*
X37344675Y16995655D01*
X37335980Y16971354D01*
X37324945Y16948023D01*
X37311677Y16925885D01*
X37296302Y16905155D01*
X37278969Y16886031D01*
X37259845Y16868698D01*
X37239115Y16853323D01*
X37216977Y16840055D01*
X37193646Y16829020D01*
X37169345Y16820325D01*
X37144309Y16814053D01*
X37118779Y16810266D01*
X37093000Y16809000D01*
X36567000Y16809000D01*
X36541221Y16810266D01*
X36515691Y16814053D01*
X36490655Y16820325D01*
X36466354Y16829020D01*
X36443023Y16840055D01*
X36420885Y16853323D01*
X36400155Y16868698D01*
X36381031Y16886031D01*
X36363698Y16905155D01*
X36348323Y16925885D01*
X36335055Y16948023D01*
X36324020Y16971354D01*
X36315325Y16995655D01*
X36309053Y17020691D01*
X36305266Y17046221D01*
X36304000Y17072000D01*
X36304000Y17698000D01*
X36305266Y17723779D01*
X36309053Y17749309D01*
X36315325Y17774345D01*
X36324020Y17798646D01*
X36335055Y17821977D01*
X36348323Y17844115D01*
X36363698Y17864845D01*
X36381031Y17883969D01*
X36400155Y17901302D01*
X36420885Y17916677D01*
X36443023Y17929945D01*
X36466354Y17940980D01*
X36490655Y17949675D01*
X36515691Y17955947D01*
X36541221Y17959734D01*
X36567000Y17961000D01*
X37093000Y17961000D01*
X37118779Y17959734D01*
X37118779Y17959734D01*
G37*
D18*
X36830000Y17385000D03*
G04 #@! TD*
D10*
G04 #@! TO.C,C1*
G36*
X8861779Y19955734D02*
X8887309Y19951947D01*
X8912345Y19945675D01*
X8936646Y19936980D01*
X8959977Y19925945D01*
X8982115Y19912677D01*
X9002845Y19897302D01*
X9021969Y19879969D01*
X9039302Y19860845D01*
X9054677Y19840115D01*
X9067945Y19817977D01*
X9078980Y19794646D01*
X9087675Y19770345D01*
X9093947Y19745309D01*
X9097734Y19719779D01*
X9099000Y19694000D01*
X9099000Y19168000D01*
X9097734Y19142221D01*
X9093947Y19116691D01*
X9087675Y19091655D01*
X9078980Y19067354D01*
X9067945Y19044023D01*
X9054677Y19021885D01*
X9039302Y19001155D01*
X9021969Y18982031D01*
X9002845Y18964698D01*
X8982115Y18949323D01*
X8959977Y18936055D01*
X8936646Y18925020D01*
X8912345Y18916325D01*
X8887309Y18910053D01*
X8861779Y18906266D01*
X8836000Y18905000D01*
X8210000Y18905000D01*
X8184221Y18906266D01*
X8158691Y18910053D01*
X8133655Y18916325D01*
X8109354Y18925020D01*
X8086023Y18936055D01*
X8063885Y18949323D01*
X8043155Y18964698D01*
X8024031Y18982031D01*
X8006698Y19001155D01*
X7991323Y19021885D01*
X7978055Y19044023D01*
X7967020Y19067354D01*
X7958325Y19091655D01*
X7952053Y19116691D01*
X7948266Y19142221D01*
X7947000Y19168000D01*
X7947000Y19694000D01*
X7948266Y19719779D01*
X7952053Y19745309D01*
X7958325Y19770345D01*
X7967020Y19794646D01*
X7978055Y19817977D01*
X7991323Y19840115D01*
X8006698Y19860845D01*
X8024031Y19879969D01*
X8043155Y19897302D01*
X8063885Y19912677D01*
X8086023Y19925945D01*
X8109354Y19936980D01*
X8133655Y19945675D01*
X8158691Y19951947D01*
X8184221Y19955734D01*
X8210000Y19957000D01*
X8836000Y19957000D01*
X8861779Y19955734D01*
X8861779Y19955734D01*
G37*
D18*
X8523000Y19431000D03*
D10*
G36*
X10611779Y19955734D02*
X10637309Y19951947D01*
X10662345Y19945675D01*
X10686646Y19936980D01*
X10709977Y19925945D01*
X10732115Y19912677D01*
X10752845Y19897302D01*
X10771969Y19879969D01*
X10789302Y19860845D01*
X10804677Y19840115D01*
X10817945Y19817977D01*
X10828980Y19794646D01*
X10837675Y19770345D01*
X10843947Y19745309D01*
X10847734Y19719779D01*
X10849000Y19694000D01*
X10849000Y19168000D01*
X10847734Y19142221D01*
X10843947Y19116691D01*
X10837675Y19091655D01*
X10828980Y19067354D01*
X10817945Y19044023D01*
X10804677Y19021885D01*
X10789302Y19001155D01*
X10771969Y18982031D01*
X10752845Y18964698D01*
X10732115Y18949323D01*
X10709977Y18936055D01*
X10686646Y18925020D01*
X10662345Y18916325D01*
X10637309Y18910053D01*
X10611779Y18906266D01*
X10586000Y18905000D01*
X9960000Y18905000D01*
X9934221Y18906266D01*
X9908691Y18910053D01*
X9883655Y18916325D01*
X9859354Y18925020D01*
X9836023Y18936055D01*
X9813885Y18949323D01*
X9793155Y18964698D01*
X9774031Y18982031D01*
X9756698Y19001155D01*
X9741323Y19021885D01*
X9728055Y19044023D01*
X9717020Y19067354D01*
X9708325Y19091655D01*
X9702053Y19116691D01*
X9698266Y19142221D01*
X9697000Y19168000D01*
X9697000Y19694000D01*
X9698266Y19719779D01*
X9702053Y19745309D01*
X9708325Y19770345D01*
X9717020Y19794646D01*
X9728055Y19817977D01*
X9741323Y19840115D01*
X9756698Y19860845D01*
X9774031Y19879969D01*
X9793155Y19897302D01*
X9813885Y19912677D01*
X9836023Y19925945D01*
X9859354Y19936980D01*
X9883655Y19945675D01*
X9908691Y19951947D01*
X9934221Y19955734D01*
X9960000Y19957000D01*
X10586000Y19957000D01*
X10611779Y19955734D01*
X10611779Y19955734D01*
G37*
D18*
X10273000Y19431000D03*
G04 #@! TD*
D10*
G04 #@! TO.C,C2*
G36*
X10230779Y17288734D02*
X10256309Y17284947D01*
X10281345Y17278675D01*
X10305646Y17269980D01*
X10328977Y17258945D01*
X10351115Y17245677D01*
X10371845Y17230302D01*
X10390969Y17212969D01*
X10408302Y17193845D01*
X10423677Y17173115D01*
X10436945Y17150977D01*
X10447980Y17127646D01*
X10456675Y17103345D01*
X10462947Y17078309D01*
X10466734Y17052779D01*
X10468000Y17027000D01*
X10468000Y16501000D01*
X10466734Y16475221D01*
X10462947Y16449691D01*
X10456675Y16424655D01*
X10447980Y16400354D01*
X10436945Y16377023D01*
X10423677Y16354885D01*
X10408302Y16334155D01*
X10390969Y16315031D01*
X10371845Y16297698D01*
X10351115Y16282323D01*
X10328977Y16269055D01*
X10305646Y16258020D01*
X10281345Y16249325D01*
X10256309Y16243053D01*
X10230779Y16239266D01*
X10205000Y16238000D01*
X9579000Y16238000D01*
X9553221Y16239266D01*
X9527691Y16243053D01*
X9502655Y16249325D01*
X9478354Y16258020D01*
X9455023Y16269055D01*
X9432885Y16282323D01*
X9412155Y16297698D01*
X9393031Y16315031D01*
X9375698Y16334155D01*
X9360323Y16354885D01*
X9347055Y16377023D01*
X9336020Y16400354D01*
X9327325Y16424655D01*
X9321053Y16449691D01*
X9317266Y16475221D01*
X9316000Y16501000D01*
X9316000Y17027000D01*
X9317266Y17052779D01*
X9321053Y17078309D01*
X9327325Y17103345D01*
X9336020Y17127646D01*
X9347055Y17150977D01*
X9360323Y17173115D01*
X9375698Y17193845D01*
X9393031Y17212969D01*
X9412155Y17230302D01*
X9432885Y17245677D01*
X9455023Y17258945D01*
X9478354Y17269980D01*
X9502655Y17278675D01*
X9527691Y17284947D01*
X9553221Y17288734D01*
X9579000Y17290000D01*
X10205000Y17290000D01*
X10230779Y17288734D01*
X10230779Y17288734D01*
G37*
D18*
X9892000Y16764000D03*
D10*
G36*
X8480779Y17288734D02*
X8506309Y17284947D01*
X8531345Y17278675D01*
X8555646Y17269980D01*
X8578977Y17258945D01*
X8601115Y17245677D01*
X8621845Y17230302D01*
X8640969Y17212969D01*
X8658302Y17193845D01*
X8673677Y17173115D01*
X8686945Y17150977D01*
X8697980Y17127646D01*
X8706675Y17103345D01*
X8712947Y17078309D01*
X8716734Y17052779D01*
X8718000Y17027000D01*
X8718000Y16501000D01*
X8716734Y16475221D01*
X8712947Y16449691D01*
X8706675Y16424655D01*
X8697980Y16400354D01*
X8686945Y16377023D01*
X8673677Y16354885D01*
X8658302Y16334155D01*
X8640969Y16315031D01*
X8621845Y16297698D01*
X8601115Y16282323D01*
X8578977Y16269055D01*
X8555646Y16258020D01*
X8531345Y16249325D01*
X8506309Y16243053D01*
X8480779Y16239266D01*
X8455000Y16238000D01*
X7829000Y16238000D01*
X7803221Y16239266D01*
X7777691Y16243053D01*
X7752655Y16249325D01*
X7728354Y16258020D01*
X7705023Y16269055D01*
X7682885Y16282323D01*
X7662155Y16297698D01*
X7643031Y16315031D01*
X7625698Y16334155D01*
X7610323Y16354885D01*
X7597055Y16377023D01*
X7586020Y16400354D01*
X7577325Y16424655D01*
X7571053Y16449691D01*
X7567266Y16475221D01*
X7566000Y16501000D01*
X7566000Y17027000D01*
X7567266Y17052779D01*
X7571053Y17078309D01*
X7577325Y17103345D01*
X7586020Y17127646D01*
X7597055Y17150977D01*
X7610323Y17173115D01*
X7625698Y17193845D01*
X7643031Y17212969D01*
X7662155Y17230302D01*
X7682885Y17245677D01*
X7705023Y17258945D01*
X7728354Y17269980D01*
X7752655Y17278675D01*
X7777691Y17284947D01*
X7803221Y17288734D01*
X7829000Y17290000D01*
X8455000Y17290000D01*
X8480779Y17288734D01*
X8480779Y17288734D01*
G37*
D18*
X8142000Y16764000D03*
G04 #@! TD*
D10*
G04 #@! TO.C,D1*
G36*
X36448505Y7861689D02*
X36474925Y7857770D01*
X36500835Y7851280D01*
X36525983Y7842282D01*
X36550128Y7830862D01*
X36573038Y7817131D01*
X36594492Y7801220D01*
X36614282Y7783282D01*
X36632220Y7763492D01*
X36648131Y7742038D01*
X36661862Y7719128D01*
X36673282Y7694983D01*
X36682280Y7669835D01*
X36688770Y7643925D01*
X36692689Y7617505D01*
X36694000Y7590827D01*
X36694000Y6633173D01*
X36692689Y6606495D01*
X36688770Y6580075D01*
X36682280Y6554165D01*
X36673282Y6529017D01*
X36661862Y6504872D01*
X36648131Y6481962D01*
X36632220Y6460508D01*
X36614282Y6440718D01*
X36594492Y6422780D01*
X36573038Y6406869D01*
X36550128Y6393138D01*
X36525983Y6381718D01*
X36500835Y6372720D01*
X36474925Y6366230D01*
X36448505Y6362311D01*
X36421827Y6361000D01*
X35714173Y6361000D01*
X35687495Y6362311D01*
X35661075Y6366230D01*
X35635165Y6372720D01*
X35610017Y6381718D01*
X35585872Y6393138D01*
X35562962Y6406869D01*
X35541508Y6422780D01*
X35521718Y6440718D01*
X35503780Y6460508D01*
X35487869Y6481962D01*
X35474138Y6504872D01*
X35462718Y6529017D01*
X35453720Y6554165D01*
X35447230Y6580075D01*
X35443311Y6606495D01*
X35442000Y6633173D01*
X35442000Y7590827D01*
X35443311Y7617505D01*
X35447230Y7643925D01*
X35453720Y7669835D01*
X35462718Y7694983D01*
X35474138Y7719128D01*
X35487869Y7742038D01*
X35503780Y7763492D01*
X35521718Y7783282D01*
X35541508Y7801220D01*
X35562962Y7817131D01*
X35585872Y7830862D01*
X35610017Y7842282D01*
X35635165Y7851280D01*
X35661075Y7857770D01*
X35687495Y7861689D01*
X35714173Y7863000D01*
X36421827Y7863000D01*
X36448505Y7861689D01*
X36448505Y7861689D01*
G37*
D19*
X36068000Y7112000D03*
D10*
G36*
X34398505Y7861689D02*
X34424925Y7857770D01*
X34450835Y7851280D01*
X34475983Y7842282D01*
X34500128Y7830862D01*
X34523038Y7817131D01*
X34544492Y7801220D01*
X34564282Y7783282D01*
X34582220Y7763492D01*
X34598131Y7742038D01*
X34611862Y7719128D01*
X34623282Y7694983D01*
X34632280Y7669835D01*
X34638770Y7643925D01*
X34642689Y7617505D01*
X34644000Y7590827D01*
X34644000Y6633173D01*
X34642689Y6606495D01*
X34638770Y6580075D01*
X34632280Y6554165D01*
X34623282Y6529017D01*
X34611862Y6504872D01*
X34598131Y6481962D01*
X34582220Y6460508D01*
X34564282Y6440718D01*
X34544492Y6422780D01*
X34523038Y6406869D01*
X34500128Y6393138D01*
X34475983Y6381718D01*
X34450835Y6372720D01*
X34424925Y6366230D01*
X34398505Y6362311D01*
X34371827Y6361000D01*
X33664173Y6361000D01*
X33637495Y6362311D01*
X33611075Y6366230D01*
X33585165Y6372720D01*
X33560017Y6381718D01*
X33535872Y6393138D01*
X33512962Y6406869D01*
X33491508Y6422780D01*
X33471718Y6440718D01*
X33453780Y6460508D01*
X33437869Y6481962D01*
X33424138Y6504872D01*
X33412718Y6529017D01*
X33403720Y6554165D01*
X33397230Y6580075D01*
X33393311Y6606495D01*
X33392000Y6633173D01*
X33392000Y7590827D01*
X33393311Y7617505D01*
X33397230Y7643925D01*
X33403720Y7669835D01*
X33412718Y7694983D01*
X33424138Y7719128D01*
X33437869Y7742038D01*
X33453780Y7763492D01*
X33471718Y7783282D01*
X33491508Y7801220D01*
X33512962Y7817131D01*
X33535872Y7830862D01*
X33560017Y7842282D01*
X33585165Y7851280D01*
X33611075Y7857770D01*
X33637495Y7861689D01*
X33664173Y7863000D01*
X34371827Y7863000D01*
X34398505Y7861689D01*
X34398505Y7861689D01*
G37*
D19*
X34018000Y7112000D03*
G04 #@! TD*
D14*
G04 #@! TO.C,Alim*
X25019000Y27813000D03*
D17*
X25019000Y25273000D03*
G04 #@! TD*
D10*
G04 #@! TO.C,R1*
G36*
X9261505Y14338689D02*
X9287925Y14334770D01*
X9313835Y14328280D01*
X9338983Y14319282D01*
X9363128Y14307862D01*
X9386038Y14294131D01*
X9407492Y14278220D01*
X9427282Y14260282D01*
X9445220Y14240492D01*
X9461131Y14219038D01*
X9474862Y14196128D01*
X9486282Y14171983D01*
X9495280Y14146835D01*
X9501770Y14120925D01*
X9505689Y14094505D01*
X9507000Y14067827D01*
X9507000Y13110173D01*
X9505689Y13083495D01*
X9501770Y13057075D01*
X9495280Y13031165D01*
X9486282Y13006017D01*
X9474862Y12981872D01*
X9461131Y12958962D01*
X9445220Y12937508D01*
X9427282Y12917718D01*
X9407492Y12899780D01*
X9386038Y12883869D01*
X9363128Y12870138D01*
X9338983Y12858718D01*
X9313835Y12849720D01*
X9287925Y12843230D01*
X9261505Y12839311D01*
X9234827Y12838000D01*
X8527173Y12838000D01*
X8500495Y12839311D01*
X8474075Y12843230D01*
X8448165Y12849720D01*
X8423017Y12858718D01*
X8398872Y12870138D01*
X8375962Y12883869D01*
X8354508Y12899780D01*
X8334718Y12917718D01*
X8316780Y12937508D01*
X8300869Y12958962D01*
X8287138Y12981872D01*
X8275718Y13006017D01*
X8266720Y13031165D01*
X8260230Y13057075D01*
X8256311Y13083495D01*
X8255000Y13110173D01*
X8255000Y14067827D01*
X8256311Y14094505D01*
X8260230Y14120925D01*
X8266720Y14146835D01*
X8275718Y14171983D01*
X8287138Y14196128D01*
X8300869Y14219038D01*
X8316780Y14240492D01*
X8334718Y14260282D01*
X8354508Y14278220D01*
X8375962Y14294131D01*
X8398872Y14307862D01*
X8423017Y14319282D01*
X8448165Y14328280D01*
X8474075Y14334770D01*
X8500495Y14338689D01*
X8527173Y14340000D01*
X9234827Y14340000D01*
X9261505Y14338689D01*
X9261505Y14338689D01*
G37*
D19*
X8881000Y13589000D03*
D10*
G36*
X11311505Y14338689D02*
X11337925Y14334770D01*
X11363835Y14328280D01*
X11388983Y14319282D01*
X11413128Y14307862D01*
X11436038Y14294131D01*
X11457492Y14278220D01*
X11477282Y14260282D01*
X11495220Y14240492D01*
X11511131Y14219038D01*
X11524862Y14196128D01*
X11536282Y14171983D01*
X11545280Y14146835D01*
X11551770Y14120925D01*
X11555689Y14094505D01*
X11557000Y14067827D01*
X11557000Y13110173D01*
X11555689Y13083495D01*
X11551770Y13057075D01*
X11545280Y13031165D01*
X11536282Y13006017D01*
X11524862Y12981872D01*
X11511131Y12958962D01*
X11495220Y12937508D01*
X11477282Y12917718D01*
X11457492Y12899780D01*
X11436038Y12883869D01*
X11413128Y12870138D01*
X11388983Y12858718D01*
X11363835Y12849720D01*
X11337925Y12843230D01*
X11311505Y12839311D01*
X11284827Y12838000D01*
X10577173Y12838000D01*
X10550495Y12839311D01*
X10524075Y12843230D01*
X10498165Y12849720D01*
X10473017Y12858718D01*
X10448872Y12870138D01*
X10425962Y12883869D01*
X10404508Y12899780D01*
X10384718Y12917718D01*
X10366780Y12937508D01*
X10350869Y12958962D01*
X10337138Y12981872D01*
X10325718Y13006017D01*
X10316720Y13031165D01*
X10310230Y13057075D01*
X10306311Y13083495D01*
X10305000Y13110173D01*
X10305000Y14067827D01*
X10306311Y14094505D01*
X10310230Y14120925D01*
X10316720Y14146835D01*
X10325718Y14171983D01*
X10337138Y14196128D01*
X10350869Y14219038D01*
X10366780Y14240492D01*
X10384718Y14260282D01*
X10404508Y14278220D01*
X10425962Y14294131D01*
X10448872Y14307862D01*
X10473017Y14319282D01*
X10498165Y14328280D01*
X10524075Y14334770D01*
X10550495Y14338689D01*
X10577173Y14340000D01*
X11284827Y14340000D01*
X11311505Y14338689D01*
X11311505Y14338689D01*
G37*
D19*
X10931000Y13589000D03*
G04 #@! TD*
D10*
G04 #@! TO.C,R2*
G36*
X29200505Y7734689D02*
X29226925Y7730770D01*
X29252835Y7724280D01*
X29277983Y7715282D01*
X29302128Y7703862D01*
X29325038Y7690131D01*
X29346492Y7674220D01*
X29366282Y7656282D01*
X29384220Y7636492D01*
X29400131Y7615038D01*
X29413862Y7592128D01*
X29425282Y7567983D01*
X29434280Y7542835D01*
X29440770Y7516925D01*
X29444689Y7490505D01*
X29446000Y7463827D01*
X29446000Y6506173D01*
X29444689Y6479495D01*
X29440770Y6453075D01*
X29434280Y6427165D01*
X29425282Y6402017D01*
X29413862Y6377872D01*
X29400131Y6354962D01*
X29384220Y6333508D01*
X29366282Y6313718D01*
X29346492Y6295780D01*
X29325038Y6279869D01*
X29302128Y6266138D01*
X29277983Y6254718D01*
X29252835Y6245720D01*
X29226925Y6239230D01*
X29200505Y6235311D01*
X29173827Y6234000D01*
X28466173Y6234000D01*
X28439495Y6235311D01*
X28413075Y6239230D01*
X28387165Y6245720D01*
X28362017Y6254718D01*
X28337872Y6266138D01*
X28314962Y6279869D01*
X28293508Y6295780D01*
X28273718Y6313718D01*
X28255780Y6333508D01*
X28239869Y6354962D01*
X28226138Y6377872D01*
X28214718Y6402017D01*
X28205720Y6427165D01*
X28199230Y6453075D01*
X28195311Y6479495D01*
X28194000Y6506173D01*
X28194000Y7463827D01*
X28195311Y7490505D01*
X28199230Y7516925D01*
X28205720Y7542835D01*
X28214718Y7567983D01*
X28226138Y7592128D01*
X28239869Y7615038D01*
X28255780Y7636492D01*
X28273718Y7656282D01*
X28293508Y7674220D01*
X28314962Y7690131D01*
X28337872Y7703862D01*
X28362017Y7715282D01*
X28387165Y7724280D01*
X28413075Y7730770D01*
X28439495Y7734689D01*
X28466173Y7736000D01*
X29173827Y7736000D01*
X29200505Y7734689D01*
X29200505Y7734689D01*
G37*
D19*
X28820000Y6985000D03*
D10*
G36*
X31250505Y7734689D02*
X31276925Y7730770D01*
X31302835Y7724280D01*
X31327983Y7715282D01*
X31352128Y7703862D01*
X31375038Y7690131D01*
X31396492Y7674220D01*
X31416282Y7656282D01*
X31434220Y7636492D01*
X31450131Y7615038D01*
X31463862Y7592128D01*
X31475282Y7567983D01*
X31484280Y7542835D01*
X31490770Y7516925D01*
X31494689Y7490505D01*
X31496000Y7463827D01*
X31496000Y6506173D01*
X31494689Y6479495D01*
X31490770Y6453075D01*
X31484280Y6427165D01*
X31475282Y6402017D01*
X31463862Y6377872D01*
X31450131Y6354962D01*
X31434220Y6333508D01*
X31416282Y6313718D01*
X31396492Y6295780D01*
X31375038Y6279869D01*
X31352128Y6266138D01*
X31327983Y6254718D01*
X31302835Y6245720D01*
X31276925Y6239230D01*
X31250505Y6235311D01*
X31223827Y6234000D01*
X30516173Y6234000D01*
X30489495Y6235311D01*
X30463075Y6239230D01*
X30437165Y6245720D01*
X30412017Y6254718D01*
X30387872Y6266138D01*
X30364962Y6279869D01*
X30343508Y6295780D01*
X30323718Y6313718D01*
X30305780Y6333508D01*
X30289869Y6354962D01*
X30276138Y6377872D01*
X30264718Y6402017D01*
X30255720Y6427165D01*
X30249230Y6453075D01*
X30245311Y6479495D01*
X30244000Y6506173D01*
X30244000Y7463827D01*
X30245311Y7490505D01*
X30249230Y7516925D01*
X30255720Y7542835D01*
X30264718Y7567983D01*
X30276138Y7592128D01*
X30289869Y7615038D01*
X30305780Y7636492D01*
X30323718Y7656282D01*
X30343508Y7674220D01*
X30364962Y7690131D01*
X30387872Y7703862D01*
X30412017Y7715282D01*
X30437165Y7724280D01*
X30463075Y7730770D01*
X30489495Y7734689D01*
X30516173Y7736000D01*
X31223827Y7736000D01*
X31250505Y7734689D01*
X31250505Y7734689D01*
G37*
D19*
X30870000Y6985000D03*
G04 #@! TD*
D10*
G04 #@! TO.C,R3*
G36*
X11438505Y12052689D02*
X11464925Y12048770D01*
X11490835Y12042280D01*
X11515983Y12033282D01*
X11540128Y12021862D01*
X11563038Y12008131D01*
X11584492Y11992220D01*
X11604282Y11974282D01*
X11622220Y11954492D01*
X11638131Y11933038D01*
X11651862Y11910128D01*
X11663282Y11885983D01*
X11672280Y11860835D01*
X11678770Y11834925D01*
X11682689Y11808505D01*
X11684000Y11781827D01*
X11684000Y10824173D01*
X11682689Y10797495D01*
X11678770Y10771075D01*
X11672280Y10745165D01*
X11663282Y10720017D01*
X11651862Y10695872D01*
X11638131Y10672962D01*
X11622220Y10651508D01*
X11604282Y10631718D01*
X11584492Y10613780D01*
X11563038Y10597869D01*
X11540128Y10584138D01*
X11515983Y10572718D01*
X11490835Y10563720D01*
X11464925Y10557230D01*
X11438505Y10553311D01*
X11411827Y10552000D01*
X10704173Y10552000D01*
X10677495Y10553311D01*
X10651075Y10557230D01*
X10625165Y10563720D01*
X10600017Y10572718D01*
X10575872Y10584138D01*
X10552962Y10597869D01*
X10531508Y10613780D01*
X10511718Y10631718D01*
X10493780Y10651508D01*
X10477869Y10672962D01*
X10464138Y10695872D01*
X10452718Y10720017D01*
X10443720Y10745165D01*
X10437230Y10771075D01*
X10433311Y10797495D01*
X10432000Y10824173D01*
X10432000Y11781827D01*
X10433311Y11808505D01*
X10437230Y11834925D01*
X10443720Y11860835D01*
X10452718Y11885983D01*
X10464138Y11910128D01*
X10477869Y11933038D01*
X10493780Y11954492D01*
X10511718Y11974282D01*
X10531508Y11992220D01*
X10552962Y12008131D01*
X10575872Y12021862D01*
X10600017Y12033282D01*
X10625165Y12042280D01*
X10651075Y12048770D01*
X10677495Y12052689D01*
X10704173Y12054000D01*
X11411827Y12054000D01*
X11438505Y12052689D01*
X11438505Y12052689D01*
G37*
D19*
X11058000Y11303000D03*
D10*
G36*
X9388505Y12052689D02*
X9414925Y12048770D01*
X9440835Y12042280D01*
X9465983Y12033282D01*
X9490128Y12021862D01*
X9513038Y12008131D01*
X9534492Y11992220D01*
X9554282Y11974282D01*
X9572220Y11954492D01*
X9588131Y11933038D01*
X9601862Y11910128D01*
X9613282Y11885983D01*
X9622280Y11860835D01*
X9628770Y11834925D01*
X9632689Y11808505D01*
X9634000Y11781827D01*
X9634000Y10824173D01*
X9632689Y10797495D01*
X9628770Y10771075D01*
X9622280Y10745165D01*
X9613282Y10720017D01*
X9601862Y10695872D01*
X9588131Y10672962D01*
X9572220Y10651508D01*
X9554282Y10631718D01*
X9534492Y10613780D01*
X9513038Y10597869D01*
X9490128Y10584138D01*
X9465983Y10572718D01*
X9440835Y10563720D01*
X9414925Y10557230D01*
X9388505Y10553311D01*
X9361827Y10552000D01*
X8654173Y10552000D01*
X8627495Y10553311D01*
X8601075Y10557230D01*
X8575165Y10563720D01*
X8550017Y10572718D01*
X8525872Y10584138D01*
X8502962Y10597869D01*
X8481508Y10613780D01*
X8461718Y10631718D01*
X8443780Y10651508D01*
X8427869Y10672962D01*
X8414138Y10695872D01*
X8402718Y10720017D01*
X8393720Y10745165D01*
X8387230Y10771075D01*
X8383311Y10797495D01*
X8382000Y10824173D01*
X8382000Y11781827D01*
X8383311Y11808505D01*
X8387230Y11834925D01*
X8393720Y11860835D01*
X8402718Y11885983D01*
X8414138Y11910128D01*
X8427869Y11933038D01*
X8443780Y11954492D01*
X8461718Y11974282D01*
X8481508Y11992220D01*
X8502962Y12008131D01*
X8525872Y12021862D01*
X8550017Y12033282D01*
X8575165Y12042280D01*
X8601075Y12048770D01*
X8627495Y12052689D01*
X8654173Y12054000D01*
X9361827Y12054000D01*
X9388505Y12052689D01*
X9388505Y12052689D01*
G37*
D19*
X9008000Y11303000D03*
G04 #@! TD*
D10*
G04 #@! TO.C,R4*
G36*
X9261505Y9766689D02*
X9287925Y9762770D01*
X9313835Y9756280D01*
X9338983Y9747282D01*
X9363128Y9735862D01*
X9386038Y9722131D01*
X9407492Y9706220D01*
X9427282Y9688282D01*
X9445220Y9668492D01*
X9461131Y9647038D01*
X9474862Y9624128D01*
X9486282Y9599983D01*
X9495280Y9574835D01*
X9501770Y9548925D01*
X9505689Y9522505D01*
X9507000Y9495827D01*
X9507000Y8538173D01*
X9505689Y8511495D01*
X9501770Y8485075D01*
X9495280Y8459165D01*
X9486282Y8434017D01*
X9474862Y8409872D01*
X9461131Y8386962D01*
X9445220Y8365508D01*
X9427282Y8345718D01*
X9407492Y8327780D01*
X9386038Y8311869D01*
X9363128Y8298138D01*
X9338983Y8286718D01*
X9313835Y8277720D01*
X9287925Y8271230D01*
X9261505Y8267311D01*
X9234827Y8266000D01*
X8527173Y8266000D01*
X8500495Y8267311D01*
X8474075Y8271230D01*
X8448165Y8277720D01*
X8423017Y8286718D01*
X8398872Y8298138D01*
X8375962Y8311869D01*
X8354508Y8327780D01*
X8334718Y8345718D01*
X8316780Y8365508D01*
X8300869Y8386962D01*
X8287138Y8409872D01*
X8275718Y8434017D01*
X8266720Y8459165D01*
X8260230Y8485075D01*
X8256311Y8511495D01*
X8255000Y8538173D01*
X8255000Y9495827D01*
X8256311Y9522505D01*
X8260230Y9548925D01*
X8266720Y9574835D01*
X8275718Y9599983D01*
X8287138Y9624128D01*
X8300869Y9647038D01*
X8316780Y9668492D01*
X8334718Y9688282D01*
X8354508Y9706220D01*
X8375962Y9722131D01*
X8398872Y9735862D01*
X8423017Y9747282D01*
X8448165Y9756280D01*
X8474075Y9762770D01*
X8500495Y9766689D01*
X8527173Y9768000D01*
X9234827Y9768000D01*
X9261505Y9766689D01*
X9261505Y9766689D01*
G37*
D19*
X8881000Y9017000D03*
D10*
G36*
X11311505Y9766689D02*
X11337925Y9762770D01*
X11363835Y9756280D01*
X11388983Y9747282D01*
X11413128Y9735862D01*
X11436038Y9722131D01*
X11457492Y9706220D01*
X11477282Y9688282D01*
X11495220Y9668492D01*
X11511131Y9647038D01*
X11524862Y9624128D01*
X11536282Y9599983D01*
X11545280Y9574835D01*
X11551770Y9548925D01*
X11555689Y9522505D01*
X11557000Y9495827D01*
X11557000Y8538173D01*
X11555689Y8511495D01*
X11551770Y8485075D01*
X11545280Y8459165D01*
X11536282Y8434017D01*
X11524862Y8409872D01*
X11511131Y8386962D01*
X11495220Y8365508D01*
X11477282Y8345718D01*
X11457492Y8327780D01*
X11436038Y8311869D01*
X11413128Y8298138D01*
X11388983Y8286718D01*
X11363835Y8277720D01*
X11337925Y8271230D01*
X11311505Y8267311D01*
X11284827Y8266000D01*
X10577173Y8266000D01*
X10550495Y8267311D01*
X10524075Y8271230D01*
X10498165Y8277720D01*
X10473017Y8286718D01*
X10448872Y8298138D01*
X10425962Y8311869D01*
X10404508Y8327780D01*
X10384718Y8345718D01*
X10366780Y8365508D01*
X10350869Y8386962D01*
X10337138Y8409872D01*
X10325718Y8434017D01*
X10316720Y8459165D01*
X10310230Y8485075D01*
X10306311Y8511495D01*
X10305000Y8538173D01*
X10305000Y9495827D01*
X10306311Y9522505D01*
X10310230Y9548925D01*
X10316720Y9574835D01*
X10325718Y9599983D01*
X10337138Y9624128D01*
X10350869Y9647038D01*
X10366780Y9668492D01*
X10384718Y9688282D01*
X10404508Y9706220D01*
X10425962Y9722131D01*
X10448872Y9735862D01*
X10473017Y9747282D01*
X10498165Y9756280D01*
X10524075Y9762770D01*
X10550495Y9766689D01*
X10577173Y9768000D01*
X11284827Y9768000D01*
X11311505Y9766689D01*
X11311505Y9766689D01*
G37*
D19*
X10931000Y9017000D03*
G04 #@! TD*
D10*
G04 #@! TO.C,R5*
G36*
X11429505Y7226689D02*
X11455925Y7222770D01*
X11481835Y7216280D01*
X11506983Y7207282D01*
X11531128Y7195862D01*
X11554038Y7182131D01*
X11575492Y7166220D01*
X11595282Y7148282D01*
X11613220Y7128492D01*
X11629131Y7107038D01*
X11642862Y7084128D01*
X11654282Y7059983D01*
X11663280Y7034835D01*
X11669770Y7008925D01*
X11673689Y6982505D01*
X11675000Y6955827D01*
X11675000Y5998173D01*
X11673689Y5971495D01*
X11669770Y5945075D01*
X11663280Y5919165D01*
X11654282Y5894017D01*
X11642862Y5869872D01*
X11629131Y5846962D01*
X11613220Y5825508D01*
X11595282Y5805718D01*
X11575492Y5787780D01*
X11554038Y5771869D01*
X11531128Y5758138D01*
X11506983Y5746718D01*
X11481835Y5737720D01*
X11455925Y5731230D01*
X11429505Y5727311D01*
X11402827Y5726000D01*
X10695173Y5726000D01*
X10668495Y5727311D01*
X10642075Y5731230D01*
X10616165Y5737720D01*
X10591017Y5746718D01*
X10566872Y5758138D01*
X10543962Y5771869D01*
X10522508Y5787780D01*
X10502718Y5805718D01*
X10484780Y5825508D01*
X10468869Y5846962D01*
X10455138Y5869872D01*
X10443718Y5894017D01*
X10434720Y5919165D01*
X10428230Y5945075D01*
X10424311Y5971495D01*
X10423000Y5998173D01*
X10423000Y6955827D01*
X10424311Y6982505D01*
X10428230Y7008925D01*
X10434720Y7034835D01*
X10443718Y7059983D01*
X10455138Y7084128D01*
X10468869Y7107038D01*
X10484780Y7128492D01*
X10502718Y7148282D01*
X10522508Y7166220D01*
X10543962Y7182131D01*
X10566872Y7195862D01*
X10591017Y7207282D01*
X10616165Y7216280D01*
X10642075Y7222770D01*
X10668495Y7226689D01*
X10695173Y7228000D01*
X11402827Y7228000D01*
X11429505Y7226689D01*
X11429505Y7226689D01*
G37*
D19*
X11049000Y6477000D03*
D10*
G36*
X9379505Y7226689D02*
X9405925Y7222770D01*
X9431835Y7216280D01*
X9456983Y7207282D01*
X9481128Y7195862D01*
X9504038Y7182131D01*
X9525492Y7166220D01*
X9545282Y7148282D01*
X9563220Y7128492D01*
X9579131Y7107038D01*
X9592862Y7084128D01*
X9604282Y7059983D01*
X9613280Y7034835D01*
X9619770Y7008925D01*
X9623689Y6982505D01*
X9625000Y6955827D01*
X9625000Y5998173D01*
X9623689Y5971495D01*
X9619770Y5945075D01*
X9613280Y5919165D01*
X9604282Y5894017D01*
X9592862Y5869872D01*
X9579131Y5846962D01*
X9563220Y5825508D01*
X9545282Y5805718D01*
X9525492Y5787780D01*
X9504038Y5771869D01*
X9481128Y5758138D01*
X9456983Y5746718D01*
X9431835Y5737720D01*
X9405925Y5731230D01*
X9379505Y5727311D01*
X9352827Y5726000D01*
X8645173Y5726000D01*
X8618495Y5727311D01*
X8592075Y5731230D01*
X8566165Y5737720D01*
X8541017Y5746718D01*
X8516872Y5758138D01*
X8493962Y5771869D01*
X8472508Y5787780D01*
X8452718Y5805718D01*
X8434780Y5825508D01*
X8418869Y5846962D01*
X8405138Y5869872D01*
X8393718Y5894017D01*
X8384720Y5919165D01*
X8378230Y5945075D01*
X8374311Y5971495D01*
X8373000Y5998173D01*
X8373000Y6955827D01*
X8374311Y6982505D01*
X8378230Y7008925D01*
X8384720Y7034835D01*
X8393718Y7059983D01*
X8405138Y7084128D01*
X8418869Y7107038D01*
X8434780Y7128492D01*
X8452718Y7148282D01*
X8472508Y7166220D01*
X8493962Y7182131D01*
X8516872Y7195862D01*
X8541017Y7207282D01*
X8566165Y7216280D01*
X8592075Y7222770D01*
X8618495Y7226689D01*
X8645173Y7228000D01*
X9352827Y7228000D01*
X9379505Y7226689D01*
X9379505Y7226689D01*
G37*
D19*
X8999000Y6477000D03*
G04 #@! TD*
D10*
G04 #@! TO.C,R7*
G36*
X34425505Y14338689D02*
X34451925Y14334770D01*
X34477835Y14328280D01*
X34502983Y14319282D01*
X34527128Y14307862D01*
X34550038Y14294131D01*
X34571492Y14278220D01*
X34591282Y14260282D01*
X34609220Y14240492D01*
X34625131Y14219038D01*
X34638862Y14196128D01*
X34650282Y14171983D01*
X34659280Y14146835D01*
X34665770Y14120925D01*
X34669689Y14094505D01*
X34671000Y14067827D01*
X34671000Y13110173D01*
X34669689Y13083495D01*
X34665770Y13057075D01*
X34659280Y13031165D01*
X34650282Y13006017D01*
X34638862Y12981872D01*
X34625131Y12958962D01*
X34609220Y12937508D01*
X34591282Y12917718D01*
X34571492Y12899780D01*
X34550038Y12883869D01*
X34527128Y12870138D01*
X34502983Y12858718D01*
X34477835Y12849720D01*
X34451925Y12843230D01*
X34425505Y12839311D01*
X34398827Y12838000D01*
X33691173Y12838000D01*
X33664495Y12839311D01*
X33638075Y12843230D01*
X33612165Y12849720D01*
X33587017Y12858718D01*
X33562872Y12870138D01*
X33539962Y12883869D01*
X33518508Y12899780D01*
X33498718Y12917718D01*
X33480780Y12937508D01*
X33464869Y12958962D01*
X33451138Y12981872D01*
X33439718Y13006017D01*
X33430720Y13031165D01*
X33424230Y13057075D01*
X33420311Y13083495D01*
X33419000Y13110173D01*
X33419000Y14067827D01*
X33420311Y14094505D01*
X33424230Y14120925D01*
X33430720Y14146835D01*
X33439718Y14171983D01*
X33451138Y14196128D01*
X33464869Y14219038D01*
X33480780Y14240492D01*
X33498718Y14260282D01*
X33518508Y14278220D01*
X33539962Y14294131D01*
X33562872Y14307862D01*
X33587017Y14319282D01*
X33612165Y14328280D01*
X33638075Y14334770D01*
X33664495Y14338689D01*
X33691173Y14340000D01*
X34398827Y14340000D01*
X34425505Y14338689D01*
X34425505Y14338689D01*
G37*
D19*
X34045000Y13589000D03*
D10*
G36*
X32375505Y14338689D02*
X32401925Y14334770D01*
X32427835Y14328280D01*
X32452983Y14319282D01*
X32477128Y14307862D01*
X32500038Y14294131D01*
X32521492Y14278220D01*
X32541282Y14260282D01*
X32559220Y14240492D01*
X32575131Y14219038D01*
X32588862Y14196128D01*
X32600282Y14171983D01*
X32609280Y14146835D01*
X32615770Y14120925D01*
X32619689Y14094505D01*
X32621000Y14067827D01*
X32621000Y13110173D01*
X32619689Y13083495D01*
X32615770Y13057075D01*
X32609280Y13031165D01*
X32600282Y13006017D01*
X32588862Y12981872D01*
X32575131Y12958962D01*
X32559220Y12937508D01*
X32541282Y12917718D01*
X32521492Y12899780D01*
X32500038Y12883869D01*
X32477128Y12870138D01*
X32452983Y12858718D01*
X32427835Y12849720D01*
X32401925Y12843230D01*
X32375505Y12839311D01*
X32348827Y12838000D01*
X31641173Y12838000D01*
X31614495Y12839311D01*
X31588075Y12843230D01*
X31562165Y12849720D01*
X31537017Y12858718D01*
X31512872Y12870138D01*
X31489962Y12883869D01*
X31468508Y12899780D01*
X31448718Y12917718D01*
X31430780Y12937508D01*
X31414869Y12958962D01*
X31401138Y12981872D01*
X31389718Y13006017D01*
X31380720Y13031165D01*
X31374230Y13057075D01*
X31370311Y13083495D01*
X31369000Y13110173D01*
X31369000Y14067827D01*
X31370311Y14094505D01*
X31374230Y14120925D01*
X31380720Y14146835D01*
X31389718Y14171983D01*
X31401138Y14196128D01*
X31414869Y14219038D01*
X31430780Y14240492D01*
X31448718Y14260282D01*
X31468508Y14278220D01*
X31489962Y14294131D01*
X31512872Y14307862D01*
X31537017Y14319282D01*
X31562165Y14328280D01*
X31588075Y14334770D01*
X31614495Y14338689D01*
X31641173Y14340000D01*
X32348827Y14340000D01*
X32375505Y14338689D01*
X32375505Y14338689D01*
G37*
D19*
X31995000Y13589000D03*
G04 #@! TD*
D20*
G04 #@! TO.C,RESET*
X33781000Y10287000D03*
X27051000Y10287000D03*
G04 #@! TD*
D21*
G04 #@! TO.C,U2*
X5334000Y25019000D03*
D22*
X11634000Y25019000D03*
X11634000Y27319000D03*
X11634000Y22719000D03*
G04 #@! TD*
D23*
G04 #@! TO.C,Y1*
X34671000Y25908000D03*
X34671000Y21028000D03*
G04 #@! TD*
M02*
