M48
;DRILL file {KiCad (5.0.2)-1} date 14/07/2019 21:05:10
;FORMAT={-:-/ absolute / inch / decimal}
FMAT,2
INCH,TZ
T1C0.0157
T2C0.0315
T3C0.0394
%
G90
G05
T1
X0.205Y0.975
X0.3206Y0.66
X0.3356Y0.765
X0.3894Y0.66
X0.4044Y0.765
X0.43Y0.54
X0.435Y0.255
X0.44Y0.45
X0.44Y0.35
X0.46Y1.075
X0.465Y0.985
X0.475Y0.89
X0.485Y0.655
X0.49Y0.55
X0.5261Y0.9639
X0.535Y0.88
X0.58Y0.86
X0.61Y0.52
X0.6105Y0.4801
X0.6153Y0.5664
X0.63Y0.65
X0.6493Y0.5182
X0.6788Y0.7988
X0.7063Y0.6051
X0.83Y0.345
X0.905Y0.64
X0.905Y0.49
X0.915Y0.795
X0.92Y1.135
X0.92Y0.3
X0.9253Y0.6738
X0.97Y0.355
X1.035Y0.4507
X1.04Y0.395
X1.065Y0.5
X1.07Y0.78
X1.07Y0.55
X1.095Y0.885
X1.19Y0.53
X1.325Y0.615
X1.33Y0.405
X1.34Y0.535
X1.385Y0.61
X1.45Y0.685
X1.5Y0.545
T2
X1.365Y1.02
X1.365Y0.8279
T3
X0.67Y1.1
X0.67Y1.
X0.08Y1.05
X0.08Y0.95
X0.08Y0.85
X0.08Y0.75
X0.08Y0.65
X0.08Y0.55
X0.08Y0.45
X0.08Y0.35
X0.08Y0.25
X0.08Y0.15
X0.37Y1.23
X0.47Y1.23
X0.57Y1.23
X0.67Y1.23
X0.77Y1.23
X0.87Y1.23
X0.97Y1.23
X1.07Y1.23
X1.17Y1.23
X1.27Y1.23
X0.645Y0.2
X0.745Y0.2
X0.845Y0.2
X0.945Y0.2
X1.045Y0.2
X1.575Y1.075
X1.575Y0.975
X1.575Y0.875
X1.575Y0.775
X1.575Y0.675
X1.575Y0.575
X1.575Y0.475
X1.575Y0.375
X1.575Y0.275
X1.575Y0.175
X1.2Y0.855
X1.2Y0.755
X0.985Y1.095
X0.985Y0.995
X0.77Y1.1
X0.77Y1.
X1.2Y1.095
X1.2Y0.995
X0.245Y0.505
X0.245Y0.405
X0.35Y0.08
X0.45Y0.08
X0.55Y0.08
X0.65Y0.08
X0.75Y0.08
X0.85Y0.08
X0.95Y0.08
X1.05Y0.08
X1.15Y0.08
X1.25Y0.08
T0
M30
