G04 #@! TF.GenerationSoftware,KiCad,Pcbnew,(5.0.2)-1*
G04 #@! TF.CreationDate,2019-07-14T21:05:42+02:00*
G04 #@! TF.ProjectId,Rosatron,526f7361-7472-46f6-9e2e-6b696361645f,rev?*
G04 #@! TF.SameCoordinates,PX4c8bb40PY4eb9cf0*
G04 #@! TF.FileFunction,Copper,L1,Top*
G04 #@! TF.FilePolarity,Positive*
%FSLAX46Y46*%
G04 Gerber Fmt 4.6, Leading zero omitted, Abs format (unit mm)*
G04 Created by KiCad (PCBNEW (5.0.2)-1) date 14/07/2019 21:05:42*
%MOMM*%
%LPD*%
G01*
G04 APERTURE LIST*
G04 #@! TA.AperFunction,ComponentPad*
%ADD10O,1.700000X1.700000*%
G04 #@! TD*
G04 #@! TA.AperFunction,SMDPad,CuDef*
%ADD11R,1.473200X0.508000*%
G04 #@! TD*
G04 #@! TA.AperFunction,SMDPad,CuDef*
%ADD12R,0.508000X1.473200*%
G04 #@! TD*
G04 #@! TA.AperFunction,ComponentPad*
%ADD13R,1.700000X1.700000*%
G04 #@! TD*
G04 #@! TA.AperFunction,Conductor*
%ADD14C,0.100000*%
G04 #@! TD*
G04 #@! TA.AperFunction,SMDPad,CuDef*
%ADD15C,0.950000*%
G04 #@! TD*
G04 #@! TA.AperFunction,SMDPad,CuDef*
%ADD16C,1.150000*%
G04 #@! TD*
G04 #@! TA.AperFunction,SMDPad,CuDef*
%ADD17R,2.160000X1.120000*%
G04 #@! TD*
G04 #@! TA.AperFunction,SMDPad,CuDef*
%ADD18R,2.000000X3.800000*%
G04 #@! TD*
G04 #@! TA.AperFunction,SMDPad,CuDef*
%ADD19R,2.000000X1.500000*%
G04 #@! TD*
G04 #@! TA.AperFunction,ComponentPad*
%ADD20C,1.500000*%
G04 #@! TD*
G04 #@! TA.AperFunction,ViaPad*
%ADD21C,0.800000*%
G04 #@! TD*
G04 #@! TA.AperFunction,Conductor*
%ADD22C,0.250000*%
G04 #@! TD*
G04 #@! TA.AperFunction,Conductor*
%ADD23C,0.254000*%
G04 #@! TD*
G04 APERTURE END LIST*
D10*
G04 #@! TO.P,,10*
G04 #@! TO.N,/RA4*
X40005000Y4445000D03*
G04 #@! TO.P,,9*
G04 #@! TO.N,/RA5*
X40005000Y6985000D03*
G04 #@! TO.P,,8*
G04 #@! TO.N,/RE0*
X40005000Y9525000D03*
G04 #@! TO.P,,7*
G04 #@! TO.N,/RE1*
X40005000Y12065000D03*
G04 #@! TO.P,,6*
G04 #@! TO.N,/RE2*
X40005000Y14605000D03*
G04 #@! TO.P,,5*
G04 #@! TO.N,Earth*
X40005000Y17145000D03*
G04 #@! TO.P,,4*
G04 #@! TO.N,+5V*
X40005000Y19685000D03*
G04 #@! TO.P,,3*
G04 #@! TO.N,/RA7*
X40005000Y22225000D03*
G04 #@! TO.P,,2*
G04 #@! TO.N,/RA6*
X40005000Y24765000D03*
G04 #@! TO.P,,1*
G04 #@! TO.N,/RC0*
X40005000Y27305000D03*
G04 #@! TD*
G04 #@! TO.P,OSC1,2*
G04 #@! TO.N,/RA7*
X30480000Y27813000D03*
G04 #@! TO.P,OSC1,1*
G04 #@! TO.N,Net-(220uf1-Pad1)*
X30480000Y25273000D03*
G04 #@! TD*
G04 #@! TO.P,OSC2,2*
G04 #@! TO.N,Net-(220uf2-Pad1)*
X30480000Y21717000D03*
G04 #@! TO.P,OSC2,1*
G04 #@! TO.N,/RA6*
X30480000Y19177000D03*
G04 #@! TD*
D11*
G04 #@! TO.P,U1,1*
G04 #@! TO.N,/RC7*
X14046200Y20370000D03*
G04 #@! TO.P,U1,2*
G04 #@! TO.N,/RD4*
X14046200Y19569999D03*
G04 #@! TO.P,U1,3*
G04 #@! TO.N,/RD5*
X14046200Y18770000D03*
G04 #@! TO.P,U1,4*
G04 #@! TO.N,/RD6*
X14046200Y17969999D03*
G04 #@! TO.P,U1,5*
G04 #@! TO.N,/RD7*
X14046200Y17170001D03*
G04 #@! TO.P,U1,6*
G04 #@! TO.N,Earth*
X14046200Y16370000D03*
G04 #@! TO.P,U1,7*
G04 #@! TO.N,+5V*
X14046200Y15569999D03*
G04 #@! TO.P,U1,8*
G04 #@! TO.N,/RB0*
X14046200Y14770001D03*
G04 #@! TO.P,U1,9*
G04 #@! TO.N,/RB1*
X14046200Y13970000D03*
G04 #@! TO.P,U1,10*
G04 #@! TO.N,/RB2*
X14046200Y13170001D03*
G04 #@! TO.P,U1,11*
G04 #@! TO.N,/RB3*
X14046200Y12370000D03*
D12*
G04 #@! TO.P,U1,12*
G04 #@! TO.N,N/C*
X15659600Y10756600D03*
G04 #@! TO.P,U1,13*
X16459601Y10756600D03*
G04 #@! TO.P,U1,14*
G04 #@! TO.N,/RB4*
X17259600Y10756600D03*
G04 #@! TO.P,U1,15*
G04 #@! TO.N,/RB5*
X18059601Y10756600D03*
G04 #@! TO.P,U1,16*
G04 #@! TO.N,/RB6_PGC*
X18859599Y10756600D03*
G04 #@! TO.P,U1,17*
G04 #@! TO.N,/RB7_PGD*
X19659600Y10756600D03*
G04 #@! TO.P,U1,18*
G04 #@! TO.N,/RE3_MCLR*
X20459601Y10756600D03*
G04 #@! TO.P,U1,19*
G04 #@! TO.N,/RA0*
X21259599Y10756600D03*
G04 #@! TO.P,U1,20*
G04 #@! TO.N,/RA1*
X22059600Y10756600D03*
G04 #@! TO.P,U1,21*
G04 #@! TO.N,/RA2*
X22859599Y10756600D03*
G04 #@! TO.P,U1,22*
G04 #@! TO.N,/RA3*
X23659600Y10756600D03*
D11*
G04 #@! TO.P,U1,23*
G04 #@! TO.N,/RA4*
X25273000Y12370000D03*
G04 #@! TO.P,U1,24*
G04 #@! TO.N,/RA5*
X25273000Y13170001D03*
G04 #@! TO.P,U1,25*
G04 #@! TO.N,/RE0*
X25273000Y13970000D03*
G04 #@! TO.P,U1,26*
G04 #@! TO.N,/RE1*
X25273000Y14770001D03*
G04 #@! TO.P,U1,27*
G04 #@! TO.N,/RE2*
X25273000Y15569999D03*
G04 #@! TO.P,U1,28*
G04 #@! TO.N,+5V*
X25273000Y16370000D03*
G04 #@! TO.P,U1,29*
G04 #@! TO.N,Earth*
X25273000Y17170001D03*
G04 #@! TO.P,U1,30*
G04 #@! TO.N,/RA7*
X25273000Y17969999D03*
G04 #@! TO.P,U1,31*
G04 #@! TO.N,/RA6*
X25273000Y18770000D03*
G04 #@! TO.P,U1,32*
G04 #@! TO.N,/RC0*
X25273000Y19569999D03*
G04 #@! TO.P,U1,33*
G04 #@! TO.N,N/C*
X25273000Y20370000D03*
D12*
G04 #@! TO.P,U1,34*
X23659600Y21983400D03*
G04 #@! TO.P,U1,35*
G04 #@! TO.N,/RC1*
X22859599Y21983400D03*
G04 #@! TO.P,U1,36*
G04 #@! TO.N,/RC2*
X22059600Y21983400D03*
G04 #@! TO.P,U1,37*
G04 #@! TO.N,/RC3*
X21259599Y21983400D03*
G04 #@! TO.P,U1,38*
G04 #@! TO.N,/RD0*
X20459601Y21983400D03*
G04 #@! TO.P,U1,39*
G04 #@! TO.N,/RD1*
X19659600Y21983400D03*
G04 #@! TO.P,U1,40*
G04 #@! TO.N,/RD2*
X18859599Y21983400D03*
G04 #@! TO.P,U1,41*
G04 #@! TO.N,/RD3*
X18059601Y21983400D03*
G04 #@! TO.P,U1,42*
G04 #@! TO.N,/RC4*
X17259600Y21983400D03*
G04 #@! TO.P,U1,43*
G04 #@! TO.N,/RC5*
X16459601Y21983400D03*
G04 #@! TO.P,U1,44*
G04 #@! TO.N,/RC6*
X15659600Y21983400D03*
G04 #@! TD*
D13*
G04 #@! TO.P,,1*
G04 #@! TO.N,Net-(J10-Pad1)*
X19558000Y25400000D03*
D10*
G04 #@! TO.P,,2*
G04 #@! TO.N,Net-(J10-Pad2)*
X19558000Y27940000D03*
G04 #@! TD*
D13*
G04 #@! TO.P,Interruptor,1*
G04 #@! TO.N,Earth*
X17018000Y25400000D03*
D10*
G04 #@! TO.P,Interruptor,2*
G04 #@! TO.N,Net-(J2-Pad2)*
X17018000Y27940000D03*
G04 #@! TD*
G04 #@! TO.P,,10*
G04 #@! TO.N,/RA3*
X31750000Y2032000D03*
G04 #@! TO.P,,9*
G04 #@! TO.N,/RA2*
X29210000Y2032000D03*
G04 #@! TO.P,,8*
G04 #@! TO.N,/RA1*
X26670000Y2032000D03*
G04 #@! TO.P,,7*
G04 #@! TO.N,/RA0*
X24130000Y2032000D03*
G04 #@! TO.P,,6*
G04 #@! TO.N,/RE3_MCLR*
X21590000Y2032000D03*
G04 #@! TO.P,,5*
G04 #@! TO.N,/RB7_PGD*
X19050000Y2032000D03*
G04 #@! TO.P,,4*
G04 #@! TO.N,/RB6_PGC*
X16510000Y2032000D03*
G04 #@! TO.P,,3*
G04 #@! TO.N,/RB5*
X13970000Y2032000D03*
G04 #@! TO.P,,2*
G04 #@! TO.N,/RB4*
X11430000Y2032000D03*
G04 #@! TO.P,,1*
G04 #@! TO.N,/RB3*
X8890000Y2032000D03*
G04 #@! TD*
G04 #@! TO.P,,2*
G04 #@! TO.N,/RC5*
X11938000Y31242000D03*
G04 #@! TO.P,,3*
G04 #@! TO.N,/RC4*
X14478000Y31242000D03*
G04 #@! TO.P,,4*
G04 #@! TO.N,/RD3*
X17018000Y31242000D03*
G04 #@! TO.P,,5*
G04 #@! TO.N,/RD2*
X19558000Y31242000D03*
G04 #@! TO.P,,6*
G04 #@! TO.N,/RD1*
X22098000Y31242000D03*
G04 #@! TO.P,,7*
G04 #@! TO.N,/RD0*
X24638000Y31242000D03*
G04 #@! TO.P,,8*
G04 #@! TO.N,/RC3*
X27178000Y31242000D03*
G04 #@! TO.P,,9*
G04 #@! TO.N,/RC2*
X29718000Y31242000D03*
G04 #@! TO.P,,10*
G04 #@! TO.N,/RC1*
X32258000Y31242000D03*
G04 #@! TO.P,,1*
G04 #@! TO.N,/RC6*
X9398000Y31242000D03*
G04 #@! TD*
G04 #@! TO.P,,10*
G04 #@! TO.N,/RB2*
X2032000Y3810000D03*
G04 #@! TO.P,,9*
G04 #@! TO.N,/RB1*
X2032000Y6350000D03*
G04 #@! TO.P,,8*
G04 #@! TO.N,/RB0*
X2032000Y8890000D03*
G04 #@! TO.P,,7*
G04 #@! TO.N,Earth*
X2032000Y11430000D03*
G04 #@! TO.P,,6*
G04 #@! TO.N,+5V*
X2032000Y13970000D03*
G04 #@! TO.P,,5*
G04 #@! TO.N,/RD7*
X2032000Y16510000D03*
G04 #@! TO.P,,4*
G04 #@! TO.N,/RD6*
X2032000Y19050000D03*
G04 #@! TO.P,,3*
G04 #@! TO.N,/RD5*
X2032000Y21590000D03*
G04 #@! TO.P,,2*
G04 #@! TO.N,/RD4*
X2032000Y24130000D03*
G04 #@! TO.P,,1*
G04 #@! TO.N,/RC7*
X2032000Y26670000D03*
G04 #@! TD*
G04 #@! TO.P,P.UP,2*
G04 #@! TO.N,+5V*
X6223000Y10287000D03*
G04 #@! TO.P,P.UP,1*
G04 #@! TO.N,Net-(J9-Pad1)*
X6223000Y12827000D03*
G04 #@! TD*
G04 #@! TO.P,PROG,2*
G04 #@! TO.N,+5V*
X24003000Y5080000D03*
G04 #@! TO.P,PROG,3*
G04 #@! TO.N,Earth*
X21463000Y5080000D03*
G04 #@! TO.P,PROG,4*
G04 #@! TO.N,/RB7_PGD*
X18923000Y5080000D03*
G04 #@! TO.P,PROG,5*
G04 #@! TO.N,/RB6_PGC*
X16383000Y5080000D03*
G04 #@! TO.P,PROG,1*
G04 #@! TO.N,/RE3_MCLR*
X26543000Y5080000D03*
G04 #@! TD*
D14*
G04 #@! TO.N,/RE3_MCLR*
G04 #@! TO.C,C3*
G36*
X28772779Y13935856D02*
X28795834Y13932437D01*
X28818443Y13926773D01*
X28840387Y13918921D01*
X28861457Y13908956D01*
X28881448Y13896974D01*
X28900168Y13883090D01*
X28917438Y13867438D01*
X28933090Y13850168D01*
X28946974Y13831448D01*
X28958956Y13811457D01*
X28968921Y13790387D01*
X28976773Y13768443D01*
X28982437Y13745834D01*
X28985856Y13722779D01*
X28987000Y13699500D01*
X28987000Y13224500D01*
X28985856Y13201221D01*
X28982437Y13178166D01*
X28976773Y13155557D01*
X28968921Y13133613D01*
X28958956Y13112543D01*
X28946974Y13092552D01*
X28933090Y13073832D01*
X28917438Y13056562D01*
X28900168Y13040910D01*
X28881448Y13027026D01*
X28861457Y13015044D01*
X28840387Y13005079D01*
X28818443Y12997227D01*
X28795834Y12991563D01*
X28772779Y12988144D01*
X28749500Y12987000D01*
X28174500Y12987000D01*
X28151221Y12988144D01*
X28128166Y12991563D01*
X28105557Y12997227D01*
X28083613Y13005079D01*
X28062543Y13015044D01*
X28042552Y13027026D01*
X28023832Y13040910D01*
X28006562Y13056562D01*
X27990910Y13073832D01*
X27977026Y13092552D01*
X27965044Y13112543D01*
X27955079Y13133613D01*
X27947227Y13155557D01*
X27941563Y13178166D01*
X27938144Y13201221D01*
X27937000Y13224500D01*
X27937000Y13699500D01*
X27938144Y13722779D01*
X27941563Y13745834D01*
X27947227Y13768443D01*
X27955079Y13790387D01*
X27965044Y13811457D01*
X27977026Y13831448D01*
X27990910Y13850168D01*
X28006562Y13867438D01*
X28023832Y13883090D01*
X28042552Y13896974D01*
X28062543Y13908956D01*
X28083613Y13918921D01*
X28105557Y13926773D01*
X28128166Y13932437D01*
X28151221Y13935856D01*
X28174500Y13937000D01*
X28749500Y13937000D01*
X28772779Y13935856D01*
X28772779Y13935856D01*
G37*
D15*
G04 #@! TD*
G04 #@! TO.P,C3,1*
G04 #@! TO.N,/RE3_MCLR*
X28462000Y13462000D03*
D14*
G04 #@! TO.N,Earth*
G04 #@! TO.C,C3*
G36*
X30522779Y13935856D02*
X30545834Y13932437D01*
X30568443Y13926773D01*
X30590387Y13918921D01*
X30611457Y13908956D01*
X30631448Y13896974D01*
X30650168Y13883090D01*
X30667438Y13867438D01*
X30683090Y13850168D01*
X30696974Y13831448D01*
X30708956Y13811457D01*
X30718921Y13790387D01*
X30726773Y13768443D01*
X30732437Y13745834D01*
X30735856Y13722779D01*
X30737000Y13699500D01*
X30737000Y13224500D01*
X30735856Y13201221D01*
X30732437Y13178166D01*
X30726773Y13155557D01*
X30718921Y13133613D01*
X30708956Y13112543D01*
X30696974Y13092552D01*
X30683090Y13073832D01*
X30667438Y13056562D01*
X30650168Y13040910D01*
X30631448Y13027026D01*
X30611457Y13015044D01*
X30590387Y13005079D01*
X30568443Y12997227D01*
X30545834Y12991563D01*
X30522779Y12988144D01*
X30499500Y12987000D01*
X29924500Y12987000D01*
X29901221Y12988144D01*
X29878166Y12991563D01*
X29855557Y12997227D01*
X29833613Y13005079D01*
X29812543Y13015044D01*
X29792552Y13027026D01*
X29773832Y13040910D01*
X29756562Y13056562D01*
X29740910Y13073832D01*
X29727026Y13092552D01*
X29715044Y13112543D01*
X29705079Y13133613D01*
X29697227Y13155557D01*
X29691563Y13178166D01*
X29688144Y13201221D01*
X29687000Y13224500D01*
X29687000Y13699500D01*
X29688144Y13722779D01*
X29691563Y13745834D01*
X29697227Y13768443D01*
X29705079Y13790387D01*
X29715044Y13811457D01*
X29727026Y13831448D01*
X29740910Y13850168D01*
X29756562Y13867438D01*
X29773832Y13883090D01*
X29792552Y13896974D01*
X29812543Y13908956D01*
X29833613Y13918921D01*
X29855557Y13926773D01*
X29878166Y13932437D01*
X29901221Y13935856D01*
X29924500Y13937000D01*
X30499500Y13937000D01*
X30522779Y13935856D01*
X30522779Y13935856D01*
G37*
D15*
G04 #@! TD*
G04 #@! TO.P,C3,2*
G04 #@! TO.N,Earth*
X30212000Y13462000D03*
D14*
G04 #@! TO.N,Earth*
G04 #@! TO.C,C5*
G36*
X33915779Y16158856D02*
X33938834Y16155437D01*
X33961443Y16149773D01*
X33983387Y16141921D01*
X34004457Y16131956D01*
X34024448Y16119974D01*
X34043168Y16106090D01*
X34060438Y16090438D01*
X34076090Y16073168D01*
X34089974Y16054448D01*
X34101956Y16034457D01*
X34111921Y16013387D01*
X34119773Y15991443D01*
X34125437Y15968834D01*
X34128856Y15945779D01*
X34130000Y15922500D01*
X34130000Y15347500D01*
X34128856Y15324221D01*
X34125437Y15301166D01*
X34119773Y15278557D01*
X34111921Y15256613D01*
X34101956Y15235543D01*
X34089974Y15215552D01*
X34076090Y15196832D01*
X34060438Y15179562D01*
X34043168Y15163910D01*
X34024448Y15150026D01*
X34004457Y15138044D01*
X33983387Y15128079D01*
X33961443Y15120227D01*
X33938834Y15114563D01*
X33915779Y15111144D01*
X33892500Y15110000D01*
X33417500Y15110000D01*
X33394221Y15111144D01*
X33371166Y15114563D01*
X33348557Y15120227D01*
X33326613Y15128079D01*
X33305543Y15138044D01*
X33285552Y15150026D01*
X33266832Y15163910D01*
X33249562Y15179562D01*
X33233910Y15196832D01*
X33220026Y15215552D01*
X33208044Y15235543D01*
X33198079Y15256613D01*
X33190227Y15278557D01*
X33184563Y15301166D01*
X33181144Y15324221D01*
X33180000Y15347500D01*
X33180000Y15922500D01*
X33181144Y15945779D01*
X33184563Y15968834D01*
X33190227Y15991443D01*
X33198079Y16013387D01*
X33208044Y16034457D01*
X33220026Y16054448D01*
X33233910Y16073168D01*
X33249562Y16090438D01*
X33266832Y16106090D01*
X33285552Y16119974D01*
X33305543Y16131956D01*
X33326613Y16141921D01*
X33348557Y16149773D01*
X33371166Y16155437D01*
X33394221Y16158856D01*
X33417500Y16160000D01*
X33892500Y16160000D01*
X33915779Y16158856D01*
X33915779Y16158856D01*
G37*
D15*
G04 #@! TD*
G04 #@! TO.P,C5,2*
G04 #@! TO.N,Earth*
X33655000Y15635000D03*
D14*
G04 #@! TO.N,Net-(220uf1-Pad1)*
G04 #@! TO.C,C5*
G36*
X33915779Y17908856D02*
X33938834Y17905437D01*
X33961443Y17899773D01*
X33983387Y17891921D01*
X34004457Y17881956D01*
X34024448Y17869974D01*
X34043168Y17856090D01*
X34060438Y17840438D01*
X34076090Y17823168D01*
X34089974Y17804448D01*
X34101956Y17784457D01*
X34111921Y17763387D01*
X34119773Y17741443D01*
X34125437Y17718834D01*
X34128856Y17695779D01*
X34130000Y17672500D01*
X34130000Y17097500D01*
X34128856Y17074221D01*
X34125437Y17051166D01*
X34119773Y17028557D01*
X34111921Y17006613D01*
X34101956Y16985543D01*
X34089974Y16965552D01*
X34076090Y16946832D01*
X34060438Y16929562D01*
X34043168Y16913910D01*
X34024448Y16900026D01*
X34004457Y16888044D01*
X33983387Y16878079D01*
X33961443Y16870227D01*
X33938834Y16864563D01*
X33915779Y16861144D01*
X33892500Y16860000D01*
X33417500Y16860000D01*
X33394221Y16861144D01*
X33371166Y16864563D01*
X33348557Y16870227D01*
X33326613Y16878079D01*
X33305543Y16888044D01*
X33285552Y16900026D01*
X33266832Y16913910D01*
X33249562Y16929562D01*
X33233910Y16946832D01*
X33220026Y16965552D01*
X33208044Y16985543D01*
X33198079Y17006613D01*
X33190227Y17028557D01*
X33184563Y17051166D01*
X33181144Y17074221D01*
X33180000Y17097500D01*
X33180000Y17672500D01*
X33181144Y17695779D01*
X33184563Y17718834D01*
X33190227Y17741443D01*
X33198079Y17763387D01*
X33208044Y17784457D01*
X33220026Y17804448D01*
X33233910Y17823168D01*
X33249562Y17840438D01*
X33266832Y17856090D01*
X33285552Y17869974D01*
X33305543Y17881956D01*
X33326613Y17891921D01*
X33348557Y17899773D01*
X33371166Y17905437D01*
X33394221Y17908856D01*
X33417500Y17910000D01*
X33892500Y17910000D01*
X33915779Y17908856D01*
X33915779Y17908856D01*
G37*
D15*
G04 #@! TD*
G04 #@! TO.P,C5,1*
G04 #@! TO.N,Net-(220uf1-Pad1)*
X33655000Y17385000D03*
D14*
G04 #@! TO.N,Net-(220uf2-Pad1)*
G04 #@! TO.C, *
G36*
X37090779Y16158856D02*
X37113834Y16155437D01*
X37136443Y16149773D01*
X37158387Y16141921D01*
X37179457Y16131956D01*
X37199448Y16119974D01*
X37218168Y16106090D01*
X37235438Y16090438D01*
X37251090Y16073168D01*
X37264974Y16054448D01*
X37276956Y16034457D01*
X37286921Y16013387D01*
X37294773Y15991443D01*
X37300437Y15968834D01*
X37303856Y15945779D01*
X37305000Y15922500D01*
X37305000Y15347500D01*
X37303856Y15324221D01*
X37300437Y15301166D01*
X37294773Y15278557D01*
X37286921Y15256613D01*
X37276956Y15235543D01*
X37264974Y15215552D01*
X37251090Y15196832D01*
X37235438Y15179562D01*
X37218168Y15163910D01*
X37199448Y15150026D01*
X37179457Y15138044D01*
X37158387Y15128079D01*
X37136443Y15120227D01*
X37113834Y15114563D01*
X37090779Y15111144D01*
X37067500Y15110000D01*
X36592500Y15110000D01*
X36569221Y15111144D01*
X36546166Y15114563D01*
X36523557Y15120227D01*
X36501613Y15128079D01*
X36480543Y15138044D01*
X36460552Y15150026D01*
X36441832Y15163910D01*
X36424562Y15179562D01*
X36408910Y15196832D01*
X36395026Y15215552D01*
X36383044Y15235543D01*
X36373079Y15256613D01*
X36365227Y15278557D01*
X36359563Y15301166D01*
X36356144Y15324221D01*
X36355000Y15347500D01*
X36355000Y15922500D01*
X36356144Y15945779D01*
X36359563Y15968834D01*
X36365227Y15991443D01*
X36373079Y16013387D01*
X36383044Y16034457D01*
X36395026Y16054448D01*
X36408910Y16073168D01*
X36424562Y16090438D01*
X36441832Y16106090D01*
X36460552Y16119974D01*
X36480543Y16131956D01*
X36501613Y16141921D01*
X36523557Y16149773D01*
X36546166Y16155437D01*
X36569221Y16158856D01*
X36592500Y16160000D01*
X37067500Y16160000D01*
X37090779Y16158856D01*
X37090779Y16158856D01*
G37*
D15*
G04 #@! TD*
G04 #@! TO.P, ,1*
G04 #@! TO.N,Net-(220uf2-Pad1)*
X36830000Y15635000D03*
D14*
G04 #@! TO.N,Earth*
G04 #@! TO.C, *
G36*
X37090779Y17908856D02*
X37113834Y17905437D01*
X37136443Y17899773D01*
X37158387Y17891921D01*
X37179457Y17881956D01*
X37199448Y17869974D01*
X37218168Y17856090D01*
X37235438Y17840438D01*
X37251090Y17823168D01*
X37264974Y17804448D01*
X37276956Y17784457D01*
X37286921Y17763387D01*
X37294773Y17741443D01*
X37300437Y17718834D01*
X37303856Y17695779D01*
X37305000Y17672500D01*
X37305000Y17097500D01*
X37303856Y17074221D01*
X37300437Y17051166D01*
X37294773Y17028557D01*
X37286921Y17006613D01*
X37276956Y16985543D01*
X37264974Y16965552D01*
X37251090Y16946832D01*
X37235438Y16929562D01*
X37218168Y16913910D01*
X37199448Y16900026D01*
X37179457Y16888044D01*
X37158387Y16878079D01*
X37136443Y16870227D01*
X37113834Y16864563D01*
X37090779Y16861144D01*
X37067500Y16860000D01*
X36592500Y16860000D01*
X36569221Y16861144D01*
X36546166Y16864563D01*
X36523557Y16870227D01*
X36501613Y16878079D01*
X36480543Y16888044D01*
X36460552Y16900026D01*
X36441832Y16913910D01*
X36424562Y16929562D01*
X36408910Y16946832D01*
X36395026Y16965552D01*
X36383044Y16985543D01*
X36373079Y17006613D01*
X36365227Y17028557D01*
X36359563Y17051166D01*
X36356144Y17074221D01*
X36355000Y17097500D01*
X36355000Y17672500D01*
X36356144Y17695779D01*
X36359563Y17718834D01*
X36365227Y17741443D01*
X36373079Y17763387D01*
X36383044Y17784457D01*
X36395026Y17804448D01*
X36408910Y17823168D01*
X36424562Y17840438D01*
X36441832Y17856090D01*
X36460552Y17869974D01*
X36480543Y17881956D01*
X36501613Y17891921D01*
X36523557Y17899773D01*
X36546166Y17905437D01*
X36569221Y17908856D01*
X36592500Y17910000D01*
X37067500Y17910000D01*
X37090779Y17908856D01*
X37090779Y17908856D01*
G37*
D15*
G04 #@! TD*
G04 #@! TO.P, ,2*
G04 #@! TO.N,Earth*
X36830000Y17385000D03*
D14*
G04 #@! TO.N,+5V*
G04 #@! TO.C,C1*
G36*
X8833779Y19904856D02*
X8856834Y19901437D01*
X8879443Y19895773D01*
X8901387Y19887921D01*
X8922457Y19877956D01*
X8942448Y19865974D01*
X8961168Y19852090D01*
X8978438Y19836438D01*
X8994090Y19819168D01*
X9007974Y19800448D01*
X9019956Y19780457D01*
X9029921Y19759387D01*
X9037773Y19737443D01*
X9043437Y19714834D01*
X9046856Y19691779D01*
X9048000Y19668500D01*
X9048000Y19193500D01*
X9046856Y19170221D01*
X9043437Y19147166D01*
X9037773Y19124557D01*
X9029921Y19102613D01*
X9019956Y19081543D01*
X9007974Y19061552D01*
X8994090Y19042832D01*
X8978438Y19025562D01*
X8961168Y19009910D01*
X8942448Y18996026D01*
X8922457Y18984044D01*
X8901387Y18974079D01*
X8879443Y18966227D01*
X8856834Y18960563D01*
X8833779Y18957144D01*
X8810500Y18956000D01*
X8235500Y18956000D01*
X8212221Y18957144D01*
X8189166Y18960563D01*
X8166557Y18966227D01*
X8144613Y18974079D01*
X8123543Y18984044D01*
X8103552Y18996026D01*
X8084832Y19009910D01*
X8067562Y19025562D01*
X8051910Y19042832D01*
X8038026Y19061552D01*
X8026044Y19081543D01*
X8016079Y19102613D01*
X8008227Y19124557D01*
X8002563Y19147166D01*
X7999144Y19170221D01*
X7998000Y19193500D01*
X7998000Y19668500D01*
X7999144Y19691779D01*
X8002563Y19714834D01*
X8008227Y19737443D01*
X8016079Y19759387D01*
X8026044Y19780457D01*
X8038026Y19800448D01*
X8051910Y19819168D01*
X8067562Y19836438D01*
X8084832Y19852090D01*
X8103552Y19865974D01*
X8123543Y19877956D01*
X8144613Y19887921D01*
X8166557Y19895773D01*
X8189166Y19901437D01*
X8212221Y19904856D01*
X8235500Y19906000D01*
X8810500Y19906000D01*
X8833779Y19904856D01*
X8833779Y19904856D01*
G37*
D15*
G04 #@! TD*
G04 #@! TO.P,C1,1*
G04 #@! TO.N,+5V*
X8523000Y19431000D03*
D14*
G04 #@! TO.N,Earth*
G04 #@! TO.C,C1*
G36*
X10583779Y19904856D02*
X10606834Y19901437D01*
X10629443Y19895773D01*
X10651387Y19887921D01*
X10672457Y19877956D01*
X10692448Y19865974D01*
X10711168Y19852090D01*
X10728438Y19836438D01*
X10744090Y19819168D01*
X10757974Y19800448D01*
X10769956Y19780457D01*
X10779921Y19759387D01*
X10787773Y19737443D01*
X10793437Y19714834D01*
X10796856Y19691779D01*
X10798000Y19668500D01*
X10798000Y19193500D01*
X10796856Y19170221D01*
X10793437Y19147166D01*
X10787773Y19124557D01*
X10779921Y19102613D01*
X10769956Y19081543D01*
X10757974Y19061552D01*
X10744090Y19042832D01*
X10728438Y19025562D01*
X10711168Y19009910D01*
X10692448Y18996026D01*
X10672457Y18984044D01*
X10651387Y18974079D01*
X10629443Y18966227D01*
X10606834Y18960563D01*
X10583779Y18957144D01*
X10560500Y18956000D01*
X9985500Y18956000D01*
X9962221Y18957144D01*
X9939166Y18960563D01*
X9916557Y18966227D01*
X9894613Y18974079D01*
X9873543Y18984044D01*
X9853552Y18996026D01*
X9834832Y19009910D01*
X9817562Y19025562D01*
X9801910Y19042832D01*
X9788026Y19061552D01*
X9776044Y19081543D01*
X9766079Y19102613D01*
X9758227Y19124557D01*
X9752563Y19147166D01*
X9749144Y19170221D01*
X9748000Y19193500D01*
X9748000Y19668500D01*
X9749144Y19691779D01*
X9752563Y19714834D01*
X9758227Y19737443D01*
X9766079Y19759387D01*
X9776044Y19780457D01*
X9788026Y19800448D01*
X9801910Y19819168D01*
X9817562Y19836438D01*
X9834832Y19852090D01*
X9853552Y19865974D01*
X9873543Y19877956D01*
X9894613Y19887921D01*
X9916557Y19895773D01*
X9939166Y19901437D01*
X9962221Y19904856D01*
X9985500Y19906000D01*
X10560500Y19906000D01*
X10583779Y19904856D01*
X10583779Y19904856D01*
G37*
D15*
G04 #@! TD*
G04 #@! TO.P,C1,2*
G04 #@! TO.N,Earth*
X10273000Y19431000D03*
D14*
G04 #@! TO.N,Earth*
G04 #@! TO.C,C2*
G36*
X10202779Y17237856D02*
X10225834Y17234437D01*
X10248443Y17228773D01*
X10270387Y17220921D01*
X10291457Y17210956D01*
X10311448Y17198974D01*
X10330168Y17185090D01*
X10347438Y17169438D01*
X10363090Y17152168D01*
X10376974Y17133448D01*
X10388956Y17113457D01*
X10398921Y17092387D01*
X10406773Y17070443D01*
X10412437Y17047834D01*
X10415856Y17024779D01*
X10417000Y17001500D01*
X10417000Y16526500D01*
X10415856Y16503221D01*
X10412437Y16480166D01*
X10406773Y16457557D01*
X10398921Y16435613D01*
X10388956Y16414543D01*
X10376974Y16394552D01*
X10363090Y16375832D01*
X10347438Y16358562D01*
X10330168Y16342910D01*
X10311448Y16329026D01*
X10291457Y16317044D01*
X10270387Y16307079D01*
X10248443Y16299227D01*
X10225834Y16293563D01*
X10202779Y16290144D01*
X10179500Y16289000D01*
X9604500Y16289000D01*
X9581221Y16290144D01*
X9558166Y16293563D01*
X9535557Y16299227D01*
X9513613Y16307079D01*
X9492543Y16317044D01*
X9472552Y16329026D01*
X9453832Y16342910D01*
X9436562Y16358562D01*
X9420910Y16375832D01*
X9407026Y16394552D01*
X9395044Y16414543D01*
X9385079Y16435613D01*
X9377227Y16457557D01*
X9371563Y16480166D01*
X9368144Y16503221D01*
X9367000Y16526500D01*
X9367000Y17001500D01*
X9368144Y17024779D01*
X9371563Y17047834D01*
X9377227Y17070443D01*
X9385079Y17092387D01*
X9395044Y17113457D01*
X9407026Y17133448D01*
X9420910Y17152168D01*
X9436562Y17169438D01*
X9453832Y17185090D01*
X9472552Y17198974D01*
X9492543Y17210956D01*
X9513613Y17220921D01*
X9535557Y17228773D01*
X9558166Y17234437D01*
X9581221Y17237856D01*
X9604500Y17239000D01*
X10179500Y17239000D01*
X10202779Y17237856D01*
X10202779Y17237856D01*
G37*
D15*
G04 #@! TD*
G04 #@! TO.P,C2,2*
G04 #@! TO.N,Earth*
X9892000Y16764000D03*
D14*
G04 #@! TO.N,+5V*
G04 #@! TO.C,C2*
G36*
X8452779Y17237856D02*
X8475834Y17234437D01*
X8498443Y17228773D01*
X8520387Y17220921D01*
X8541457Y17210956D01*
X8561448Y17198974D01*
X8580168Y17185090D01*
X8597438Y17169438D01*
X8613090Y17152168D01*
X8626974Y17133448D01*
X8638956Y17113457D01*
X8648921Y17092387D01*
X8656773Y17070443D01*
X8662437Y17047834D01*
X8665856Y17024779D01*
X8667000Y17001500D01*
X8667000Y16526500D01*
X8665856Y16503221D01*
X8662437Y16480166D01*
X8656773Y16457557D01*
X8648921Y16435613D01*
X8638956Y16414543D01*
X8626974Y16394552D01*
X8613090Y16375832D01*
X8597438Y16358562D01*
X8580168Y16342910D01*
X8561448Y16329026D01*
X8541457Y16317044D01*
X8520387Y16307079D01*
X8498443Y16299227D01*
X8475834Y16293563D01*
X8452779Y16290144D01*
X8429500Y16289000D01*
X7854500Y16289000D01*
X7831221Y16290144D01*
X7808166Y16293563D01*
X7785557Y16299227D01*
X7763613Y16307079D01*
X7742543Y16317044D01*
X7722552Y16329026D01*
X7703832Y16342910D01*
X7686562Y16358562D01*
X7670910Y16375832D01*
X7657026Y16394552D01*
X7645044Y16414543D01*
X7635079Y16435613D01*
X7627227Y16457557D01*
X7621563Y16480166D01*
X7618144Y16503221D01*
X7617000Y16526500D01*
X7617000Y17001500D01*
X7618144Y17024779D01*
X7621563Y17047834D01*
X7627227Y17070443D01*
X7635079Y17092387D01*
X7645044Y17113457D01*
X7657026Y17133448D01*
X7670910Y17152168D01*
X7686562Y17169438D01*
X7703832Y17185090D01*
X7722552Y17198974D01*
X7742543Y17210956D01*
X7763613Y17220921D01*
X7785557Y17228773D01*
X7808166Y17234437D01*
X7831221Y17237856D01*
X7854500Y17239000D01*
X8429500Y17239000D01*
X8452779Y17237856D01*
X8452779Y17237856D01*
G37*
D15*
G04 #@! TD*
G04 #@! TO.P,C2,1*
G04 #@! TO.N,+5V*
X8142000Y16764000D03*
D14*
G04 #@! TO.N,Earth*
G04 #@! TO.C,D1*
G36*
X36417505Y7810796D02*
X36441773Y7807196D01*
X36465572Y7801235D01*
X36488671Y7792970D01*
X36510850Y7782480D01*
X36531893Y7769868D01*
X36551599Y7755253D01*
X36569777Y7738777D01*
X36586253Y7720599D01*
X36600868Y7700893D01*
X36613480Y7679850D01*
X36623970Y7657671D01*
X36632235Y7634572D01*
X36638196Y7610773D01*
X36641796Y7586505D01*
X36643000Y7562001D01*
X36643000Y6661999D01*
X36641796Y6637495D01*
X36638196Y6613227D01*
X36632235Y6589428D01*
X36623970Y6566329D01*
X36613480Y6544150D01*
X36600868Y6523107D01*
X36586253Y6503401D01*
X36569777Y6485223D01*
X36551599Y6468747D01*
X36531893Y6454132D01*
X36510850Y6441520D01*
X36488671Y6431030D01*
X36465572Y6422765D01*
X36441773Y6416804D01*
X36417505Y6413204D01*
X36393001Y6412000D01*
X35742999Y6412000D01*
X35718495Y6413204D01*
X35694227Y6416804D01*
X35670428Y6422765D01*
X35647329Y6431030D01*
X35625150Y6441520D01*
X35604107Y6454132D01*
X35584401Y6468747D01*
X35566223Y6485223D01*
X35549747Y6503401D01*
X35535132Y6523107D01*
X35522520Y6544150D01*
X35512030Y6566329D01*
X35503765Y6589428D01*
X35497804Y6613227D01*
X35494204Y6637495D01*
X35493000Y6661999D01*
X35493000Y7562001D01*
X35494204Y7586505D01*
X35497804Y7610773D01*
X35503765Y7634572D01*
X35512030Y7657671D01*
X35522520Y7679850D01*
X35535132Y7700893D01*
X35549747Y7720599D01*
X35566223Y7738777D01*
X35584401Y7755253D01*
X35604107Y7769868D01*
X35625150Y7782480D01*
X35647329Y7792970D01*
X35670428Y7801235D01*
X35694227Y7807196D01*
X35718495Y7810796D01*
X35742999Y7812000D01*
X36393001Y7812000D01*
X36417505Y7810796D01*
X36417505Y7810796D01*
G37*
D16*
G04 #@! TD*
G04 #@! TO.P,D1,1*
G04 #@! TO.N,Earth*
X36068000Y7112000D03*
D14*
G04 #@! TO.N,Net-(D1-Pad2)*
G04 #@! TO.C,D1*
G36*
X34367505Y7810796D02*
X34391773Y7807196D01*
X34415572Y7801235D01*
X34438671Y7792970D01*
X34460850Y7782480D01*
X34481893Y7769868D01*
X34501599Y7755253D01*
X34519777Y7738777D01*
X34536253Y7720599D01*
X34550868Y7700893D01*
X34563480Y7679850D01*
X34573970Y7657671D01*
X34582235Y7634572D01*
X34588196Y7610773D01*
X34591796Y7586505D01*
X34593000Y7562001D01*
X34593000Y6661999D01*
X34591796Y6637495D01*
X34588196Y6613227D01*
X34582235Y6589428D01*
X34573970Y6566329D01*
X34563480Y6544150D01*
X34550868Y6523107D01*
X34536253Y6503401D01*
X34519777Y6485223D01*
X34501599Y6468747D01*
X34481893Y6454132D01*
X34460850Y6441520D01*
X34438671Y6431030D01*
X34415572Y6422765D01*
X34391773Y6416804D01*
X34367505Y6413204D01*
X34343001Y6412000D01*
X33692999Y6412000D01*
X33668495Y6413204D01*
X33644227Y6416804D01*
X33620428Y6422765D01*
X33597329Y6431030D01*
X33575150Y6441520D01*
X33554107Y6454132D01*
X33534401Y6468747D01*
X33516223Y6485223D01*
X33499747Y6503401D01*
X33485132Y6523107D01*
X33472520Y6544150D01*
X33462030Y6566329D01*
X33453765Y6589428D01*
X33447804Y6613227D01*
X33444204Y6637495D01*
X33443000Y6661999D01*
X33443000Y7562001D01*
X33444204Y7586505D01*
X33447804Y7610773D01*
X33453765Y7634572D01*
X33462030Y7657671D01*
X33472520Y7679850D01*
X33485132Y7700893D01*
X33499747Y7720599D01*
X33516223Y7738777D01*
X33534401Y7755253D01*
X33554107Y7769868D01*
X33575150Y7782480D01*
X33597329Y7792970D01*
X33620428Y7801235D01*
X33644227Y7807196D01*
X33668495Y7810796D01*
X33692999Y7812000D01*
X34343001Y7812000D01*
X34367505Y7810796D01*
X34367505Y7810796D01*
G37*
D16*
G04 #@! TD*
G04 #@! TO.P,D1,2*
G04 #@! TO.N,Net-(D1-Pad2)*
X34018000Y7112000D03*
D10*
G04 #@! TO.P,Alim,2*
G04 #@! TO.N,Net-(J10-Pad2)*
X25019000Y27813000D03*
D13*
G04 #@! TO.P,Alim,1*
G04 #@! TO.N,Net-(J10-Pad1)*
X25019000Y25273000D03*
G04 #@! TD*
D14*
G04 #@! TO.N,Net-(J9-Pad1)*
G04 #@! TO.C,R1*
G36*
X9230505Y14287796D02*
X9254773Y14284196D01*
X9278572Y14278235D01*
X9301671Y14269970D01*
X9323850Y14259480D01*
X9344893Y14246868D01*
X9364599Y14232253D01*
X9382777Y14215777D01*
X9399253Y14197599D01*
X9413868Y14177893D01*
X9426480Y14156850D01*
X9436970Y14134671D01*
X9445235Y14111572D01*
X9451196Y14087773D01*
X9454796Y14063505D01*
X9456000Y14039001D01*
X9456000Y13138999D01*
X9454796Y13114495D01*
X9451196Y13090227D01*
X9445235Y13066428D01*
X9436970Y13043329D01*
X9426480Y13021150D01*
X9413868Y13000107D01*
X9399253Y12980401D01*
X9382777Y12962223D01*
X9364599Y12945747D01*
X9344893Y12931132D01*
X9323850Y12918520D01*
X9301671Y12908030D01*
X9278572Y12899765D01*
X9254773Y12893804D01*
X9230505Y12890204D01*
X9206001Y12889000D01*
X8555999Y12889000D01*
X8531495Y12890204D01*
X8507227Y12893804D01*
X8483428Y12899765D01*
X8460329Y12908030D01*
X8438150Y12918520D01*
X8417107Y12931132D01*
X8397401Y12945747D01*
X8379223Y12962223D01*
X8362747Y12980401D01*
X8348132Y13000107D01*
X8335520Y13021150D01*
X8325030Y13043329D01*
X8316765Y13066428D01*
X8310804Y13090227D01*
X8307204Y13114495D01*
X8306000Y13138999D01*
X8306000Y14039001D01*
X8307204Y14063505D01*
X8310804Y14087773D01*
X8316765Y14111572D01*
X8325030Y14134671D01*
X8335520Y14156850D01*
X8348132Y14177893D01*
X8362747Y14197599D01*
X8379223Y14215777D01*
X8397401Y14232253D01*
X8417107Y14246868D01*
X8438150Y14259480D01*
X8460329Y14269970D01*
X8483428Y14278235D01*
X8507227Y14284196D01*
X8531495Y14287796D01*
X8555999Y14289000D01*
X9206001Y14289000D01*
X9230505Y14287796D01*
X9230505Y14287796D01*
G37*
D16*
G04 #@! TD*
G04 #@! TO.P,R1,1*
G04 #@! TO.N,Net-(J9-Pad1)*
X8881000Y13589000D03*
D14*
G04 #@! TO.N,/RB0*
G04 #@! TO.C,R1*
G36*
X11280505Y14287796D02*
X11304773Y14284196D01*
X11328572Y14278235D01*
X11351671Y14269970D01*
X11373850Y14259480D01*
X11394893Y14246868D01*
X11414599Y14232253D01*
X11432777Y14215777D01*
X11449253Y14197599D01*
X11463868Y14177893D01*
X11476480Y14156850D01*
X11486970Y14134671D01*
X11495235Y14111572D01*
X11501196Y14087773D01*
X11504796Y14063505D01*
X11506000Y14039001D01*
X11506000Y13138999D01*
X11504796Y13114495D01*
X11501196Y13090227D01*
X11495235Y13066428D01*
X11486970Y13043329D01*
X11476480Y13021150D01*
X11463868Y13000107D01*
X11449253Y12980401D01*
X11432777Y12962223D01*
X11414599Y12945747D01*
X11394893Y12931132D01*
X11373850Y12918520D01*
X11351671Y12908030D01*
X11328572Y12899765D01*
X11304773Y12893804D01*
X11280505Y12890204D01*
X11256001Y12889000D01*
X10605999Y12889000D01*
X10581495Y12890204D01*
X10557227Y12893804D01*
X10533428Y12899765D01*
X10510329Y12908030D01*
X10488150Y12918520D01*
X10467107Y12931132D01*
X10447401Y12945747D01*
X10429223Y12962223D01*
X10412747Y12980401D01*
X10398132Y13000107D01*
X10385520Y13021150D01*
X10375030Y13043329D01*
X10366765Y13066428D01*
X10360804Y13090227D01*
X10357204Y13114495D01*
X10356000Y13138999D01*
X10356000Y14039001D01*
X10357204Y14063505D01*
X10360804Y14087773D01*
X10366765Y14111572D01*
X10375030Y14134671D01*
X10385520Y14156850D01*
X10398132Y14177893D01*
X10412747Y14197599D01*
X10429223Y14215777D01*
X10447401Y14232253D01*
X10467107Y14246868D01*
X10488150Y14259480D01*
X10510329Y14269970D01*
X10533428Y14278235D01*
X10557227Y14284196D01*
X10581495Y14287796D01*
X10605999Y14289000D01*
X11256001Y14289000D01*
X11280505Y14287796D01*
X11280505Y14287796D01*
G37*
D16*
G04 #@! TD*
G04 #@! TO.P,R1,2*
G04 #@! TO.N,/RB0*
X10931000Y13589000D03*
D14*
G04 #@! TO.N,Net-(D1-Pad2)*
G04 #@! TO.C,R2*
G36*
X29169505Y7683796D02*
X29193773Y7680196D01*
X29217572Y7674235D01*
X29240671Y7665970D01*
X29262850Y7655480D01*
X29283893Y7642868D01*
X29303599Y7628253D01*
X29321777Y7611777D01*
X29338253Y7593599D01*
X29352868Y7573893D01*
X29365480Y7552850D01*
X29375970Y7530671D01*
X29384235Y7507572D01*
X29390196Y7483773D01*
X29393796Y7459505D01*
X29395000Y7435001D01*
X29395000Y6534999D01*
X29393796Y6510495D01*
X29390196Y6486227D01*
X29384235Y6462428D01*
X29375970Y6439329D01*
X29365480Y6417150D01*
X29352868Y6396107D01*
X29338253Y6376401D01*
X29321777Y6358223D01*
X29303599Y6341747D01*
X29283893Y6327132D01*
X29262850Y6314520D01*
X29240671Y6304030D01*
X29217572Y6295765D01*
X29193773Y6289804D01*
X29169505Y6286204D01*
X29145001Y6285000D01*
X28494999Y6285000D01*
X28470495Y6286204D01*
X28446227Y6289804D01*
X28422428Y6295765D01*
X28399329Y6304030D01*
X28377150Y6314520D01*
X28356107Y6327132D01*
X28336401Y6341747D01*
X28318223Y6358223D01*
X28301747Y6376401D01*
X28287132Y6396107D01*
X28274520Y6417150D01*
X28264030Y6439329D01*
X28255765Y6462428D01*
X28249804Y6486227D01*
X28246204Y6510495D01*
X28245000Y6534999D01*
X28245000Y7435001D01*
X28246204Y7459505D01*
X28249804Y7483773D01*
X28255765Y7507572D01*
X28264030Y7530671D01*
X28274520Y7552850D01*
X28287132Y7573893D01*
X28301747Y7593599D01*
X28318223Y7611777D01*
X28336401Y7628253D01*
X28356107Y7642868D01*
X28377150Y7655480D01*
X28399329Y7665970D01*
X28422428Y7674235D01*
X28446227Y7680196D01*
X28470495Y7683796D01*
X28494999Y7685000D01*
X29145001Y7685000D01*
X29169505Y7683796D01*
X29169505Y7683796D01*
G37*
D16*
G04 #@! TD*
G04 #@! TO.P,R2,1*
G04 #@! TO.N,Net-(D1-Pad2)*
X28820000Y6985000D03*
D14*
G04 #@! TO.N,/RC7*
G04 #@! TO.C,R2*
G36*
X31219505Y7683796D02*
X31243773Y7680196D01*
X31267572Y7674235D01*
X31290671Y7665970D01*
X31312850Y7655480D01*
X31333893Y7642868D01*
X31353599Y7628253D01*
X31371777Y7611777D01*
X31388253Y7593599D01*
X31402868Y7573893D01*
X31415480Y7552850D01*
X31425970Y7530671D01*
X31434235Y7507572D01*
X31440196Y7483773D01*
X31443796Y7459505D01*
X31445000Y7435001D01*
X31445000Y6534999D01*
X31443796Y6510495D01*
X31440196Y6486227D01*
X31434235Y6462428D01*
X31425970Y6439329D01*
X31415480Y6417150D01*
X31402868Y6396107D01*
X31388253Y6376401D01*
X31371777Y6358223D01*
X31353599Y6341747D01*
X31333893Y6327132D01*
X31312850Y6314520D01*
X31290671Y6304030D01*
X31267572Y6295765D01*
X31243773Y6289804D01*
X31219505Y6286204D01*
X31195001Y6285000D01*
X30544999Y6285000D01*
X30520495Y6286204D01*
X30496227Y6289804D01*
X30472428Y6295765D01*
X30449329Y6304030D01*
X30427150Y6314520D01*
X30406107Y6327132D01*
X30386401Y6341747D01*
X30368223Y6358223D01*
X30351747Y6376401D01*
X30337132Y6396107D01*
X30324520Y6417150D01*
X30314030Y6439329D01*
X30305765Y6462428D01*
X30299804Y6486227D01*
X30296204Y6510495D01*
X30295000Y6534999D01*
X30295000Y7435001D01*
X30296204Y7459505D01*
X30299804Y7483773D01*
X30305765Y7507572D01*
X30314030Y7530671D01*
X30324520Y7552850D01*
X30337132Y7573893D01*
X30351747Y7593599D01*
X30368223Y7611777D01*
X30386401Y7628253D01*
X30406107Y7642868D01*
X30427150Y7655480D01*
X30449329Y7665970D01*
X30472428Y7674235D01*
X30496227Y7680196D01*
X30520495Y7683796D01*
X30544999Y7685000D01*
X31195001Y7685000D01*
X31219505Y7683796D01*
X31219505Y7683796D01*
G37*
D16*
G04 #@! TD*
G04 #@! TO.P,R2,2*
G04 #@! TO.N,/RC7*
X30870000Y6985000D03*
D14*
G04 #@! TO.N,/RB1*
G04 #@! TO.C,R3*
G36*
X11407505Y12001796D02*
X11431773Y11998196D01*
X11455572Y11992235D01*
X11478671Y11983970D01*
X11500850Y11973480D01*
X11521893Y11960868D01*
X11541599Y11946253D01*
X11559777Y11929777D01*
X11576253Y11911599D01*
X11590868Y11891893D01*
X11603480Y11870850D01*
X11613970Y11848671D01*
X11622235Y11825572D01*
X11628196Y11801773D01*
X11631796Y11777505D01*
X11633000Y11753001D01*
X11633000Y10852999D01*
X11631796Y10828495D01*
X11628196Y10804227D01*
X11622235Y10780428D01*
X11613970Y10757329D01*
X11603480Y10735150D01*
X11590868Y10714107D01*
X11576253Y10694401D01*
X11559777Y10676223D01*
X11541599Y10659747D01*
X11521893Y10645132D01*
X11500850Y10632520D01*
X11478671Y10622030D01*
X11455572Y10613765D01*
X11431773Y10607804D01*
X11407505Y10604204D01*
X11383001Y10603000D01*
X10732999Y10603000D01*
X10708495Y10604204D01*
X10684227Y10607804D01*
X10660428Y10613765D01*
X10637329Y10622030D01*
X10615150Y10632520D01*
X10594107Y10645132D01*
X10574401Y10659747D01*
X10556223Y10676223D01*
X10539747Y10694401D01*
X10525132Y10714107D01*
X10512520Y10735150D01*
X10502030Y10757329D01*
X10493765Y10780428D01*
X10487804Y10804227D01*
X10484204Y10828495D01*
X10483000Y10852999D01*
X10483000Y11753001D01*
X10484204Y11777505D01*
X10487804Y11801773D01*
X10493765Y11825572D01*
X10502030Y11848671D01*
X10512520Y11870850D01*
X10525132Y11891893D01*
X10539747Y11911599D01*
X10556223Y11929777D01*
X10574401Y11946253D01*
X10594107Y11960868D01*
X10615150Y11973480D01*
X10637329Y11983970D01*
X10660428Y11992235D01*
X10684227Y11998196D01*
X10708495Y12001796D01*
X10732999Y12003000D01*
X11383001Y12003000D01*
X11407505Y12001796D01*
X11407505Y12001796D01*
G37*
D16*
G04 #@! TD*
G04 #@! TO.P,R3,2*
G04 #@! TO.N,/RB1*
X11058000Y11303000D03*
D14*
G04 #@! TO.N,Net-(J9-Pad1)*
G04 #@! TO.C,R3*
G36*
X9357505Y12001796D02*
X9381773Y11998196D01*
X9405572Y11992235D01*
X9428671Y11983970D01*
X9450850Y11973480D01*
X9471893Y11960868D01*
X9491599Y11946253D01*
X9509777Y11929777D01*
X9526253Y11911599D01*
X9540868Y11891893D01*
X9553480Y11870850D01*
X9563970Y11848671D01*
X9572235Y11825572D01*
X9578196Y11801773D01*
X9581796Y11777505D01*
X9583000Y11753001D01*
X9583000Y10852999D01*
X9581796Y10828495D01*
X9578196Y10804227D01*
X9572235Y10780428D01*
X9563970Y10757329D01*
X9553480Y10735150D01*
X9540868Y10714107D01*
X9526253Y10694401D01*
X9509777Y10676223D01*
X9491599Y10659747D01*
X9471893Y10645132D01*
X9450850Y10632520D01*
X9428671Y10622030D01*
X9405572Y10613765D01*
X9381773Y10607804D01*
X9357505Y10604204D01*
X9333001Y10603000D01*
X8682999Y10603000D01*
X8658495Y10604204D01*
X8634227Y10607804D01*
X8610428Y10613765D01*
X8587329Y10622030D01*
X8565150Y10632520D01*
X8544107Y10645132D01*
X8524401Y10659747D01*
X8506223Y10676223D01*
X8489747Y10694401D01*
X8475132Y10714107D01*
X8462520Y10735150D01*
X8452030Y10757329D01*
X8443765Y10780428D01*
X8437804Y10804227D01*
X8434204Y10828495D01*
X8433000Y10852999D01*
X8433000Y11753001D01*
X8434204Y11777505D01*
X8437804Y11801773D01*
X8443765Y11825572D01*
X8452030Y11848671D01*
X8462520Y11870850D01*
X8475132Y11891893D01*
X8489747Y11911599D01*
X8506223Y11929777D01*
X8524401Y11946253D01*
X8544107Y11960868D01*
X8565150Y11973480D01*
X8587329Y11983970D01*
X8610428Y11992235D01*
X8634227Y11998196D01*
X8658495Y12001796D01*
X8682999Y12003000D01*
X9333001Y12003000D01*
X9357505Y12001796D01*
X9357505Y12001796D01*
G37*
D16*
G04 #@! TD*
G04 #@! TO.P,R3,1*
G04 #@! TO.N,Net-(J9-Pad1)*
X9008000Y11303000D03*
D14*
G04 #@! TO.N,Net-(J9-Pad1)*
G04 #@! TO.C,R4*
G36*
X9230505Y9715796D02*
X9254773Y9712196D01*
X9278572Y9706235D01*
X9301671Y9697970D01*
X9323850Y9687480D01*
X9344893Y9674868D01*
X9364599Y9660253D01*
X9382777Y9643777D01*
X9399253Y9625599D01*
X9413868Y9605893D01*
X9426480Y9584850D01*
X9436970Y9562671D01*
X9445235Y9539572D01*
X9451196Y9515773D01*
X9454796Y9491505D01*
X9456000Y9467001D01*
X9456000Y8566999D01*
X9454796Y8542495D01*
X9451196Y8518227D01*
X9445235Y8494428D01*
X9436970Y8471329D01*
X9426480Y8449150D01*
X9413868Y8428107D01*
X9399253Y8408401D01*
X9382777Y8390223D01*
X9364599Y8373747D01*
X9344893Y8359132D01*
X9323850Y8346520D01*
X9301671Y8336030D01*
X9278572Y8327765D01*
X9254773Y8321804D01*
X9230505Y8318204D01*
X9206001Y8317000D01*
X8555999Y8317000D01*
X8531495Y8318204D01*
X8507227Y8321804D01*
X8483428Y8327765D01*
X8460329Y8336030D01*
X8438150Y8346520D01*
X8417107Y8359132D01*
X8397401Y8373747D01*
X8379223Y8390223D01*
X8362747Y8408401D01*
X8348132Y8428107D01*
X8335520Y8449150D01*
X8325030Y8471329D01*
X8316765Y8494428D01*
X8310804Y8518227D01*
X8307204Y8542495D01*
X8306000Y8566999D01*
X8306000Y9467001D01*
X8307204Y9491505D01*
X8310804Y9515773D01*
X8316765Y9539572D01*
X8325030Y9562671D01*
X8335520Y9584850D01*
X8348132Y9605893D01*
X8362747Y9625599D01*
X8379223Y9643777D01*
X8397401Y9660253D01*
X8417107Y9674868D01*
X8438150Y9687480D01*
X8460329Y9697970D01*
X8483428Y9706235D01*
X8507227Y9712196D01*
X8531495Y9715796D01*
X8555999Y9717000D01*
X9206001Y9717000D01*
X9230505Y9715796D01*
X9230505Y9715796D01*
G37*
D16*
G04 #@! TD*
G04 #@! TO.P,R4,1*
G04 #@! TO.N,Net-(J9-Pad1)*
X8881000Y9017000D03*
D14*
G04 #@! TO.N,/RB2*
G04 #@! TO.C,R4*
G36*
X11280505Y9715796D02*
X11304773Y9712196D01*
X11328572Y9706235D01*
X11351671Y9697970D01*
X11373850Y9687480D01*
X11394893Y9674868D01*
X11414599Y9660253D01*
X11432777Y9643777D01*
X11449253Y9625599D01*
X11463868Y9605893D01*
X11476480Y9584850D01*
X11486970Y9562671D01*
X11495235Y9539572D01*
X11501196Y9515773D01*
X11504796Y9491505D01*
X11506000Y9467001D01*
X11506000Y8566999D01*
X11504796Y8542495D01*
X11501196Y8518227D01*
X11495235Y8494428D01*
X11486970Y8471329D01*
X11476480Y8449150D01*
X11463868Y8428107D01*
X11449253Y8408401D01*
X11432777Y8390223D01*
X11414599Y8373747D01*
X11394893Y8359132D01*
X11373850Y8346520D01*
X11351671Y8336030D01*
X11328572Y8327765D01*
X11304773Y8321804D01*
X11280505Y8318204D01*
X11256001Y8317000D01*
X10605999Y8317000D01*
X10581495Y8318204D01*
X10557227Y8321804D01*
X10533428Y8327765D01*
X10510329Y8336030D01*
X10488150Y8346520D01*
X10467107Y8359132D01*
X10447401Y8373747D01*
X10429223Y8390223D01*
X10412747Y8408401D01*
X10398132Y8428107D01*
X10385520Y8449150D01*
X10375030Y8471329D01*
X10366765Y8494428D01*
X10360804Y8518227D01*
X10357204Y8542495D01*
X10356000Y8566999D01*
X10356000Y9467001D01*
X10357204Y9491505D01*
X10360804Y9515773D01*
X10366765Y9539572D01*
X10375030Y9562671D01*
X10385520Y9584850D01*
X10398132Y9605893D01*
X10412747Y9625599D01*
X10429223Y9643777D01*
X10447401Y9660253D01*
X10467107Y9674868D01*
X10488150Y9687480D01*
X10510329Y9697970D01*
X10533428Y9706235D01*
X10557227Y9712196D01*
X10581495Y9715796D01*
X10605999Y9717000D01*
X11256001Y9717000D01*
X11280505Y9715796D01*
X11280505Y9715796D01*
G37*
D16*
G04 #@! TD*
G04 #@! TO.P,R4,2*
G04 #@! TO.N,/RB2*
X10931000Y9017000D03*
D14*
G04 #@! TO.N,/RB3*
G04 #@! TO.C,R5*
G36*
X11398505Y7175796D02*
X11422773Y7172196D01*
X11446572Y7166235D01*
X11469671Y7157970D01*
X11491850Y7147480D01*
X11512893Y7134868D01*
X11532599Y7120253D01*
X11550777Y7103777D01*
X11567253Y7085599D01*
X11581868Y7065893D01*
X11594480Y7044850D01*
X11604970Y7022671D01*
X11613235Y6999572D01*
X11619196Y6975773D01*
X11622796Y6951505D01*
X11624000Y6927001D01*
X11624000Y6026999D01*
X11622796Y6002495D01*
X11619196Y5978227D01*
X11613235Y5954428D01*
X11604970Y5931329D01*
X11594480Y5909150D01*
X11581868Y5888107D01*
X11567253Y5868401D01*
X11550777Y5850223D01*
X11532599Y5833747D01*
X11512893Y5819132D01*
X11491850Y5806520D01*
X11469671Y5796030D01*
X11446572Y5787765D01*
X11422773Y5781804D01*
X11398505Y5778204D01*
X11374001Y5777000D01*
X10723999Y5777000D01*
X10699495Y5778204D01*
X10675227Y5781804D01*
X10651428Y5787765D01*
X10628329Y5796030D01*
X10606150Y5806520D01*
X10585107Y5819132D01*
X10565401Y5833747D01*
X10547223Y5850223D01*
X10530747Y5868401D01*
X10516132Y5888107D01*
X10503520Y5909150D01*
X10493030Y5931329D01*
X10484765Y5954428D01*
X10478804Y5978227D01*
X10475204Y6002495D01*
X10474000Y6026999D01*
X10474000Y6927001D01*
X10475204Y6951505D01*
X10478804Y6975773D01*
X10484765Y6999572D01*
X10493030Y7022671D01*
X10503520Y7044850D01*
X10516132Y7065893D01*
X10530747Y7085599D01*
X10547223Y7103777D01*
X10565401Y7120253D01*
X10585107Y7134868D01*
X10606150Y7147480D01*
X10628329Y7157970D01*
X10651428Y7166235D01*
X10675227Y7172196D01*
X10699495Y7175796D01*
X10723999Y7177000D01*
X11374001Y7177000D01*
X11398505Y7175796D01*
X11398505Y7175796D01*
G37*
D16*
G04 #@! TD*
G04 #@! TO.P,R5,2*
G04 #@! TO.N,/RB3*
X11049000Y6477000D03*
D14*
G04 #@! TO.N,Net-(J9-Pad1)*
G04 #@! TO.C,R5*
G36*
X9348505Y7175796D02*
X9372773Y7172196D01*
X9396572Y7166235D01*
X9419671Y7157970D01*
X9441850Y7147480D01*
X9462893Y7134868D01*
X9482599Y7120253D01*
X9500777Y7103777D01*
X9517253Y7085599D01*
X9531868Y7065893D01*
X9544480Y7044850D01*
X9554970Y7022671D01*
X9563235Y6999572D01*
X9569196Y6975773D01*
X9572796Y6951505D01*
X9574000Y6927001D01*
X9574000Y6026999D01*
X9572796Y6002495D01*
X9569196Y5978227D01*
X9563235Y5954428D01*
X9554970Y5931329D01*
X9544480Y5909150D01*
X9531868Y5888107D01*
X9517253Y5868401D01*
X9500777Y5850223D01*
X9482599Y5833747D01*
X9462893Y5819132D01*
X9441850Y5806520D01*
X9419671Y5796030D01*
X9396572Y5787765D01*
X9372773Y5781804D01*
X9348505Y5778204D01*
X9324001Y5777000D01*
X8673999Y5777000D01*
X8649495Y5778204D01*
X8625227Y5781804D01*
X8601428Y5787765D01*
X8578329Y5796030D01*
X8556150Y5806520D01*
X8535107Y5819132D01*
X8515401Y5833747D01*
X8497223Y5850223D01*
X8480747Y5868401D01*
X8466132Y5888107D01*
X8453520Y5909150D01*
X8443030Y5931329D01*
X8434765Y5954428D01*
X8428804Y5978227D01*
X8425204Y6002495D01*
X8424000Y6026999D01*
X8424000Y6927001D01*
X8425204Y6951505D01*
X8428804Y6975773D01*
X8434765Y6999572D01*
X8443030Y7022671D01*
X8453520Y7044850D01*
X8466132Y7065893D01*
X8480747Y7085599D01*
X8497223Y7103777D01*
X8515401Y7120253D01*
X8535107Y7134868D01*
X8556150Y7147480D01*
X8578329Y7157970D01*
X8601428Y7166235D01*
X8625227Y7172196D01*
X8649495Y7175796D01*
X8673999Y7177000D01*
X9324001Y7177000D01*
X9348505Y7175796D01*
X9348505Y7175796D01*
G37*
D16*
G04 #@! TD*
G04 #@! TO.P,R5,1*
G04 #@! TO.N,Net-(J9-Pad1)*
X8999000Y6477000D03*
D14*
G04 #@! TO.N,+5V*
G04 #@! TO.C,R7*
G36*
X34394505Y14287796D02*
X34418773Y14284196D01*
X34442572Y14278235D01*
X34465671Y14269970D01*
X34487850Y14259480D01*
X34508893Y14246868D01*
X34528599Y14232253D01*
X34546777Y14215777D01*
X34563253Y14197599D01*
X34577868Y14177893D01*
X34590480Y14156850D01*
X34600970Y14134671D01*
X34609235Y14111572D01*
X34615196Y14087773D01*
X34618796Y14063505D01*
X34620000Y14039001D01*
X34620000Y13138999D01*
X34618796Y13114495D01*
X34615196Y13090227D01*
X34609235Y13066428D01*
X34600970Y13043329D01*
X34590480Y13021150D01*
X34577868Y13000107D01*
X34563253Y12980401D01*
X34546777Y12962223D01*
X34528599Y12945747D01*
X34508893Y12931132D01*
X34487850Y12918520D01*
X34465671Y12908030D01*
X34442572Y12899765D01*
X34418773Y12893804D01*
X34394505Y12890204D01*
X34370001Y12889000D01*
X33719999Y12889000D01*
X33695495Y12890204D01*
X33671227Y12893804D01*
X33647428Y12899765D01*
X33624329Y12908030D01*
X33602150Y12918520D01*
X33581107Y12931132D01*
X33561401Y12945747D01*
X33543223Y12962223D01*
X33526747Y12980401D01*
X33512132Y13000107D01*
X33499520Y13021150D01*
X33489030Y13043329D01*
X33480765Y13066428D01*
X33474804Y13090227D01*
X33471204Y13114495D01*
X33470000Y13138999D01*
X33470000Y14039001D01*
X33471204Y14063505D01*
X33474804Y14087773D01*
X33480765Y14111572D01*
X33489030Y14134671D01*
X33499520Y14156850D01*
X33512132Y14177893D01*
X33526747Y14197599D01*
X33543223Y14215777D01*
X33561401Y14232253D01*
X33581107Y14246868D01*
X33602150Y14259480D01*
X33624329Y14269970D01*
X33647428Y14278235D01*
X33671227Y14284196D01*
X33695495Y14287796D01*
X33719999Y14289000D01*
X34370001Y14289000D01*
X34394505Y14287796D01*
X34394505Y14287796D01*
G37*
D16*
G04 #@! TD*
G04 #@! TO.P,R7,2*
G04 #@! TO.N,+5V*
X34045000Y13589000D03*
D14*
G04 #@! TO.N,/RE3_MCLR*
G04 #@! TO.C,R7*
G36*
X32344505Y14287796D02*
X32368773Y14284196D01*
X32392572Y14278235D01*
X32415671Y14269970D01*
X32437850Y14259480D01*
X32458893Y14246868D01*
X32478599Y14232253D01*
X32496777Y14215777D01*
X32513253Y14197599D01*
X32527868Y14177893D01*
X32540480Y14156850D01*
X32550970Y14134671D01*
X32559235Y14111572D01*
X32565196Y14087773D01*
X32568796Y14063505D01*
X32570000Y14039001D01*
X32570000Y13138999D01*
X32568796Y13114495D01*
X32565196Y13090227D01*
X32559235Y13066428D01*
X32550970Y13043329D01*
X32540480Y13021150D01*
X32527868Y13000107D01*
X32513253Y12980401D01*
X32496777Y12962223D01*
X32478599Y12945747D01*
X32458893Y12931132D01*
X32437850Y12918520D01*
X32415671Y12908030D01*
X32392572Y12899765D01*
X32368773Y12893804D01*
X32344505Y12890204D01*
X32320001Y12889000D01*
X31669999Y12889000D01*
X31645495Y12890204D01*
X31621227Y12893804D01*
X31597428Y12899765D01*
X31574329Y12908030D01*
X31552150Y12918520D01*
X31531107Y12931132D01*
X31511401Y12945747D01*
X31493223Y12962223D01*
X31476747Y12980401D01*
X31462132Y13000107D01*
X31449520Y13021150D01*
X31439030Y13043329D01*
X31430765Y13066428D01*
X31424804Y13090227D01*
X31421204Y13114495D01*
X31420000Y13138999D01*
X31420000Y14039001D01*
X31421204Y14063505D01*
X31424804Y14087773D01*
X31430765Y14111572D01*
X31439030Y14134671D01*
X31449520Y14156850D01*
X31462132Y14177893D01*
X31476747Y14197599D01*
X31493223Y14215777D01*
X31511401Y14232253D01*
X31531107Y14246868D01*
X31552150Y14259480D01*
X31574329Y14269970D01*
X31597428Y14278235D01*
X31621227Y14284196D01*
X31645495Y14287796D01*
X31669999Y14289000D01*
X32320001Y14289000D01*
X32344505Y14287796D01*
X32344505Y14287796D01*
G37*
D16*
G04 #@! TD*
G04 #@! TO.P,R7,1*
G04 #@! TO.N,/RE3_MCLR*
X31995000Y13589000D03*
D17*
G04 #@! TO.P,RESET,1*
G04 #@! TO.N,Earth*
X33781000Y10287000D03*
G04 #@! TO.P,RESET,2*
G04 #@! TO.N,/RE3_MCLR*
X27051000Y10287000D03*
G04 #@! TD*
D18*
G04 #@! TO.P,U2,2*
G04 #@! TO.N,+5V*
X5334000Y25019000D03*
D19*
X11634000Y25019000D03*
G04 #@! TO.P,U2,3*
G04 #@! TO.N,Net-(J2-Pad2)*
X11634000Y27319000D03*
G04 #@! TO.P,U2,1*
G04 #@! TO.N,Earth*
X11634000Y22719000D03*
G04 #@! TD*
D20*
G04 #@! TO.P,Y1,1*
G04 #@! TO.N,Net-(220uf1-Pad1)*
X34671000Y25908000D03*
G04 #@! TO.P,Y1,2*
G04 #@! TO.N,Net-(220uf2-Pad1)*
X34671000Y21028000D03*
G04 #@! TD*
D21*
G04 #@! TO.N,Earth*
X30226000Y13462000D03*
X36830000Y17399000D03*
X33655000Y15621000D03*
X12065000Y22606000D03*
X16002000Y16510000D03*
X10273000Y19431000D03*
X9892000Y16764000D03*
X33781000Y10287000D03*
X23501497Y17113495D03*
X13589000Y22352000D03*
G04 #@! TO.N,+5V*
X11811000Y25019000D03*
X34036000Y13589000D03*
X5207000Y24765000D03*
X8142000Y16764000D03*
X8523000Y19431000D03*
X22987000Y16256000D03*
X38100000Y13843000D03*
X12319000Y16637000D03*
X17938912Y15370378D03*
G04 #@! TO.N,/RE3_MCLR*
X26416000Y10033000D03*
X22987000Y12446000D03*
G04 #@! TO.N,Net-(220uf1-Pad1)*
X27813000Y22479000D03*
G04 #@! TO.N,/RB0*
X10922000Y13716000D03*
X12446000Y13970000D03*
G04 #@! TO.N,/RB1*
X11176000Y11430000D03*
X15629849Y14385457D03*
G04 #@! TO.N,/RB2*
X15494000Y13208000D03*
X11176000Y8890000D03*
G04 #@! TO.N,/RA3*
X24637952Y9016953D03*
G04 #@! TO.N,/RA1*
X23368000Y7620000D03*
G04 #@! TO.N,/RA0*
X21082000Y8763000D03*
G04 #@! TO.N,/RB5*
X16492938Y13161873D03*
G04 #@! TO.N,/RB4*
X15506651Y12195346D03*
G04 #@! TO.N,/RB3*
X11049000Y6477000D03*
G04 #@! TO.N,/RC0*
X27178000Y19812000D03*
G04 #@! TO.N,/RE2*
X35179000Y15495001D03*
G04 #@! TO.N,/RE0*
X27178000Y13970000D03*
G04 #@! TO.N,/RA5*
X27051000Y12700000D03*
G04 #@! TO.N,/RA4*
X26289000Y11447002D03*
G04 #@! TO.N,/RC1*
X23241000Y20193000D03*
G04 #@! TO.N,/RC3*
X23368000Y28829000D03*
G04 #@! TO.N,/RC4*
X13363115Y24484033D03*
X14732000Y21844000D03*
X17241654Y20289654D03*
G04 #@! TO.N,Net-(J2-Pad2)*
X11684000Y27305000D03*
G04 #@! TD*
D22*
G04 #@! TO.N,Earth*
X14872000Y16370000D02*
X14046200Y16370000D01*
X15296315Y16370000D02*
X14872000Y16370000D01*
X15436315Y16510000D02*
X15296315Y16370000D01*
X16002000Y16510000D02*
X15436315Y16510000D01*
X33781000Y9399000D02*
X36068000Y7112000D01*
X33781000Y10287000D02*
X33781000Y10287000D01*
X33387000Y10287000D02*
X33781000Y10287000D01*
X33781000Y10287000D02*
X33781000Y9399000D01*
X25216494Y17113495D02*
X25273000Y17170001D01*
X23501497Y17113495D02*
X25216494Y17113495D01*
X13222000Y22719000D02*
X13589000Y22352000D01*
X11634000Y22719000D02*
X13222000Y22719000D01*
G04 #@! TO.N,+5V*
X5715000Y10287000D02*
X6223000Y10287000D01*
X2032000Y13970000D02*
X5715000Y10287000D01*
X13825200Y15790999D02*
X14046200Y15569999D01*
X8142000Y16764000D02*
X9115001Y15790999D01*
X14192429Y15423770D02*
X14046200Y15569999D01*
X25159000Y16256000D02*
X25273000Y16370000D01*
X22987000Y16256000D02*
X25159000Y16256000D01*
X38100000Y17780000D02*
X40005000Y19685000D01*
X38100000Y13843000D02*
X38100000Y17780000D01*
X11919001Y15809998D02*
X11938000Y15790999D01*
X11919001Y16237001D02*
X11919001Y15809998D01*
X12319000Y16637000D02*
X11919001Y16237001D01*
X9115001Y15790999D02*
X11938000Y15790999D01*
X11938000Y15790999D02*
X13825200Y15790999D01*
X14245821Y15370378D02*
X14046200Y15569999D01*
X17938912Y15370378D02*
X14245821Y15370378D01*
G04 #@! TO.N,Net-(D1-Pad2)*
X29443372Y6361628D02*
X28820000Y6985000D01*
X29845010Y5959990D02*
X29443372Y6361628D01*
X32865990Y5959990D02*
X29845010Y5959990D01*
X34018000Y7112000D02*
X32865990Y5959990D01*
G04 #@! TO.N,/RE3_MCLR*
X20459601Y9770000D02*
X20459601Y10756600D01*
X20287999Y9598398D02*
X20459601Y9770000D01*
X21590000Y3234081D02*
X20287999Y4536082D01*
X21590000Y2032000D02*
X21590000Y3234081D01*
X26543000Y6180000D02*
X25865000Y6858000D01*
X26543000Y5080000D02*
X26543000Y6180000D01*
X20287999Y6858000D02*
X20287999Y9598398D01*
X20668999Y6858000D02*
X20287999Y6477000D01*
X25865000Y6858000D02*
X20668999Y6858000D01*
X20287999Y4536082D02*
X20287999Y6477000D01*
X20287999Y6477000D02*
X20287999Y6858000D01*
X20459601Y11743200D02*
X20459601Y10756600D01*
X21162401Y12446000D02*
X20459601Y11743200D01*
X22987000Y12446000D02*
X21162401Y12446000D01*
X27571000Y10287000D02*
X27051000Y10287000D01*
X28462000Y11178000D02*
X27571000Y10287000D01*
X28462000Y13462000D02*
X28462000Y11178000D01*
X28961072Y13961072D02*
X28462000Y13462000D01*
X29262010Y14262010D02*
X28961072Y13961072D01*
X31321990Y14262010D02*
X29262010Y14262010D01*
X31995000Y13589000D02*
X31321990Y14262010D01*
G04 #@! TO.N,Net-(220uf1-Pad1)*
X31115000Y25908000D02*
X30480000Y25273000D01*
X34671000Y25908000D02*
X31115000Y25908000D01*
X29750001Y20541999D02*
X27813000Y22479000D01*
X33565999Y20541999D02*
X29750001Y20541999D01*
X34154072Y19953926D02*
X33565999Y20541999D01*
X33655000Y17385000D02*
X34154072Y17884072D01*
X34154072Y17884072D02*
X34154072Y19953926D01*
G04 #@! TO.N,Net-(220uf2-Pad1)*
X34671000Y17794000D02*
X34671000Y21028000D01*
X36830000Y15635000D02*
X34671000Y17794000D01*
X31169000Y21028000D02*
X30480000Y21717000D01*
X34671000Y21028000D02*
X31169000Y21028000D01*
G04 #@! TO.N,/RB7_PGD*
X19659600Y9770000D02*
X19659600Y10756600D01*
X19659600Y7018681D02*
X19659600Y9770000D01*
X18923000Y6282081D02*
X19659600Y7018681D01*
X18923000Y5080000D02*
X18923000Y6282081D01*
X18923000Y2159000D02*
X19050000Y2032000D01*
X18923000Y5080000D02*
X18923000Y2159000D01*
G04 #@! TO.N,/RB6_PGC*
X16510000Y4953000D02*
X16383000Y5080000D01*
X16510000Y2032000D02*
X16510000Y4953000D01*
X18859599Y7556599D02*
X18859599Y10756600D01*
X16383000Y5080000D02*
X18859599Y7556599D01*
G04 #@! TO.N,/RC7*
X11789579Y21640021D02*
X13059600Y20370000D01*
X10377977Y21640021D02*
X11789579Y21640021D01*
X10308999Y21708999D02*
X10377977Y21640021D01*
X13059600Y20370000D02*
X14046200Y20370000D01*
X10308999Y23529003D02*
X10308999Y21708999D01*
X6594001Y27244001D02*
X10308999Y23529003D01*
X3706001Y27244001D02*
X6594001Y27244001D01*
X3132000Y26670000D02*
X3706001Y27244001D01*
X2032000Y26670000D02*
X3132000Y26670000D01*
X15032800Y20370000D02*
X14046200Y20370000D01*
X16136002Y20370000D02*
X15032800Y20370000D01*
X23712001Y12794001D02*
X16136002Y20370000D01*
X23712001Y12355397D02*
X23712001Y12794001D01*
X25871001Y9307999D02*
X24238601Y10940399D01*
X24238601Y10940399D02*
X24238601Y11828797D01*
X29347001Y9307999D02*
X25871001Y9307999D01*
X30870000Y7785000D02*
X29347001Y9307999D01*
X24238601Y11828797D02*
X23712001Y12355397D01*
X30870000Y6985000D02*
X30870000Y7785000D01*
G04 #@! TO.N,/RD4*
X13059600Y19569999D02*
X14046200Y19569999D01*
X11439588Y21190011D02*
X13059600Y19569999D01*
X4971989Y21190011D02*
X11439588Y21190011D01*
X2032000Y24130000D02*
X4971989Y21190011D01*
G04 #@! TO.N,/RD5*
X13059600Y18770000D02*
X14046200Y18770000D01*
X9752500Y18630990D02*
X12920590Y18630990D01*
X12920590Y18630990D02*
X13059600Y18770000D01*
X9373010Y19010480D02*
X9752500Y18630990D01*
X9373010Y19901500D02*
X9373010Y19010480D01*
X8534509Y20740001D02*
X9373010Y19901500D01*
X2881999Y20740001D02*
X8534509Y20740001D01*
X2032000Y21590000D02*
X2881999Y20740001D01*
G04 #@! TO.N,/RD6*
X13059600Y17969999D02*
X14046200Y17969999D01*
X13015579Y18014020D02*
X13059600Y17969999D01*
X4270061Y18014020D02*
X13015579Y18014020D01*
X3234081Y19050000D02*
X4270061Y18014020D01*
X2032000Y19050000D02*
X3234081Y19050000D01*
G04 #@! TO.N,/RD7*
X13059600Y17170001D02*
X14046200Y17170001D01*
X12665591Y17564010D02*
X13059600Y17170001D01*
X3086010Y17564010D02*
X12665591Y17564010D01*
X2032000Y16510000D02*
X3086010Y17564010D01*
G04 #@! TO.N,/RB0*
X13246001Y14770001D02*
X14046200Y14770001D01*
X12446000Y13970000D02*
X13246001Y14770001D01*
G04 #@! TO.N,/RB1*
X15229850Y13985458D02*
X14843542Y13985458D01*
X15629849Y14385457D02*
X15229850Y13985458D01*
X14828084Y13970000D02*
X14046200Y13970000D01*
X14843542Y13985458D02*
X14828084Y13970000D01*
G04 #@! TO.N,/RB2*
X14084199Y13208000D02*
X14046200Y13170001D01*
X15494000Y13208000D02*
X14084199Y13208000D01*
G04 #@! TO.N,/RA3*
X24637952Y9778248D02*
X23659600Y10756600D01*
X24637952Y9016953D02*
X24637952Y9778248D01*
G04 #@! TO.N,/RA2*
X27919990Y5988012D02*
X25653002Y8255000D01*
X29210000Y2032000D02*
X27919990Y3322010D01*
X27919990Y3322010D02*
X27919990Y5988012D01*
X22859599Y9770000D02*
X22859599Y10756600D01*
X24374599Y8255000D02*
X22859599Y9770000D01*
X25653002Y8255000D02*
X24374599Y8255000D01*
G04 #@! TO.N,/RA1*
X22098000Y10718200D02*
X22059600Y10756600D01*
X22059600Y8928400D02*
X23368000Y7620000D01*
X22059600Y10756600D02*
X22059600Y8928400D01*
G04 #@! TO.N,/RA0*
X21082000Y10579001D02*
X21259599Y10756600D01*
X21082000Y8763000D02*
X21082000Y10579001D01*
G04 #@! TO.N,/RB5*
X18059601Y11595210D02*
X18059601Y10756600D01*
X16492938Y13161873D02*
X18059601Y11595210D01*
G04 #@! TO.N,/RB4*
X17259600Y11743200D02*
X17259600Y10756600D01*
X16807454Y12195346D02*
X17259600Y11743200D01*
X15506651Y12195346D02*
X16807454Y12195346D01*
G04 #@! TO.N,/RB3*
X14046200Y11866000D02*
X14046200Y12370000D01*
X14046200Y10544010D02*
X14046200Y11866000D01*
X11672372Y8170182D02*
X14046200Y10544010D01*
X11672372Y7100372D02*
X11672372Y8170182D01*
X11049000Y6477000D02*
X11672372Y7100372D01*
G04 #@! TO.N,/RC0*
X26935999Y19569999D02*
X25273000Y19569999D01*
X27178000Y19812000D02*
X26935999Y19569999D01*
G04 #@! TO.N,/RA6*
X26259600Y18770000D02*
X25273000Y18770000D01*
X28973000Y18770000D02*
X26259600Y18770000D01*
X29380000Y19177000D02*
X28973000Y18770000D01*
X30480000Y19177000D02*
X29380000Y19177000D01*
G04 #@! TO.N,/RA7*
X29304999Y26637999D02*
X29630001Y26963001D01*
X29304999Y26053197D02*
X29304999Y26637999D01*
X24211399Y20959597D02*
X29304999Y26053197D01*
X24211399Y18045000D02*
X24211399Y20959597D01*
X24286400Y17969999D02*
X24211399Y18045000D01*
X29630001Y26963001D02*
X30480000Y27813000D01*
X25273000Y17969999D02*
X24286400Y17969999D01*
X34417000Y27813000D02*
X30480000Y27813000D01*
X40005000Y22225000D02*
X34417000Y27813000D01*
G04 #@! TO.N,/RE2*
X26259600Y15569999D02*
X25273000Y15569999D01*
X27174611Y16485010D02*
X26259600Y15569999D01*
X34188991Y16485010D02*
X27174611Y16485010D01*
X35179000Y15495001D02*
X34188991Y16485010D01*
G04 #@! TO.N,/RE1*
X26259600Y14770001D02*
X25273000Y14770001D01*
X36097918Y14770001D02*
X26259600Y14770001D01*
X38802919Y12065000D02*
X36097918Y14770001D01*
X40005000Y12065000D02*
X38802919Y12065000D01*
G04 #@! TO.N,/RE0*
X27178000Y13970000D02*
X25273000Y13970000D01*
G04 #@! TO.N,/RA5*
X26580999Y13170001D02*
X25273000Y13170001D01*
X27051000Y12700000D02*
X26580999Y13170001D01*
G04 #@! TO.N,/RA4*
X26195998Y11447002D02*
X25273000Y12370000D01*
X26289000Y11447002D02*
X26195998Y11447002D01*
G04 #@! TO.N,/RC1*
X22859599Y20574401D02*
X22859599Y21983400D01*
X23241000Y20193000D02*
X22859599Y20574401D01*
G04 #@! TO.N,/RC2*
X22134601Y23045001D02*
X22059600Y22970000D01*
X25165003Y23045001D02*
X22134601Y23045001D01*
X22059600Y22970000D02*
X22059600Y21983400D01*
X26702001Y24581999D02*
X25165003Y23045001D01*
X26702001Y29026999D02*
X26702001Y24581999D01*
X28917002Y31242000D02*
X26702001Y29026999D01*
X29718000Y31242000D02*
X28917002Y31242000D01*
G04 #@! TO.N,/RC3*
X22710599Y28171599D02*
X23368000Y28829000D01*
X22710599Y24421000D02*
X22710599Y28171599D01*
X21259599Y21983400D02*
X21259599Y22970000D01*
X21259599Y22970000D02*
X22710599Y24421000D01*
G04 #@! TO.N,/RD0*
X20459601Y22970000D02*
X20459601Y21983400D01*
X22260589Y24770988D02*
X20459601Y22970000D01*
X22260589Y28864589D02*
X22260589Y24770988D01*
X24638000Y31242000D02*
X22260589Y28864589D01*
G04 #@! TO.N,/RD1*
X22098000Y30039919D02*
X21114001Y29055920D01*
X19659600Y22970000D02*
X19659600Y21983400D01*
X21114001Y24424401D02*
X19659600Y22970000D01*
X21114001Y29055920D02*
X21114001Y24424401D01*
X22098000Y31242000D02*
X22098000Y30039919D01*
G04 #@! TO.N,/RD2*
X18859599Y22639003D02*
X18859599Y21983400D01*
X18859599Y22970000D02*
X18859599Y21983400D01*
X18193001Y23636598D02*
X18859599Y22970000D01*
X18193001Y29877001D02*
X18193001Y23636598D01*
X19558000Y31242000D02*
X18193001Y29877001D01*
G04 #@! TO.N,/RD3*
X18059601Y22970000D02*
X18059601Y21983400D01*
X17984600Y23045001D02*
X18059601Y22970000D01*
X17021010Y23045001D02*
X17984600Y23045001D01*
X15621000Y24445011D02*
X17021010Y23045001D01*
X15621000Y28642919D02*
X15621000Y24445011D01*
X17018000Y30039919D02*
X15621000Y28642919D01*
X17018000Y31242000D02*
X17018000Y30039919D01*
G04 #@! TO.N,/RC4*
X14732000Y22282002D02*
X14732000Y21844000D01*
X13363115Y24484033D02*
X13363115Y23650887D01*
X13363115Y23650887D02*
X14732000Y22282002D01*
X17241654Y21965454D02*
X17259600Y21983400D01*
X17241654Y20289654D02*
X17241654Y21965454D01*
G04 #@! TO.N,/RC5*
X14605000Y28067000D02*
X14605000Y24316601D01*
X14605000Y24316601D02*
X14823602Y24097999D01*
X12787999Y29884001D02*
X14605000Y28067000D01*
X12787999Y30392001D02*
X12787999Y29884001D01*
X11938000Y31242000D02*
X12787999Y30392001D01*
X16459601Y22970000D02*
X16459601Y21983400D01*
X15331602Y24097999D02*
X16459601Y22970000D01*
X14823602Y24097999D02*
X15331602Y24097999D01*
G04 #@! TO.N,/RC6*
X9398000Y31242000D02*
X10046002Y31242000D01*
X14097000Y27191002D02*
X14097000Y26416000D01*
X9473001Y30066999D02*
X11221003Y30066999D01*
X9398000Y31242000D02*
X9398000Y30142000D01*
X9398000Y30142000D02*
X9473001Y30066999D01*
X14097000Y26416000D02*
X14097000Y24003000D01*
X11221003Y30066999D02*
X14097000Y27191002D01*
X14097000Y26661402D02*
X14097000Y26416000D01*
X15659600Y22466000D02*
X15659600Y21983400D01*
X14122600Y24003000D02*
X15659600Y22466000D01*
X14097000Y24003000D02*
X14122600Y24003000D01*
G04 #@! TO.N,Net-(J9-Pad1)*
X8119000Y12827000D02*
X8881000Y13589000D01*
X6223000Y12827000D02*
X8119000Y12827000D01*
X8881000Y11430000D02*
X9008000Y11303000D01*
X8881000Y13589000D02*
X8881000Y11430000D01*
X9008000Y9144000D02*
X8881000Y9017000D01*
X9008000Y11303000D02*
X9008000Y9144000D01*
X8881000Y6595000D02*
X8999000Y6477000D01*
X8881000Y9017000D02*
X8881000Y6595000D01*
G04 #@! TD*
D23*
G04 #@! TO.N,Earth*
G36*
X41783000Y254000D02*
X254000Y254000D01*
X254000Y26670000D01*
X517908Y26670000D01*
X633161Y26090582D01*
X961375Y25599375D01*
X1259761Y25400000D01*
X961375Y25200625D01*
X633161Y24709418D01*
X517908Y24130000D01*
X633161Y23550582D01*
X961375Y23059375D01*
X1259761Y22860000D01*
X961375Y22660625D01*
X633161Y22169418D01*
X517908Y21590000D01*
X633161Y21010582D01*
X961375Y20519375D01*
X1259761Y20320000D01*
X961375Y20120625D01*
X633161Y19629418D01*
X517908Y19050000D01*
X633161Y18470582D01*
X961375Y17979375D01*
X1259761Y17780000D01*
X961375Y17580625D01*
X633161Y17089418D01*
X517908Y16510000D01*
X633161Y15930582D01*
X961375Y15439375D01*
X1259761Y15240000D01*
X961375Y15040625D01*
X633161Y14549418D01*
X517908Y13970000D01*
X633161Y13390582D01*
X961375Y12899375D01*
X1280478Y12686157D01*
X1150642Y12625183D01*
X760355Y12196924D01*
X590524Y11786890D01*
X711845Y11557000D01*
X1905000Y11557000D01*
X1905000Y11577000D01*
X2159000Y11577000D01*
X2159000Y11557000D01*
X2179000Y11557000D01*
X2179000Y11303000D01*
X2159000Y11303000D01*
X2159000Y11283000D01*
X1905000Y11283000D01*
X1905000Y11303000D01*
X711845Y11303000D01*
X590524Y11073110D01*
X760355Y10663076D01*
X1150642Y10234817D01*
X1280478Y10173843D01*
X961375Y9960625D01*
X633161Y9469418D01*
X517908Y8890000D01*
X633161Y8310582D01*
X961375Y7819375D01*
X1259761Y7620000D01*
X961375Y7420625D01*
X633161Y6929418D01*
X517908Y6350000D01*
X633161Y5770582D01*
X961375Y5279375D01*
X1259761Y5080000D01*
X961375Y4880625D01*
X633161Y4389418D01*
X517908Y3810000D01*
X633161Y3230582D01*
X961375Y2739375D01*
X1452582Y2411161D01*
X1885744Y2325000D01*
X2178256Y2325000D01*
X2611418Y2411161D01*
X3102625Y2739375D01*
X3430839Y3230582D01*
X3546092Y3810000D01*
X3430839Y4389418D01*
X3102625Y4880625D01*
X2804239Y5080000D01*
X3102625Y5279375D01*
X3430839Y5770582D01*
X3546092Y6350000D01*
X3430839Y6929418D01*
X3102625Y7420625D01*
X2804239Y7620000D01*
X3102625Y7819375D01*
X3430839Y8310582D01*
X3546092Y8890000D01*
X3430839Y9469418D01*
X3102625Y9960625D01*
X2783522Y10173843D01*
X2913358Y10234817D01*
X3303645Y10663076D01*
X3473476Y11073110D01*
X3352156Y11302998D01*
X3517000Y11302998D01*
X3517000Y11410199D01*
X4725969Y10201229D01*
X4824161Y9707582D01*
X5152375Y9216375D01*
X5643582Y8888161D01*
X6076744Y8802000D01*
X6369256Y8802000D01*
X6802418Y8888161D01*
X7293625Y9216375D01*
X7621839Y9707582D01*
X7737092Y10287000D01*
X7621839Y10866418D01*
X7293625Y11357625D01*
X6995239Y11557000D01*
X7293625Y11756375D01*
X7501178Y12067000D01*
X7848018Y12067000D01*
X7785560Y11753001D01*
X7785560Y10852999D01*
X7853873Y10509564D01*
X8048414Y10218414D01*
X8072336Y10202430D01*
X7921414Y10101586D01*
X7726873Y9810436D01*
X7658560Y9467001D01*
X7658560Y8566999D01*
X7726873Y8223564D01*
X7921414Y7932414D01*
X8121001Y7799054D01*
X8121001Y7616101D01*
X8039414Y7561586D01*
X7844873Y7270436D01*
X7776560Y6927001D01*
X7776560Y6026999D01*
X7844873Y5683564D01*
X8039414Y5392414D01*
X8330564Y5197873D01*
X8673999Y5129560D01*
X9324001Y5129560D01*
X9667436Y5197873D01*
X9958586Y5392414D01*
X10024000Y5490313D01*
X10089414Y5392414D01*
X10380564Y5197873D01*
X10723999Y5129560D01*
X11374001Y5129560D01*
X11717436Y5197873D01*
X12008586Y5392414D01*
X12203127Y5683564D01*
X12271440Y6026999D01*
X12271440Y6628978D01*
X12388276Y6803835D01*
X12432372Y7025520D01*
X12432372Y7025524D01*
X12447260Y7100371D01*
X12432372Y7175218D01*
X12432372Y7855381D01*
X14530673Y9953681D01*
X14594129Y9996081D01*
X14669700Y10109181D01*
X14758160Y10241569D01*
X14758160Y10020000D01*
X14807443Y9772235D01*
X14947791Y9562191D01*
X15157835Y9421843D01*
X15405600Y9372560D01*
X15913600Y9372560D01*
X16059601Y9401601D01*
X16205601Y9372560D01*
X16713601Y9372560D01*
X16859600Y9401601D01*
X17005600Y9372560D01*
X17513600Y9372560D01*
X17659601Y9401601D01*
X17805601Y9372560D01*
X18099600Y9372560D01*
X18099599Y7871401D01*
X16749408Y6521209D01*
X16529256Y6565000D01*
X16236744Y6565000D01*
X15803582Y6478839D01*
X15312375Y6150625D01*
X14984161Y5659418D01*
X14868908Y5080000D01*
X14984161Y4500582D01*
X15312375Y4009375D01*
X15750001Y3716963D01*
X15750000Y3310178D01*
X15439375Y3102625D01*
X15240000Y2804239D01*
X15040625Y3102625D01*
X14549418Y3430839D01*
X14116256Y3517000D01*
X13823744Y3517000D01*
X13390582Y3430839D01*
X12899375Y3102625D01*
X12700000Y2804239D01*
X12500625Y3102625D01*
X12009418Y3430839D01*
X11576256Y3517000D01*
X11283744Y3517000D01*
X10850582Y3430839D01*
X10359375Y3102625D01*
X10160000Y2804239D01*
X9960625Y3102625D01*
X9469418Y3430839D01*
X9036256Y3517000D01*
X8743744Y3517000D01*
X8310582Y3430839D01*
X7819375Y3102625D01*
X7491161Y2611418D01*
X7375908Y2032000D01*
X7491161Y1452582D01*
X7819375Y961375D01*
X8310582Y633161D01*
X8743744Y547000D01*
X9036256Y547000D01*
X9469418Y633161D01*
X9960625Y961375D01*
X10160000Y1259761D01*
X10359375Y961375D01*
X10850582Y633161D01*
X11283744Y547000D01*
X11576256Y547000D01*
X12009418Y633161D01*
X12500625Y961375D01*
X12700000Y1259761D01*
X12899375Y961375D01*
X13390582Y633161D01*
X13823744Y547000D01*
X14116256Y547000D01*
X14549418Y633161D01*
X15040625Y961375D01*
X15240000Y1259761D01*
X15439375Y961375D01*
X15930582Y633161D01*
X16363744Y547000D01*
X16656256Y547000D01*
X17089418Y633161D01*
X17580625Y961375D01*
X17780000Y1259761D01*
X17979375Y961375D01*
X18470582Y633161D01*
X18903744Y547000D01*
X19196256Y547000D01*
X19629418Y633161D01*
X20120625Y961375D01*
X20320000Y1259761D01*
X20519375Y961375D01*
X21010582Y633161D01*
X21443744Y547000D01*
X21736256Y547000D01*
X22169418Y633161D01*
X22660625Y961375D01*
X22860000Y1259761D01*
X23059375Y961375D01*
X23550582Y633161D01*
X23983744Y547000D01*
X24276256Y547000D01*
X24709418Y633161D01*
X25200625Y961375D01*
X25400000Y1259761D01*
X25599375Y961375D01*
X26090582Y633161D01*
X26523744Y547000D01*
X26816256Y547000D01*
X27249418Y633161D01*
X27740625Y961375D01*
X27940000Y1259761D01*
X28139375Y961375D01*
X28630582Y633161D01*
X29063744Y547000D01*
X29356256Y547000D01*
X29789418Y633161D01*
X30280625Y961375D01*
X30480000Y1259761D01*
X30679375Y961375D01*
X31170582Y633161D01*
X31603744Y547000D01*
X31896256Y547000D01*
X32329418Y633161D01*
X32820625Y961375D01*
X33148839Y1452582D01*
X33264092Y2032000D01*
X33148839Y2611418D01*
X32820625Y3102625D01*
X32329418Y3430839D01*
X31896256Y3517000D01*
X31603744Y3517000D01*
X31170582Y3430839D01*
X30679375Y3102625D01*
X30480000Y2804239D01*
X30280625Y3102625D01*
X29789418Y3430839D01*
X29356256Y3517000D01*
X29063744Y3517000D01*
X28843592Y3473209D01*
X28679990Y3636811D01*
X28679990Y5637560D01*
X29092639Y5637560D01*
X29254679Y5475520D01*
X29297081Y5412061D01*
X29548473Y5244086D01*
X29770158Y5199990D01*
X29770163Y5199990D01*
X29845010Y5185102D01*
X29919857Y5199990D01*
X32791143Y5199990D01*
X32865990Y5185102D01*
X32940837Y5199990D01*
X32940842Y5199990D01*
X33162527Y5244086D01*
X33413919Y5412061D01*
X33456321Y5475520D01*
X33745361Y5764560D01*
X34343001Y5764560D01*
X34686436Y5832873D01*
X34977586Y6027414D01*
X34978377Y6028597D01*
X35133302Y5873673D01*
X35366691Y5777000D01*
X35782250Y5777000D01*
X35941000Y5935750D01*
X35941000Y6985000D01*
X36195000Y6985000D01*
X36195000Y5935750D01*
X36353750Y5777000D01*
X36769309Y5777000D01*
X37002698Y5873673D01*
X37181327Y6052301D01*
X37278000Y6285690D01*
X37278000Y6826250D01*
X37119250Y6985000D01*
X36195000Y6985000D01*
X35941000Y6985000D01*
X35921000Y6985000D01*
X35921000Y7239000D01*
X35941000Y7239000D01*
X35941000Y8288250D01*
X36195000Y8288250D01*
X36195000Y7239000D01*
X37119250Y7239000D01*
X37278000Y7397750D01*
X37278000Y7938310D01*
X37181327Y8171699D01*
X37002698Y8350327D01*
X36769309Y8447000D01*
X36353750Y8447000D01*
X36195000Y8288250D01*
X35941000Y8288250D01*
X35782250Y8447000D01*
X35366691Y8447000D01*
X35133302Y8350327D01*
X34978377Y8195403D01*
X34977586Y8196586D01*
X34686436Y8391127D01*
X34343001Y8459440D01*
X33692999Y8459440D01*
X33349564Y8391127D01*
X33058414Y8196586D01*
X32863873Y7905436D01*
X32795560Y7562001D01*
X32795560Y6964361D01*
X32551189Y6719990D01*
X32092440Y6719990D01*
X32092440Y7435001D01*
X32024127Y7778436D01*
X31829586Y8069586D01*
X31538436Y8264127D01*
X31452476Y8281225D01*
X31417929Y8332929D01*
X31354473Y8375329D01*
X29937332Y9792469D01*
X29894930Y9855928D01*
X29677441Y10001250D01*
X32066000Y10001250D01*
X32066000Y9600690D01*
X32162673Y9367301D01*
X32341302Y9188673D01*
X32574691Y9092000D01*
X33495250Y9092000D01*
X33654000Y9250750D01*
X33654000Y10160000D01*
X33908000Y10160000D01*
X33908000Y9250750D01*
X34066750Y9092000D01*
X34987309Y9092000D01*
X35220698Y9188673D01*
X35399327Y9367301D01*
X35496000Y9600690D01*
X35496000Y10001250D01*
X35337250Y10160000D01*
X33908000Y10160000D01*
X33654000Y10160000D01*
X32224750Y10160000D01*
X32066000Y10001250D01*
X29677441Y10001250D01*
X29643538Y10023903D01*
X29421853Y10067999D01*
X29421848Y10067999D01*
X29347001Y10082887D01*
X29272154Y10067999D01*
X28778440Y10067999D01*
X28778440Y10419638D01*
X28946473Y10587671D01*
X29009929Y10630071D01*
X29177904Y10881463D01*
X29196173Y10973310D01*
X32066000Y10973310D01*
X32066000Y10572750D01*
X32224750Y10414000D01*
X33654000Y10414000D01*
X33654000Y11323250D01*
X33908000Y11323250D01*
X33908000Y10414000D01*
X35337250Y10414000D01*
X35496000Y10572750D01*
X35496000Y10973310D01*
X35399327Y11206699D01*
X35220698Y11385327D01*
X34987309Y11482000D01*
X34066750Y11482000D01*
X33908000Y11323250D01*
X33654000Y11323250D01*
X33495250Y11482000D01*
X32574691Y11482000D01*
X32341302Y11385327D01*
X32162673Y11206699D01*
X32066000Y10973310D01*
X29196173Y10973310D01*
X29222000Y11103148D01*
X29222000Y11103152D01*
X29236888Y11177999D01*
X29222000Y11252846D01*
X29222000Y12496356D01*
X29256540Y12519435D01*
X29327302Y12448673D01*
X29560691Y12352000D01*
X29926250Y12352000D01*
X30085000Y12510750D01*
X30085000Y13335000D01*
X30065000Y13335000D01*
X30065000Y13502010D01*
X30359000Y13502010D01*
X30359000Y13335000D01*
X30339000Y13335000D01*
X30339000Y12510750D01*
X30497750Y12352000D01*
X30863309Y12352000D01*
X31096698Y12448673D01*
X31105565Y12457540D01*
X31326564Y12309873D01*
X31669999Y12241560D01*
X32320001Y12241560D01*
X32663436Y12309873D01*
X32954586Y12504414D01*
X33020000Y12602313D01*
X33085414Y12504414D01*
X33376564Y12309873D01*
X33719999Y12241560D01*
X34370001Y12241560D01*
X34713436Y12309873D01*
X35004586Y12504414D01*
X35199127Y12795564D01*
X35267440Y13138999D01*
X35267440Y14010001D01*
X35783117Y14010001D01*
X38212590Y11580527D01*
X38254990Y11517071D01*
X38506382Y11349096D01*
X38726631Y11305286D01*
X38934375Y10994375D01*
X39232761Y10795000D01*
X38934375Y10595625D01*
X38606161Y10104418D01*
X38490908Y9525000D01*
X38606161Y8945582D01*
X38934375Y8454375D01*
X39232761Y8255000D01*
X38934375Y8055625D01*
X38606161Y7564418D01*
X38490908Y6985000D01*
X38606161Y6405582D01*
X38934375Y5914375D01*
X39232761Y5715000D01*
X38934375Y5515625D01*
X38606161Y5024418D01*
X38490908Y4445000D01*
X38606161Y3865582D01*
X38934375Y3374375D01*
X39425582Y3046161D01*
X39858744Y2960000D01*
X40151256Y2960000D01*
X40584418Y3046161D01*
X41075625Y3374375D01*
X41403839Y3865582D01*
X41519092Y4445000D01*
X41403839Y5024418D01*
X41075625Y5515625D01*
X40777239Y5715000D01*
X41075625Y5914375D01*
X41403839Y6405582D01*
X41519092Y6985000D01*
X41403839Y7564418D01*
X41075625Y8055625D01*
X40777239Y8255000D01*
X41075625Y8454375D01*
X41403839Y8945582D01*
X41519092Y9525000D01*
X41403839Y10104418D01*
X41075625Y10595625D01*
X40777239Y10795000D01*
X41075625Y10994375D01*
X41403839Y11485582D01*
X41519092Y12065000D01*
X41403839Y12644418D01*
X41075625Y13135625D01*
X40777239Y13335000D01*
X41075625Y13534375D01*
X41403839Y14025582D01*
X41519092Y14605000D01*
X41403839Y15184418D01*
X41075625Y15675625D01*
X40756522Y15888843D01*
X40886358Y15949817D01*
X41276645Y16378076D01*
X41446476Y16788110D01*
X41325155Y17018000D01*
X40132000Y17018000D01*
X40132000Y16998000D01*
X39878000Y16998000D01*
X39878000Y17018000D01*
X39858000Y17018000D01*
X39858000Y17272000D01*
X39878000Y17272000D01*
X39878000Y17292000D01*
X40132000Y17292000D01*
X40132000Y17272000D01*
X41325155Y17272000D01*
X41446476Y17501890D01*
X41276645Y17911924D01*
X40886358Y18340183D01*
X40756522Y18401157D01*
X41075625Y18614375D01*
X41403839Y19105582D01*
X41519092Y19685000D01*
X41403839Y20264418D01*
X41075625Y20755625D01*
X40777239Y20955000D01*
X41075625Y21154375D01*
X41403839Y21645582D01*
X41519092Y22225000D01*
X41403839Y22804418D01*
X41075625Y23295625D01*
X40777239Y23495000D01*
X41075625Y23694375D01*
X41403839Y24185582D01*
X41519092Y24765000D01*
X41403839Y25344418D01*
X41075625Y25835625D01*
X40777239Y26035000D01*
X41075625Y26234375D01*
X41403839Y26725582D01*
X41519092Y27305000D01*
X41403839Y27884418D01*
X41075625Y28375625D01*
X40584418Y28703839D01*
X40151256Y28790000D01*
X39858744Y28790000D01*
X39425582Y28703839D01*
X38934375Y28375625D01*
X38606161Y27884418D01*
X38490908Y27305000D01*
X38606161Y26725582D01*
X38934375Y26234375D01*
X39232761Y26035000D01*
X38934375Y25835625D01*
X38606161Y25344418D01*
X38499020Y24805782D01*
X35007331Y28297470D01*
X34964929Y28360929D01*
X34713537Y28528904D01*
X34491852Y28573000D01*
X34491847Y28573000D01*
X34417000Y28587888D01*
X34342153Y28573000D01*
X31758178Y28573000D01*
X31550625Y28883625D01*
X31059418Y29211839D01*
X30626256Y29298000D01*
X30333744Y29298000D01*
X29900582Y29211839D01*
X29409375Y28883625D01*
X29081161Y28392418D01*
X28965908Y27813000D01*
X29038791Y27446592D01*
X28820527Y27228328D01*
X28757071Y27185928D01*
X28589095Y26934536D01*
X28544999Y26712851D01*
X28544999Y26712846D01*
X28530111Y26637999D01*
X28544999Y26563152D01*
X28544999Y26367999D01*
X27462001Y25285001D01*
X27462001Y28712198D01*
X28811509Y30061704D01*
X29138582Y29843161D01*
X29571744Y29757000D01*
X29864256Y29757000D01*
X30297418Y29843161D01*
X30788625Y30171375D01*
X30988000Y30469761D01*
X31187375Y30171375D01*
X31678582Y29843161D01*
X32111744Y29757000D01*
X32404256Y29757000D01*
X32837418Y29843161D01*
X33328625Y30171375D01*
X33656839Y30662582D01*
X33772092Y31242000D01*
X33656839Y31821418D01*
X33328625Y32312625D01*
X32837418Y32640839D01*
X32404256Y32727000D01*
X32111744Y32727000D01*
X31678582Y32640839D01*
X31187375Y32312625D01*
X30988000Y32014239D01*
X30788625Y32312625D01*
X30297418Y32640839D01*
X29864256Y32727000D01*
X29571744Y32727000D01*
X29138582Y32640839D01*
X28647375Y32312625D01*
X28448000Y32014239D01*
X28248625Y32312625D01*
X27757418Y32640839D01*
X27324256Y32727000D01*
X27031744Y32727000D01*
X26598582Y32640839D01*
X26107375Y32312625D01*
X25908000Y32014239D01*
X25708625Y32312625D01*
X25217418Y32640839D01*
X24784256Y32727000D01*
X24491744Y32727000D01*
X24058582Y32640839D01*
X23567375Y32312625D01*
X23368000Y32014239D01*
X23168625Y32312625D01*
X22677418Y32640839D01*
X22244256Y32727000D01*
X21951744Y32727000D01*
X21518582Y32640839D01*
X21027375Y32312625D01*
X20828000Y32014239D01*
X20628625Y32312625D01*
X20137418Y32640839D01*
X19704256Y32727000D01*
X19411744Y32727000D01*
X18978582Y32640839D01*
X18487375Y32312625D01*
X18288000Y32014239D01*
X18088625Y32312625D01*
X17597418Y32640839D01*
X17164256Y32727000D01*
X16871744Y32727000D01*
X16438582Y32640839D01*
X15947375Y32312625D01*
X15748000Y32014239D01*
X15548625Y32312625D01*
X15057418Y32640839D01*
X14624256Y32727000D01*
X14331744Y32727000D01*
X13898582Y32640839D01*
X13407375Y32312625D01*
X13208000Y32014239D01*
X13008625Y32312625D01*
X12517418Y32640839D01*
X12084256Y32727000D01*
X11791744Y32727000D01*
X11358582Y32640839D01*
X10867375Y32312625D01*
X10668000Y32014239D01*
X10468625Y32312625D01*
X9977418Y32640839D01*
X9544256Y32727000D01*
X9251744Y32727000D01*
X8818582Y32640839D01*
X8327375Y32312625D01*
X7999161Y31821418D01*
X7883908Y31242000D01*
X7999161Y30662582D01*
X8327375Y30171375D01*
X8661704Y29947983D01*
X8682097Y29845463D01*
X8691889Y29830809D01*
X8850072Y29594071D01*
X8895030Y29564031D01*
X8925072Y29519070D01*
X9176464Y29351095D01*
X9398149Y29306999D01*
X9398153Y29306999D01*
X9473000Y29292111D01*
X9547847Y29306999D01*
X10906202Y29306999D01*
X11496761Y28716440D01*
X10634000Y28716440D01*
X10386235Y28667157D01*
X10176191Y28526809D01*
X10035843Y28316765D01*
X9986560Y28069000D01*
X9986560Y26569000D01*
X10035843Y26321235D01*
X10137564Y26169000D01*
X10035843Y26016765D01*
X9986560Y25769000D01*
X9986560Y24926244D01*
X7184332Y27728471D01*
X7141930Y27791930D01*
X6890538Y27959905D01*
X6668853Y28004001D01*
X6668848Y28004001D01*
X6594001Y28018889D01*
X6519154Y28004001D01*
X3780848Y28004001D01*
X3706001Y28018889D01*
X3631154Y28004001D01*
X3631149Y28004001D01*
X3409464Y27959905D01*
X3158072Y27791930D01*
X3115672Y27728474D01*
X3112718Y27725520D01*
X3102625Y27740625D01*
X2611418Y28068839D01*
X2178256Y28155000D01*
X1885744Y28155000D01*
X1452582Y28068839D01*
X961375Y27740625D01*
X633161Y27249418D01*
X517908Y26670000D01*
X254000Y26670000D01*
X254000Y33020000D01*
X41783000Y33020000D01*
X41783000Y254000D01*
X41783000Y254000D01*
G37*
X41783000Y254000D02*
X254000Y254000D01*
X254000Y26670000D01*
X517908Y26670000D01*
X633161Y26090582D01*
X961375Y25599375D01*
X1259761Y25400000D01*
X961375Y25200625D01*
X633161Y24709418D01*
X517908Y24130000D01*
X633161Y23550582D01*
X961375Y23059375D01*
X1259761Y22860000D01*
X961375Y22660625D01*
X633161Y22169418D01*
X517908Y21590000D01*
X633161Y21010582D01*
X961375Y20519375D01*
X1259761Y20320000D01*
X961375Y20120625D01*
X633161Y19629418D01*
X517908Y19050000D01*
X633161Y18470582D01*
X961375Y17979375D01*
X1259761Y17780000D01*
X961375Y17580625D01*
X633161Y17089418D01*
X517908Y16510000D01*
X633161Y15930582D01*
X961375Y15439375D01*
X1259761Y15240000D01*
X961375Y15040625D01*
X633161Y14549418D01*
X517908Y13970000D01*
X633161Y13390582D01*
X961375Y12899375D01*
X1280478Y12686157D01*
X1150642Y12625183D01*
X760355Y12196924D01*
X590524Y11786890D01*
X711845Y11557000D01*
X1905000Y11557000D01*
X1905000Y11577000D01*
X2159000Y11577000D01*
X2159000Y11557000D01*
X2179000Y11557000D01*
X2179000Y11303000D01*
X2159000Y11303000D01*
X2159000Y11283000D01*
X1905000Y11283000D01*
X1905000Y11303000D01*
X711845Y11303000D01*
X590524Y11073110D01*
X760355Y10663076D01*
X1150642Y10234817D01*
X1280478Y10173843D01*
X961375Y9960625D01*
X633161Y9469418D01*
X517908Y8890000D01*
X633161Y8310582D01*
X961375Y7819375D01*
X1259761Y7620000D01*
X961375Y7420625D01*
X633161Y6929418D01*
X517908Y6350000D01*
X633161Y5770582D01*
X961375Y5279375D01*
X1259761Y5080000D01*
X961375Y4880625D01*
X633161Y4389418D01*
X517908Y3810000D01*
X633161Y3230582D01*
X961375Y2739375D01*
X1452582Y2411161D01*
X1885744Y2325000D01*
X2178256Y2325000D01*
X2611418Y2411161D01*
X3102625Y2739375D01*
X3430839Y3230582D01*
X3546092Y3810000D01*
X3430839Y4389418D01*
X3102625Y4880625D01*
X2804239Y5080000D01*
X3102625Y5279375D01*
X3430839Y5770582D01*
X3546092Y6350000D01*
X3430839Y6929418D01*
X3102625Y7420625D01*
X2804239Y7620000D01*
X3102625Y7819375D01*
X3430839Y8310582D01*
X3546092Y8890000D01*
X3430839Y9469418D01*
X3102625Y9960625D01*
X2783522Y10173843D01*
X2913358Y10234817D01*
X3303645Y10663076D01*
X3473476Y11073110D01*
X3352156Y11302998D01*
X3517000Y11302998D01*
X3517000Y11410199D01*
X4725969Y10201229D01*
X4824161Y9707582D01*
X5152375Y9216375D01*
X5643582Y8888161D01*
X6076744Y8802000D01*
X6369256Y8802000D01*
X6802418Y8888161D01*
X7293625Y9216375D01*
X7621839Y9707582D01*
X7737092Y10287000D01*
X7621839Y10866418D01*
X7293625Y11357625D01*
X6995239Y11557000D01*
X7293625Y11756375D01*
X7501178Y12067000D01*
X7848018Y12067000D01*
X7785560Y11753001D01*
X7785560Y10852999D01*
X7853873Y10509564D01*
X8048414Y10218414D01*
X8072336Y10202430D01*
X7921414Y10101586D01*
X7726873Y9810436D01*
X7658560Y9467001D01*
X7658560Y8566999D01*
X7726873Y8223564D01*
X7921414Y7932414D01*
X8121001Y7799054D01*
X8121001Y7616101D01*
X8039414Y7561586D01*
X7844873Y7270436D01*
X7776560Y6927001D01*
X7776560Y6026999D01*
X7844873Y5683564D01*
X8039414Y5392414D01*
X8330564Y5197873D01*
X8673999Y5129560D01*
X9324001Y5129560D01*
X9667436Y5197873D01*
X9958586Y5392414D01*
X10024000Y5490313D01*
X10089414Y5392414D01*
X10380564Y5197873D01*
X10723999Y5129560D01*
X11374001Y5129560D01*
X11717436Y5197873D01*
X12008586Y5392414D01*
X12203127Y5683564D01*
X12271440Y6026999D01*
X12271440Y6628978D01*
X12388276Y6803835D01*
X12432372Y7025520D01*
X12432372Y7025524D01*
X12447260Y7100371D01*
X12432372Y7175218D01*
X12432372Y7855381D01*
X14530673Y9953681D01*
X14594129Y9996081D01*
X14669700Y10109181D01*
X14758160Y10241569D01*
X14758160Y10020000D01*
X14807443Y9772235D01*
X14947791Y9562191D01*
X15157835Y9421843D01*
X15405600Y9372560D01*
X15913600Y9372560D01*
X16059601Y9401601D01*
X16205601Y9372560D01*
X16713601Y9372560D01*
X16859600Y9401601D01*
X17005600Y9372560D01*
X17513600Y9372560D01*
X17659601Y9401601D01*
X17805601Y9372560D01*
X18099600Y9372560D01*
X18099599Y7871401D01*
X16749408Y6521209D01*
X16529256Y6565000D01*
X16236744Y6565000D01*
X15803582Y6478839D01*
X15312375Y6150625D01*
X14984161Y5659418D01*
X14868908Y5080000D01*
X14984161Y4500582D01*
X15312375Y4009375D01*
X15750001Y3716963D01*
X15750000Y3310178D01*
X15439375Y3102625D01*
X15240000Y2804239D01*
X15040625Y3102625D01*
X14549418Y3430839D01*
X14116256Y3517000D01*
X13823744Y3517000D01*
X13390582Y3430839D01*
X12899375Y3102625D01*
X12700000Y2804239D01*
X12500625Y3102625D01*
X12009418Y3430839D01*
X11576256Y3517000D01*
X11283744Y3517000D01*
X10850582Y3430839D01*
X10359375Y3102625D01*
X10160000Y2804239D01*
X9960625Y3102625D01*
X9469418Y3430839D01*
X9036256Y3517000D01*
X8743744Y3517000D01*
X8310582Y3430839D01*
X7819375Y3102625D01*
X7491161Y2611418D01*
X7375908Y2032000D01*
X7491161Y1452582D01*
X7819375Y961375D01*
X8310582Y633161D01*
X8743744Y547000D01*
X9036256Y547000D01*
X9469418Y633161D01*
X9960625Y961375D01*
X10160000Y1259761D01*
X10359375Y961375D01*
X10850582Y633161D01*
X11283744Y547000D01*
X11576256Y547000D01*
X12009418Y633161D01*
X12500625Y961375D01*
X12700000Y1259761D01*
X12899375Y961375D01*
X13390582Y633161D01*
X13823744Y547000D01*
X14116256Y547000D01*
X14549418Y633161D01*
X15040625Y961375D01*
X15240000Y1259761D01*
X15439375Y961375D01*
X15930582Y633161D01*
X16363744Y547000D01*
X16656256Y547000D01*
X17089418Y633161D01*
X17580625Y961375D01*
X17780000Y1259761D01*
X17979375Y961375D01*
X18470582Y633161D01*
X18903744Y547000D01*
X19196256Y547000D01*
X19629418Y633161D01*
X20120625Y961375D01*
X20320000Y1259761D01*
X20519375Y961375D01*
X21010582Y633161D01*
X21443744Y547000D01*
X21736256Y547000D01*
X22169418Y633161D01*
X22660625Y961375D01*
X22860000Y1259761D01*
X23059375Y961375D01*
X23550582Y633161D01*
X23983744Y547000D01*
X24276256Y547000D01*
X24709418Y633161D01*
X25200625Y961375D01*
X25400000Y1259761D01*
X25599375Y961375D01*
X26090582Y633161D01*
X26523744Y547000D01*
X26816256Y547000D01*
X27249418Y633161D01*
X27740625Y961375D01*
X27940000Y1259761D01*
X28139375Y961375D01*
X28630582Y633161D01*
X29063744Y547000D01*
X29356256Y547000D01*
X29789418Y633161D01*
X30280625Y961375D01*
X30480000Y1259761D01*
X30679375Y961375D01*
X31170582Y633161D01*
X31603744Y547000D01*
X31896256Y547000D01*
X32329418Y633161D01*
X32820625Y961375D01*
X33148839Y1452582D01*
X33264092Y2032000D01*
X33148839Y2611418D01*
X32820625Y3102625D01*
X32329418Y3430839D01*
X31896256Y3517000D01*
X31603744Y3517000D01*
X31170582Y3430839D01*
X30679375Y3102625D01*
X30480000Y2804239D01*
X30280625Y3102625D01*
X29789418Y3430839D01*
X29356256Y3517000D01*
X29063744Y3517000D01*
X28843592Y3473209D01*
X28679990Y3636811D01*
X28679990Y5637560D01*
X29092639Y5637560D01*
X29254679Y5475520D01*
X29297081Y5412061D01*
X29548473Y5244086D01*
X29770158Y5199990D01*
X29770163Y5199990D01*
X29845010Y5185102D01*
X29919857Y5199990D01*
X32791143Y5199990D01*
X32865990Y5185102D01*
X32940837Y5199990D01*
X32940842Y5199990D01*
X33162527Y5244086D01*
X33413919Y5412061D01*
X33456321Y5475520D01*
X33745361Y5764560D01*
X34343001Y5764560D01*
X34686436Y5832873D01*
X34977586Y6027414D01*
X34978377Y6028597D01*
X35133302Y5873673D01*
X35366691Y5777000D01*
X35782250Y5777000D01*
X35941000Y5935750D01*
X35941000Y6985000D01*
X36195000Y6985000D01*
X36195000Y5935750D01*
X36353750Y5777000D01*
X36769309Y5777000D01*
X37002698Y5873673D01*
X37181327Y6052301D01*
X37278000Y6285690D01*
X37278000Y6826250D01*
X37119250Y6985000D01*
X36195000Y6985000D01*
X35941000Y6985000D01*
X35921000Y6985000D01*
X35921000Y7239000D01*
X35941000Y7239000D01*
X35941000Y8288250D01*
X36195000Y8288250D01*
X36195000Y7239000D01*
X37119250Y7239000D01*
X37278000Y7397750D01*
X37278000Y7938310D01*
X37181327Y8171699D01*
X37002698Y8350327D01*
X36769309Y8447000D01*
X36353750Y8447000D01*
X36195000Y8288250D01*
X35941000Y8288250D01*
X35782250Y8447000D01*
X35366691Y8447000D01*
X35133302Y8350327D01*
X34978377Y8195403D01*
X34977586Y8196586D01*
X34686436Y8391127D01*
X34343001Y8459440D01*
X33692999Y8459440D01*
X33349564Y8391127D01*
X33058414Y8196586D01*
X32863873Y7905436D01*
X32795560Y7562001D01*
X32795560Y6964361D01*
X32551189Y6719990D01*
X32092440Y6719990D01*
X32092440Y7435001D01*
X32024127Y7778436D01*
X31829586Y8069586D01*
X31538436Y8264127D01*
X31452476Y8281225D01*
X31417929Y8332929D01*
X31354473Y8375329D01*
X29937332Y9792469D01*
X29894930Y9855928D01*
X29677441Y10001250D01*
X32066000Y10001250D01*
X32066000Y9600690D01*
X32162673Y9367301D01*
X32341302Y9188673D01*
X32574691Y9092000D01*
X33495250Y9092000D01*
X33654000Y9250750D01*
X33654000Y10160000D01*
X33908000Y10160000D01*
X33908000Y9250750D01*
X34066750Y9092000D01*
X34987309Y9092000D01*
X35220698Y9188673D01*
X35399327Y9367301D01*
X35496000Y9600690D01*
X35496000Y10001250D01*
X35337250Y10160000D01*
X33908000Y10160000D01*
X33654000Y10160000D01*
X32224750Y10160000D01*
X32066000Y10001250D01*
X29677441Y10001250D01*
X29643538Y10023903D01*
X29421853Y10067999D01*
X29421848Y10067999D01*
X29347001Y10082887D01*
X29272154Y10067999D01*
X28778440Y10067999D01*
X28778440Y10419638D01*
X28946473Y10587671D01*
X29009929Y10630071D01*
X29177904Y10881463D01*
X29196173Y10973310D01*
X32066000Y10973310D01*
X32066000Y10572750D01*
X32224750Y10414000D01*
X33654000Y10414000D01*
X33654000Y11323250D01*
X33908000Y11323250D01*
X33908000Y10414000D01*
X35337250Y10414000D01*
X35496000Y10572750D01*
X35496000Y10973310D01*
X35399327Y11206699D01*
X35220698Y11385327D01*
X34987309Y11482000D01*
X34066750Y11482000D01*
X33908000Y11323250D01*
X33654000Y11323250D01*
X33495250Y11482000D01*
X32574691Y11482000D01*
X32341302Y11385327D01*
X32162673Y11206699D01*
X32066000Y10973310D01*
X29196173Y10973310D01*
X29222000Y11103148D01*
X29222000Y11103152D01*
X29236888Y11177999D01*
X29222000Y11252846D01*
X29222000Y12496356D01*
X29256540Y12519435D01*
X29327302Y12448673D01*
X29560691Y12352000D01*
X29926250Y12352000D01*
X30085000Y12510750D01*
X30085000Y13335000D01*
X30065000Y13335000D01*
X30065000Y13502010D01*
X30359000Y13502010D01*
X30359000Y13335000D01*
X30339000Y13335000D01*
X30339000Y12510750D01*
X30497750Y12352000D01*
X30863309Y12352000D01*
X31096698Y12448673D01*
X31105565Y12457540D01*
X31326564Y12309873D01*
X31669999Y12241560D01*
X32320001Y12241560D01*
X32663436Y12309873D01*
X32954586Y12504414D01*
X33020000Y12602313D01*
X33085414Y12504414D01*
X33376564Y12309873D01*
X33719999Y12241560D01*
X34370001Y12241560D01*
X34713436Y12309873D01*
X35004586Y12504414D01*
X35199127Y12795564D01*
X35267440Y13138999D01*
X35267440Y14010001D01*
X35783117Y14010001D01*
X38212590Y11580527D01*
X38254990Y11517071D01*
X38506382Y11349096D01*
X38726631Y11305286D01*
X38934375Y10994375D01*
X39232761Y10795000D01*
X38934375Y10595625D01*
X38606161Y10104418D01*
X38490908Y9525000D01*
X38606161Y8945582D01*
X38934375Y8454375D01*
X39232761Y8255000D01*
X38934375Y8055625D01*
X38606161Y7564418D01*
X38490908Y6985000D01*
X38606161Y6405582D01*
X38934375Y5914375D01*
X39232761Y5715000D01*
X38934375Y5515625D01*
X38606161Y5024418D01*
X38490908Y4445000D01*
X38606161Y3865582D01*
X38934375Y3374375D01*
X39425582Y3046161D01*
X39858744Y2960000D01*
X40151256Y2960000D01*
X40584418Y3046161D01*
X41075625Y3374375D01*
X41403839Y3865582D01*
X41519092Y4445000D01*
X41403839Y5024418D01*
X41075625Y5515625D01*
X40777239Y5715000D01*
X41075625Y5914375D01*
X41403839Y6405582D01*
X41519092Y6985000D01*
X41403839Y7564418D01*
X41075625Y8055625D01*
X40777239Y8255000D01*
X41075625Y8454375D01*
X41403839Y8945582D01*
X41519092Y9525000D01*
X41403839Y10104418D01*
X41075625Y10595625D01*
X40777239Y10795000D01*
X41075625Y10994375D01*
X41403839Y11485582D01*
X41519092Y12065000D01*
X41403839Y12644418D01*
X41075625Y13135625D01*
X40777239Y13335000D01*
X41075625Y13534375D01*
X41403839Y14025582D01*
X41519092Y14605000D01*
X41403839Y15184418D01*
X41075625Y15675625D01*
X40756522Y15888843D01*
X40886358Y15949817D01*
X41276645Y16378076D01*
X41446476Y16788110D01*
X41325155Y17018000D01*
X40132000Y17018000D01*
X40132000Y16998000D01*
X39878000Y16998000D01*
X39878000Y17018000D01*
X39858000Y17018000D01*
X39858000Y17272000D01*
X39878000Y17272000D01*
X39878000Y17292000D01*
X40132000Y17292000D01*
X40132000Y17272000D01*
X41325155Y17272000D01*
X41446476Y17501890D01*
X41276645Y17911924D01*
X40886358Y18340183D01*
X40756522Y18401157D01*
X41075625Y18614375D01*
X41403839Y19105582D01*
X41519092Y19685000D01*
X41403839Y20264418D01*
X41075625Y20755625D01*
X40777239Y20955000D01*
X41075625Y21154375D01*
X41403839Y21645582D01*
X41519092Y22225000D01*
X41403839Y22804418D01*
X41075625Y23295625D01*
X40777239Y23495000D01*
X41075625Y23694375D01*
X41403839Y24185582D01*
X41519092Y24765000D01*
X41403839Y25344418D01*
X41075625Y25835625D01*
X40777239Y26035000D01*
X41075625Y26234375D01*
X41403839Y26725582D01*
X41519092Y27305000D01*
X41403839Y27884418D01*
X41075625Y28375625D01*
X40584418Y28703839D01*
X40151256Y28790000D01*
X39858744Y28790000D01*
X39425582Y28703839D01*
X38934375Y28375625D01*
X38606161Y27884418D01*
X38490908Y27305000D01*
X38606161Y26725582D01*
X38934375Y26234375D01*
X39232761Y26035000D01*
X38934375Y25835625D01*
X38606161Y25344418D01*
X38499020Y24805782D01*
X35007331Y28297470D01*
X34964929Y28360929D01*
X34713537Y28528904D01*
X34491852Y28573000D01*
X34491847Y28573000D01*
X34417000Y28587888D01*
X34342153Y28573000D01*
X31758178Y28573000D01*
X31550625Y28883625D01*
X31059418Y29211839D01*
X30626256Y29298000D01*
X30333744Y29298000D01*
X29900582Y29211839D01*
X29409375Y28883625D01*
X29081161Y28392418D01*
X28965908Y27813000D01*
X29038791Y27446592D01*
X28820527Y27228328D01*
X28757071Y27185928D01*
X28589095Y26934536D01*
X28544999Y26712851D01*
X28544999Y26712846D01*
X28530111Y26637999D01*
X28544999Y26563152D01*
X28544999Y26367999D01*
X27462001Y25285001D01*
X27462001Y28712198D01*
X28811509Y30061704D01*
X29138582Y29843161D01*
X29571744Y29757000D01*
X29864256Y29757000D01*
X30297418Y29843161D01*
X30788625Y30171375D01*
X30988000Y30469761D01*
X31187375Y30171375D01*
X31678582Y29843161D01*
X32111744Y29757000D01*
X32404256Y29757000D01*
X32837418Y29843161D01*
X33328625Y30171375D01*
X33656839Y30662582D01*
X33772092Y31242000D01*
X33656839Y31821418D01*
X33328625Y32312625D01*
X32837418Y32640839D01*
X32404256Y32727000D01*
X32111744Y32727000D01*
X31678582Y32640839D01*
X31187375Y32312625D01*
X30988000Y32014239D01*
X30788625Y32312625D01*
X30297418Y32640839D01*
X29864256Y32727000D01*
X29571744Y32727000D01*
X29138582Y32640839D01*
X28647375Y32312625D01*
X28448000Y32014239D01*
X28248625Y32312625D01*
X27757418Y32640839D01*
X27324256Y32727000D01*
X27031744Y32727000D01*
X26598582Y32640839D01*
X26107375Y32312625D01*
X25908000Y32014239D01*
X25708625Y32312625D01*
X25217418Y32640839D01*
X24784256Y32727000D01*
X24491744Y32727000D01*
X24058582Y32640839D01*
X23567375Y32312625D01*
X23368000Y32014239D01*
X23168625Y32312625D01*
X22677418Y32640839D01*
X22244256Y32727000D01*
X21951744Y32727000D01*
X21518582Y32640839D01*
X21027375Y32312625D01*
X20828000Y32014239D01*
X20628625Y32312625D01*
X20137418Y32640839D01*
X19704256Y32727000D01*
X19411744Y32727000D01*
X18978582Y32640839D01*
X18487375Y32312625D01*
X18288000Y32014239D01*
X18088625Y32312625D01*
X17597418Y32640839D01*
X17164256Y32727000D01*
X16871744Y32727000D01*
X16438582Y32640839D01*
X15947375Y32312625D01*
X15748000Y32014239D01*
X15548625Y32312625D01*
X15057418Y32640839D01*
X14624256Y32727000D01*
X14331744Y32727000D01*
X13898582Y32640839D01*
X13407375Y32312625D01*
X13208000Y32014239D01*
X13008625Y32312625D01*
X12517418Y32640839D01*
X12084256Y32727000D01*
X11791744Y32727000D01*
X11358582Y32640839D01*
X10867375Y32312625D01*
X10668000Y32014239D01*
X10468625Y32312625D01*
X9977418Y32640839D01*
X9544256Y32727000D01*
X9251744Y32727000D01*
X8818582Y32640839D01*
X8327375Y32312625D01*
X7999161Y31821418D01*
X7883908Y31242000D01*
X7999161Y30662582D01*
X8327375Y30171375D01*
X8661704Y29947983D01*
X8682097Y29845463D01*
X8691889Y29830809D01*
X8850072Y29594071D01*
X8895030Y29564031D01*
X8925072Y29519070D01*
X9176464Y29351095D01*
X9398149Y29306999D01*
X9398153Y29306999D01*
X9473000Y29292111D01*
X9547847Y29306999D01*
X10906202Y29306999D01*
X11496761Y28716440D01*
X10634000Y28716440D01*
X10386235Y28667157D01*
X10176191Y28526809D01*
X10035843Y28316765D01*
X9986560Y28069000D01*
X9986560Y26569000D01*
X10035843Y26321235D01*
X10137564Y26169000D01*
X10035843Y26016765D01*
X9986560Y25769000D01*
X9986560Y24926244D01*
X7184332Y27728471D01*
X7141930Y27791930D01*
X6890538Y27959905D01*
X6668853Y28004001D01*
X6668848Y28004001D01*
X6594001Y28018889D01*
X6519154Y28004001D01*
X3780848Y28004001D01*
X3706001Y28018889D01*
X3631154Y28004001D01*
X3631149Y28004001D01*
X3409464Y27959905D01*
X3158072Y27791930D01*
X3115672Y27728474D01*
X3112718Y27725520D01*
X3102625Y27740625D01*
X2611418Y28068839D01*
X2178256Y28155000D01*
X1885744Y28155000D01*
X1452582Y28068839D01*
X961375Y27740625D01*
X633161Y27249418D01*
X517908Y26670000D01*
X254000Y26670000D01*
X254000Y33020000D01*
X41783000Y33020000D01*
X41783000Y254000D01*
G36*
X21590000Y5207000D02*
X21610000Y5207000D01*
X21610000Y4953000D01*
X21590000Y4953000D01*
X21590000Y4933000D01*
X21336000Y4933000D01*
X21336000Y4953000D01*
X21316000Y4953000D01*
X21316000Y5207000D01*
X21336000Y5207000D01*
X21336000Y5227000D01*
X21590000Y5227000D01*
X21590000Y5207000D01*
X21590000Y5207000D01*
G37*
X21590000Y5207000D02*
X21610000Y5207000D01*
X21610000Y4953000D01*
X21590000Y4953000D01*
X21590000Y4933000D01*
X21336000Y4933000D01*
X21336000Y4953000D01*
X21316000Y4953000D01*
X21316000Y5207000D01*
X21336000Y5207000D01*
X21336000Y5227000D01*
X21590000Y5227000D01*
X21590000Y5207000D01*
G36*
X22225200Y13206000D02*
X21237247Y13206000D01*
X21162400Y13220888D01*
X21087553Y13206000D01*
X21087549Y13206000D01*
X20865864Y13161904D01*
X20826535Y13135625D01*
X20677927Y13036329D01*
X20677925Y13036327D01*
X20614472Y12993929D01*
X20572073Y12930475D01*
X19975130Y12333530D01*
X19911672Y12291129D01*
X19811119Y12140640D01*
X19405600Y12140640D01*
X19259600Y12111599D01*
X19113599Y12140640D01*
X18609200Y12140640D01*
X18607530Y12143139D01*
X18544074Y12185539D01*
X17527938Y13201674D01*
X17527938Y13367747D01*
X17370369Y13748153D01*
X17079218Y14039304D01*
X16698812Y14196873D01*
X16664849Y14196873D01*
X16664849Y14591331D01*
X16656959Y14610378D01*
X17235201Y14610378D01*
X17352632Y14492947D01*
X17733038Y14335378D01*
X18144786Y14335378D01*
X18525192Y14492947D01*
X18816343Y14784098D01*
X18973912Y15164504D01*
X18973912Y15576252D01*
X18816343Y15956658D01*
X18525192Y16247809D01*
X18144786Y16405378D01*
X17733038Y16405378D01*
X17352632Y16247809D01*
X17235201Y16130378D01*
X15371672Y16130378D01*
X15281622Y16220428D01*
X15240609Y16281808D01*
X15108621Y16370000D01*
X15240609Y16458192D01*
X15281622Y16519572D01*
X15417800Y16655750D01*
X15417800Y16750309D01*
X15403939Y16783773D01*
X15430240Y16916001D01*
X15430240Y17424001D01*
X15401199Y17570000D01*
X15430240Y17715999D01*
X15430240Y18223999D01*
X15401199Y18370000D01*
X15430240Y18516000D01*
X15430240Y19024000D01*
X15401199Y19169999D01*
X15430240Y19315999D01*
X15430240Y19610000D01*
X15821201Y19610000D01*
X22225200Y13206000D01*
X22225200Y13206000D01*
G37*
X22225200Y13206000D02*
X21237247Y13206000D01*
X21162400Y13220888D01*
X21087553Y13206000D01*
X21087549Y13206000D01*
X20865864Y13161904D01*
X20826535Y13135625D01*
X20677927Y13036329D01*
X20677925Y13036327D01*
X20614472Y12993929D01*
X20572073Y12930475D01*
X19975130Y12333530D01*
X19911672Y12291129D01*
X19811119Y12140640D01*
X19405600Y12140640D01*
X19259600Y12111599D01*
X19113599Y12140640D01*
X18609200Y12140640D01*
X18607530Y12143139D01*
X18544074Y12185539D01*
X17527938Y13201674D01*
X17527938Y13367747D01*
X17370369Y13748153D01*
X17079218Y14039304D01*
X16698812Y14196873D01*
X16664849Y14196873D01*
X16664849Y14591331D01*
X16656959Y14610378D01*
X17235201Y14610378D01*
X17352632Y14492947D01*
X17733038Y14335378D01*
X18144786Y14335378D01*
X18525192Y14492947D01*
X18816343Y14784098D01*
X18973912Y15164504D01*
X18973912Y15576252D01*
X18816343Y15956658D01*
X18525192Y16247809D01*
X18144786Y16405378D01*
X17733038Y16405378D01*
X17352632Y16247809D01*
X17235201Y16130378D01*
X15371672Y16130378D01*
X15281622Y16220428D01*
X15240609Y16281808D01*
X15108621Y16370000D01*
X15240609Y16458192D01*
X15281622Y16519572D01*
X15417800Y16655750D01*
X15417800Y16750309D01*
X15403939Y16783773D01*
X15430240Y16916001D01*
X15430240Y17424001D01*
X15401199Y17570000D01*
X15430240Y17715999D01*
X15430240Y18223999D01*
X15401199Y18370000D01*
X15430240Y18516000D01*
X15430240Y19024000D01*
X15401199Y19169999D01*
X15430240Y19315999D01*
X15430240Y19610000D01*
X15821201Y19610000D01*
X22225200Y13206000D01*
G36*
X21805600Y20599360D02*
X22089676Y20599360D01*
X22084711Y20574401D01*
X22099599Y20499554D01*
X22099599Y20499550D01*
X22143695Y20277865D01*
X22206000Y20184619D01*
X22206000Y19987126D01*
X22363569Y19606720D01*
X22654720Y19315569D01*
X23035126Y19158000D01*
X23446874Y19158000D01*
X23451399Y19159874D01*
X23451399Y18119847D01*
X23436511Y18045000D01*
X23451399Y17970153D01*
X23451399Y17970149D01*
X23495495Y17748464D01*
X23663470Y17497071D01*
X23708430Y17467030D01*
X23738471Y17422070D01*
X23989863Y17254095D01*
X24124927Y17227229D01*
X24210576Y17169999D01*
X24078591Y17081809D01*
X24037578Y17020429D01*
X24033149Y17016000D01*
X23690711Y17016000D01*
X23573280Y17133431D01*
X23192874Y17291000D01*
X22781126Y17291000D01*
X22400720Y17133431D01*
X22109569Y16842280D01*
X21952000Y16461874D01*
X21952000Y16050126D01*
X22109569Y15669720D01*
X22400720Y15378569D01*
X22781126Y15221000D01*
X23192874Y15221000D01*
X23573280Y15378569D01*
X23690711Y15496000D01*
X23888960Y15496000D01*
X23888960Y15315999D01*
X23918001Y15170000D01*
X23888960Y15024001D01*
X23888960Y14516001D01*
X23918001Y14370000D01*
X23888960Y14224000D01*
X23888960Y13716000D01*
X23894958Y13685846D01*
X17998257Y19582546D01*
X18119085Y19703374D01*
X18276654Y20083780D01*
X18276654Y20495528D01*
X18233645Y20599360D01*
X18313601Y20599360D01*
X18459600Y20628401D01*
X18605599Y20599360D01*
X19113599Y20599360D01*
X19259600Y20628401D01*
X19405600Y20599360D01*
X19913600Y20599360D01*
X20059601Y20628401D01*
X20205601Y20599360D01*
X20713601Y20599360D01*
X20859600Y20628401D01*
X21005599Y20599360D01*
X21513599Y20599360D01*
X21659600Y20628401D01*
X21805600Y20599360D01*
X21805600Y20599360D01*
G37*
X21805600Y20599360D02*
X22089676Y20599360D01*
X22084711Y20574401D01*
X22099599Y20499554D01*
X22099599Y20499550D01*
X22143695Y20277865D01*
X22206000Y20184619D01*
X22206000Y19987126D01*
X22363569Y19606720D01*
X22654720Y19315569D01*
X23035126Y19158000D01*
X23446874Y19158000D01*
X23451399Y19159874D01*
X23451399Y18119847D01*
X23436511Y18045000D01*
X23451399Y17970153D01*
X23451399Y17970149D01*
X23495495Y17748464D01*
X23663470Y17497071D01*
X23708430Y17467030D01*
X23738471Y17422070D01*
X23989863Y17254095D01*
X24124927Y17227229D01*
X24210576Y17169999D01*
X24078591Y17081809D01*
X24037578Y17020429D01*
X24033149Y17016000D01*
X23690711Y17016000D01*
X23573280Y17133431D01*
X23192874Y17291000D01*
X22781126Y17291000D01*
X22400720Y17133431D01*
X22109569Y16842280D01*
X21952000Y16461874D01*
X21952000Y16050126D01*
X22109569Y15669720D01*
X22400720Y15378569D01*
X22781126Y15221000D01*
X23192874Y15221000D01*
X23573280Y15378569D01*
X23690711Y15496000D01*
X23888960Y15496000D01*
X23888960Y15315999D01*
X23918001Y15170000D01*
X23888960Y15024001D01*
X23888960Y14516001D01*
X23918001Y14370000D01*
X23888960Y14224000D01*
X23888960Y13716000D01*
X23894958Y13685846D01*
X17998257Y19582546D01*
X18119085Y19703374D01*
X18276654Y20083780D01*
X18276654Y20495528D01*
X18233645Y20599360D01*
X18313601Y20599360D01*
X18459600Y20628401D01*
X18605599Y20599360D01*
X19113599Y20599360D01*
X19259600Y20628401D01*
X19405600Y20599360D01*
X19913600Y20599360D01*
X20059601Y20628401D01*
X20205601Y20599360D01*
X20713601Y20599360D01*
X20859600Y20628401D01*
X21005599Y20599360D01*
X21513599Y20599360D01*
X21659600Y20628401D01*
X21805600Y20599360D01*
G36*
X33802000Y15530001D02*
X27294404Y15530001D01*
X27489413Y15725010D01*
X33802000Y15725010D01*
X33802000Y15530001D01*
X33802000Y15530001D01*
G37*
X33802000Y15530001D02*
X27294404Y15530001D01*
X27489413Y15725010D01*
X33802000Y15725010D01*
X33802000Y15530001D01*
G36*
X11284000Y16654617D02*
X11214765Y16550999D01*
X10979251Y16550999D01*
X10893250Y16637000D01*
X10019000Y16637000D01*
X10019000Y16617000D01*
X9765000Y16617000D01*
X9765000Y16637000D01*
X9745000Y16637000D01*
X9745000Y16804010D01*
X11284000Y16804010D01*
X11284000Y16654617D01*
X11284000Y16654617D01*
G37*
X11284000Y16654617D02*
X11214765Y16550999D01*
X10979251Y16550999D01*
X10893250Y16637000D01*
X10019000Y16637000D01*
X10019000Y16617000D01*
X9765000Y16617000D01*
X9765000Y16637000D01*
X9745000Y16637000D01*
X9745000Y16804010D01*
X11284000Y16804010D01*
X11284000Y16654617D01*
G36*
X38563791Y22591407D02*
X38490908Y22225000D01*
X38606161Y21645582D01*
X38934375Y21154375D01*
X39232761Y20955000D01*
X38934375Y20755625D01*
X38606161Y20264418D01*
X38490908Y19685000D01*
X38563791Y19318592D01*
X37679112Y18433914D01*
X37664699Y18448327D01*
X37431310Y18545000D01*
X37115750Y18545000D01*
X36957000Y18386250D01*
X36957000Y17512000D01*
X36977000Y17512000D01*
X36977000Y17258000D01*
X36957000Y17258000D01*
X36957000Y17238000D01*
X36703000Y17238000D01*
X36703000Y17258000D01*
X36683000Y17258000D01*
X36683000Y17512000D01*
X36703000Y17512000D01*
X36703000Y18386250D01*
X36544250Y18545000D01*
X36228690Y18545000D01*
X35995301Y18448327D01*
X35816673Y18269698D01*
X35720000Y18036309D01*
X35720000Y17819801D01*
X35431000Y18108801D01*
X35431000Y19843688D01*
X35455540Y19853853D01*
X35845147Y20243460D01*
X36056000Y20752506D01*
X36056000Y21303494D01*
X35845147Y21812540D01*
X35455540Y22202147D01*
X34946494Y22413000D01*
X34395506Y22413000D01*
X33886460Y22202147D01*
X33496853Y21812540D01*
X33486688Y21788000D01*
X31979969Y21788000D01*
X31878839Y22296418D01*
X31550625Y22787625D01*
X31059418Y23115839D01*
X30626256Y23202000D01*
X30333744Y23202000D01*
X29900582Y23115839D01*
X29409375Y22787625D01*
X29081161Y22296418D01*
X29079373Y22287428D01*
X28848000Y22518801D01*
X28848000Y22684874D01*
X28690431Y23065280D01*
X28399280Y23356431D01*
X28018874Y23514000D01*
X27840604Y23514000D01*
X29071045Y24744441D01*
X29081161Y24693582D01*
X29409375Y24202375D01*
X29900582Y23874161D01*
X30333744Y23788000D01*
X30626256Y23788000D01*
X31059418Y23874161D01*
X31550625Y24202375D01*
X31878839Y24693582D01*
X31969228Y25148000D01*
X33486688Y25148000D01*
X33496853Y25123460D01*
X33886460Y24733853D01*
X34395506Y24523000D01*
X34946494Y24523000D01*
X35455540Y24733853D01*
X35845147Y25123460D01*
X35899798Y25255400D01*
X38563791Y22591407D01*
X38563791Y22591407D01*
G37*
X38563791Y22591407D02*
X38490908Y22225000D01*
X38606161Y21645582D01*
X38934375Y21154375D01*
X39232761Y20955000D01*
X38934375Y20755625D01*
X38606161Y20264418D01*
X38490908Y19685000D01*
X38563791Y19318592D01*
X37679112Y18433914D01*
X37664699Y18448327D01*
X37431310Y18545000D01*
X37115750Y18545000D01*
X36957000Y18386250D01*
X36957000Y17512000D01*
X36977000Y17512000D01*
X36977000Y17258000D01*
X36957000Y17258000D01*
X36957000Y17238000D01*
X36703000Y17238000D01*
X36703000Y17258000D01*
X36683000Y17258000D01*
X36683000Y17512000D01*
X36703000Y17512000D01*
X36703000Y18386250D01*
X36544250Y18545000D01*
X36228690Y18545000D01*
X35995301Y18448327D01*
X35816673Y18269698D01*
X35720000Y18036309D01*
X35720000Y17819801D01*
X35431000Y18108801D01*
X35431000Y19843688D01*
X35455540Y19853853D01*
X35845147Y20243460D01*
X36056000Y20752506D01*
X36056000Y21303494D01*
X35845147Y21812540D01*
X35455540Y22202147D01*
X34946494Y22413000D01*
X34395506Y22413000D01*
X33886460Y22202147D01*
X33496853Y21812540D01*
X33486688Y21788000D01*
X31979969Y21788000D01*
X31878839Y22296418D01*
X31550625Y22787625D01*
X31059418Y23115839D01*
X30626256Y23202000D01*
X30333744Y23202000D01*
X29900582Y23115839D01*
X29409375Y22787625D01*
X29081161Y22296418D01*
X29079373Y22287428D01*
X28848000Y22518801D01*
X28848000Y22684874D01*
X28690431Y23065280D01*
X28399280Y23356431D01*
X28018874Y23514000D01*
X27840604Y23514000D01*
X29071045Y24744441D01*
X29081161Y24693582D01*
X29409375Y24202375D01*
X29900582Y23874161D01*
X30333744Y23788000D01*
X30626256Y23788000D01*
X31059418Y23874161D01*
X31550625Y24202375D01*
X31878839Y24693582D01*
X31969228Y25148000D01*
X33486688Y25148000D01*
X33496853Y25123460D01*
X33886460Y24733853D01*
X34395506Y24523000D01*
X34946494Y24523000D01*
X35455540Y24733853D01*
X35845147Y25123460D01*
X35899798Y25255400D01*
X38563791Y22591407D01*
G36*
X12163807Y19390990D02*
X10133010Y19390990D01*
X10133010Y19558000D01*
X10146000Y19558000D01*
X10146000Y19578000D01*
X10400000Y19578000D01*
X10400000Y19558000D01*
X11274250Y19558000D01*
X11433000Y19716750D01*
X11433000Y20032310D01*
X11369723Y20185075D01*
X12163807Y19390990D01*
X12163807Y19390990D01*
G37*
X12163807Y19390990D02*
X10133010Y19390990D01*
X10133010Y19558000D01*
X10146000Y19558000D01*
X10146000Y19578000D01*
X10400000Y19578000D01*
X10400000Y19558000D01*
X11274250Y19558000D01*
X11433000Y19716750D01*
X11433000Y20032310D01*
X11369723Y20185075D01*
X12163807Y19390990D01*
G36*
X13753331Y22185869D02*
X13697000Y22049874D01*
X13697000Y21638126D01*
X13848886Y21271440D01*
X13309600Y21271440D01*
X13245677Y21258725D01*
X13033713Y21470688D01*
X13172327Y21609301D01*
X13269000Y21842690D01*
X13269000Y22433250D01*
X13110252Y22591998D01*
X13269000Y22591998D01*
X13269000Y22670201D01*
X13753331Y22185869D01*
X13753331Y22185869D01*
G37*
X13753331Y22185869D02*
X13697000Y22049874D01*
X13697000Y21638126D01*
X13848886Y21271440D01*
X13309600Y21271440D01*
X13245677Y21258725D01*
X13033713Y21470688D01*
X13172327Y21609301D01*
X13269000Y21842690D01*
X13269000Y22433250D01*
X13110252Y22591998D01*
X13269000Y22591998D01*
X13269000Y22670201D01*
X13753331Y22185869D01*
G36*
X11761000Y22846000D02*
X11781000Y22846000D01*
X11781000Y22592000D01*
X11761000Y22592000D01*
X11761000Y22572000D01*
X11507000Y22572000D01*
X11507000Y22592000D01*
X11487000Y22592000D01*
X11487000Y22846000D01*
X11507000Y22846000D01*
X11507000Y22866000D01*
X11761000Y22866000D01*
X11761000Y22846000D01*
X11761000Y22846000D01*
G37*
X11761000Y22846000D02*
X11781000Y22846000D01*
X11781000Y22592000D01*
X11761000Y22592000D01*
X11761000Y22572000D01*
X11507000Y22572000D01*
X11507000Y22592000D01*
X11487000Y22592000D01*
X11487000Y22846000D01*
X11507000Y22846000D01*
X11507000Y22866000D01*
X11761000Y22866000D01*
X11761000Y22846000D01*
G36*
X17145000Y25527000D02*
X17165000Y25527000D01*
X17165000Y25273000D01*
X17145000Y25273000D01*
X17145000Y25253000D01*
X16891000Y25253000D01*
X16891000Y25273000D01*
X16871000Y25273000D01*
X16871000Y25527000D01*
X16891000Y25527000D01*
X16891000Y25547000D01*
X17145000Y25547000D01*
X17145000Y25527000D01*
X17145000Y25527000D01*
G37*
X17145000Y25527000D02*
X17165000Y25527000D01*
X17165000Y25273000D01*
X17145000Y25273000D01*
X17145000Y25253000D01*
X16891000Y25253000D01*
X16891000Y25273000D01*
X16871000Y25273000D01*
X16871000Y25527000D01*
X16891000Y25527000D01*
X16891000Y25547000D01*
X17145000Y25547000D01*
X17145000Y25527000D01*
G04 #@! TD*
M02*
